<svg width="800" height="191" viewBox="0 0 800 191" fill="none" xmlns="http://www.w3.org/2000/svg">
<g clip-path="url(#clip0_1_28)">
<path d="M296.73 49.7702H297.518V2.38785H251.042V26.0946C267.843 28.4903 284.316 36.0284 296.73 49.7702Z" fill="#140F50"/>
<path d="M297.518 95.9586H296.73C287.509 124.8 266.945 143.216 242.142 143.216C211.67 143.216 196.141 127.438 196.141 94.5618V2.38785H134.761L0 167.594V168.382H82.3117V167.594C68.8989 153.204 67.0564 123.2 93.1247 91.2297L149.665 21.9198V95.9586C149.665 149.701 178.536 170.793 226.761 170.793C274.987 170.793 299.314 138.456 297.518 95.9586Z" fill="#140F50"/>
<path d="M548.623 116.653H532.727V117.441C537.24 119.806 537.981 123.754 534.819 131.839L528.105 149.139L521.375 131.839C518.213 123.715 519.111 120.095 522.679 117.441V116.653H496.97V117.441C501.233 119.658 502.849 122.904 506.385 131.87L520.805 168.39H524.1L538.52 131.87C542.314 122.272 543.267 119.993 548.607 117.441V116.653H548.623Z" fill="#140F50"/>
<path d="M655.035 126.01C655.035 121.999 657.698 119.174 662.71 119.174C668.628 119.174 673.382 123.996 677.52 131.464H678.847V118.347C673.741 116.747 668.721 115.623 663.42 115.623C653.224 115.623 644.441 122.084 644.441 131.464C644.441 149.123 670.384 147.25 670.384 158.043C670.384 163.692 666.652 165.893 661.804 165.893C654.567 165.893 648.657 159.073 644.542 150.98H643.215L644.113 166.221C648.688 168.242 654.739 169.451 661.398 169.451C673.382 169.451 681.791 162.662 681.791 152.9C681.791 134.937 655.035 136.513 655.035 126.017V126.01Z" fill="#140F50"/>
<path d="M573.762 115.615C558.03 115.615 547.327 127.867 547.327 141.944C547.327 156.021 556.555 169.443 572.45 169.443C588.346 169.443 594.006 157.161 594.732 151.082H593.944C591.141 156.763 584.965 159.478 579.118 159.478C566.361 159.478 561.84 151.043 561.169 140.001H594.685C595.755 124.324 586.534 115.615 573.762 115.615ZM580.898 136.638H561.091C561.216 126.743 565.697 118.963 572.099 118.963C577.915 118.963 581.343 125.307 580.898 136.638Z" fill="#140F50"/>
<path d="M784.105 116.653V117.441C788.617 119.806 789.359 123.754 786.197 131.839L779.483 149.139L772.753 131.839C769.591 123.715 770.489 120.095 774.057 117.441V116.653H735.676V101.413H734.888L715.471 119.423V120.212H721.334V153.173C721.334 163.31 727.096 169.412 736.605 169.412C745.498 169.412 751.174 163.684 753.266 155.202H752.477C750.213 158.706 746.286 160.602 742.796 160.579C738.362 160.547 735.676 157.286 735.676 151.098V120.219H745.911C751.314 120.219 753.773 121.764 755.772 126.821L771.863 167.563C768.709 175.553 764.321 182.101 752.766 176.256H751.978V189.295C753.727 189.74 755.561 190.115 757.802 190.115C766.054 190.115 769.427 183.731 775.478 168.398L789.898 131.878C793.692 122.28 794.644 120.001 799.984 117.449V116.661H784.089L784.105 116.653Z" fill="#140F50"/>
<path d="M385.256 96.7467C392.025 99.0644 395.234 101.866 395.234 107.609V138.698C395.234 152.924 389.144 162.834 377.019 162.834C364.098 162.834 359.266 153.267 359.266 138.675V107.617C359.266 101.866 362.475 99.0722 369.243 96.7545V95.9664H336.633V96.7545C341.122 99.6886 343.534 101.811 343.534 107.617V139.681C343.534 156.669 351.373 169.443 371.281 169.443C392.361 169.443 399.356 156.474 399.356 139.197V107.609C399.356 101.803 401.792 99.1892 406.172 96.7467V95.9586H385.248V96.7467H385.256Z" fill="#140F50"/>
<path d="M459.355 158.191V132.065C459.355 121.874 453.039 115.615 443.217 115.615C436.409 115.615 431.1 119.096 427.275 124.113V115.615H426.486L407.304 120.329V121.117C411.309 123.232 413.323 126.119 413.323 131.324V158.199C413.323 162.943 410.895 165.378 407.351 167.602V168.39H433.638V167.602C430.093 165.378 427.665 162.889 427.665 158.191V129.186C429.648 125.799 433.317 123.099 436.956 123.099C442.788 123.099 445.005 126.876 445.005 134.351V158.183C445.005 162.928 442.577 165.362 439.032 167.586V168.382H465.319V167.586C461.775 165.362 459.347 162.881 459.347 158.183L459.355 158.191Z" fill="#140F50"/>
<path d="M473.525 102.279C473.525 107.086 477.428 110.988 482.238 110.988C487.047 110.988 490.95 107.086 490.95 102.279C490.95 97.4725 487.047 93.5708 482.238 93.5708C477.428 93.5708 473.525 97.4725 473.525 102.279Z" fill="#140F50"/>
<path d="M489.405 158.191V115.615H488.616L469.043 120.329V121.117C473.048 123.232 475.063 126.119 475.063 131.324V158.191C475.063 162.935 472.635 165.37 469.09 167.594V168.382H495.377V167.594C491.833 165.37 489.405 162.881 489.405 158.183V158.191Z" fill="#140F50"/>
<path d="M699.857 110.98C704.658 110.98 708.569 107.078 708.569 102.272C708.569 97.4647 704.666 93.563 699.857 93.563C695.047 93.563 691.144 97.4647 691.144 102.272C691.144 107.078 695.047 110.98 699.857 110.98Z" fill="#140F50"/>
<path d="M707.024 158.191V115.615H706.235L686.662 120.329V121.117C690.667 123.232 692.682 126.119 692.682 131.324V158.191C692.682 162.935 690.254 165.37 686.709 167.594V168.382H712.996V167.594C709.452 165.37 707.024 162.881 707.024 158.183V158.191Z" fill="#140F50"/>
<path d="M634.479 115.615C629.342 115.615 623.346 119.377 619.973 127.243V115.615H619.184L600.002 120.329V121.117C604.007 123.232 606.021 126.119 606.021 131.324V158.191C606.021 162.935 603.593 165.37 600.049 167.594V168.382H628.623V167.594C623.806 165.487 620.371 162.764 620.371 158.183V131.745C624.931 127.679 632.16 126.376 638.133 131.862H638.921V117.324C637.984 116.154 636.189 115.608 634.487 115.608L634.479 115.615Z" fill="#140F50"/>
<path d="M457.676 64.6201V2.38785H456.888L437.315 7.10111V7.88926C441.32 10.004 443.334 12.8912 443.334 18.0961V25.2284C440.648 23.184 436.62 22.0525 432.474 22.0525C419.303 22.0525 409.357 32.4388 409.357 49.7C409.357 65.8218 417 75.8804 429.062 75.8804C435.535 75.8804 440.399 72.8761 443.732 68.0146V74.827H463.649V74.0388C460.104 71.8148 457.676 69.3255 457.676 64.6279V64.6201ZM436.144 68.2409C426.853 68.2409 423.957 57.7063 423.957 47.1014C423.957 31.6741 429.828 26.3677 435.418 26.3677C439.954 26.3677 443.334 31.2605 443.334 37.394V65.2678C441.25 66.8831 438.517 68.2409 436.144 68.2409Z" fill="#140F50"/>
<path d="M681.759 64.6201V2.38785H680.971L661.398 7.10111V7.88926C665.403 10.004 667.417 12.8912 667.417 18.0961V25.2284C664.732 23.184 660.703 22.0525 656.558 22.0525C643.387 22.0525 633.44 32.4388 633.44 49.7C633.44 65.8218 641.084 75.8804 653.146 75.8804C659.618 75.8804 664.482 72.8761 667.816 68.0146V74.827H687.732V74.0388C684.187 71.8148 681.759 69.3255 681.759 64.6279V64.6201ZM660.227 68.2409C650.936 68.2409 648.04 57.7063 648.04 47.1014C648.04 31.6741 653.911 26.3677 659.501 26.3677C664.037 26.3677 667.417 31.2605 667.417 37.394V65.2678C665.333 66.8831 662.6 68.2409 660.227 68.2409Z" fill="#140F50"/>
<path d="M361.108 74.0232C354.175 71.5495 349.171 68.6232 355.378 53.5939H380.712L383.195 59.6025C386.654 67.9834 383.843 72.2518 377.55 74.031V74.8192H409.162V74.031C405.399 71.7212 403.158 68.3423 400.644 62.3259L375.606 2.38785H372.382L350.834 54.1635C345.525 66.9221 343.277 70.9487 336.625 74.0232V74.8114H361.1V74.0232H361.108ZM368.049 22.9264L379.135 49.7702H356.955L368.041 22.9264H368.049Z" fill="#140F50"/>
<path d="M616.35 17.4094C621.152 17.4094 625.063 13.5077 625.063 8.70082C625.063 3.89391 621.16 -0.00779724 616.35 -0.00779724C611.541 -0.00779724 607.637 3.89391 607.637 8.70082C607.637 13.5077 611.541 17.4094 616.35 17.4094Z" fill="#140F50"/>
<path d="M609.183 37.7451V64.6123C609.183 69.3568 606.755 71.7914 603.211 74.0154V74.8036H629.498V74.0154C625.953 71.7914 623.525 69.3021 623.525 64.6045V22.0447H622.737L603.164 26.7579V27.5461C607.169 29.6608 609.183 32.5481 609.183 37.7529V37.7451Z" fill="#140F50"/>
<path d="M525.31 18.0883V64.6201C525.31 69.3646 522.882 71.7992 519.338 74.0232V74.8114H545.625V74.0232C542.08 71.7992 539.652 69.3099 539.652 64.6123V2.38785H538.864L519.291 7.10111V7.88926C523.296 10.004 525.31 12.8912 525.31 18.0961V18.0883Z" fill="#140F50"/>
<path d="M492.473 75.8726C508.368 75.8726 514.029 63.59 514.755 57.5112H513.966C511.163 63.1921 504.988 65.9077 499.14 65.9077C486.383 65.9077 481.863 57.4722 481.191 46.4303H514.708C515.777 30.7533 506.557 22.0447 493.784 22.0447C478.053 22.0447 467.349 34.296 467.349 48.3734C467.349 62.4508 476.577 75.8726 492.473 75.8726ZM492.129 25.3845C497.946 25.3845 501.373 31.7287 500.928 43.0593H481.121C481.246 33.1645 485.727 25.3845 492.129 25.3845Z" fill="#140F50"/>
<path d="M716.556 75.8726C732.452 75.8726 738.112 63.59 738.838 57.5112H738.05C735.247 63.1921 729.071 65.9077 723.224 65.9077C710.467 65.9077 705.946 57.4722 705.275 46.4303H738.791C739.861 30.7533 730.641 22.0447 717.868 22.0447C702.136 22.0447 691.433 34.296 691.433 48.3734C691.433 62.4508 700.661 75.8726 716.556 75.8726ZM716.205 25.3845C722.021 25.3845 725.449 31.7287 725.004 43.0593H705.197C705.322 33.1645 709.803 25.3845 716.205 25.3845Z" fill="#140F50"/>
<path d="M593.467 64.6201V37.1521C593.467 27.5227 586.449 22.0447 574.863 22.0447C555.157 22.0447 550.465 34.7954 553.697 41.7249L566.485 38.6503V37.8622C564.237 31.6351 566.556 25.2675 572.513 25.2675C577.33 25.2675 579.11 29.8169 579.11 34.4521V43.4494C561.356 48.4436 550.777 53.6719 550.777 63.9646C550.777 71.8539 556.32 75.8726 564.432 75.8726C569.062 75.8726 574.98 74.429 579.508 68.1082V74.8114H599.44V74.0232C595.895 71.7992 593.467 69.31 593.467 64.6123V64.6201ZM579.118 63.7773C576.635 66.8987 573.34 69.2319 570.124 69.2319C566.306 69.2319 564.292 65.6814 564.292 61.4363C564.292 53.6797 572.068 49.3644 579.118 46.8673V63.7773Z" fill="#140F50"/>
</g>
<defs>
<clipPath id="clip0_1_28">
<rect width="800" height="190.099" fill="#140F50"/>
</clipPath>
</defs>
</svg>
