<svg id="Capa_1" enable-background="new 0 0 488.471 488.471" height="512" viewBox="0 0 488.471 488.471" width="512" xmlns="http://www.w3.org/2000/svg"><path d="m473.206 152.647h-137.383v-137.382c0-8.438-6.827-15.265-15.264-15.265h-305.294c-8.438 0-15.265 6.827-15.265 15.265v305.294c0 8.437 6.827 15.265 15.265 15.265h137.382v137.382c0 8.437 6.827 15.265 15.265 15.265h305.294c8.437 0 15.265-6.827 15.265-15.265v-305.294c0-8.438-6.828-15.265-15.265-15.265zm-442.677 152.647v-274.765h274.765v122.118h-137.382c-8.437 0-15.265 6.827-15.265 15.265v137.382zm274.765-122.118v122.118h-122.118v-122.118zm152.647 274.765h-274.765v-122.118h137.382c8.437 0 15.265-6.827 15.265-15.265v-137.382h122.118z"/></svg>