<svg height="512pt" viewBox="-27 0 512 512" width="512pt" xmlns="http://www.w3.org/2000/svg"><path d="m146 492c0 11.046875-8.953125 20-20 20h-46c-44.113281 0-80-35.886719-80-80v-352c0-44.113281 35.886719-80 80-80h245.890625c44.109375 0 80 35.886719 80 80v119c0 11.046875-8.957031 20-20 20-11.046875 0-20-8.953125-20-20v-119c0-22.054688-17.945313-40-40-40h-245.890625c-22.054688 0-40 17.945312-40 40v352c0 22.054688 17.945312 40 40 40h46c11.046875 0 20 8.953125 20 20zm179.886719-352c0-11.046875-8.953125-20-20-20h-206c-11.042969 0-20 8.953125-20 20s8.957031 20 20 20h206c11.046875 0 20-8.953125 20-20zm-79.886719 80c0-11.046875-8.953125-20-20-20h-126.113281c-11.042969 0-20 8.953125-20 20s8.957031 20 20 20h126.113281c11.046875 0 20-8.953125 20-20zm-146.113281 60c-11.042969 0-20 8.953125-20 20s8.957031 20 20 20h83.113281c11.046875 0 20-8.953125 20-20s-8.953125-20-20-20zm348.921875 217.121094c-7.695313 9.457031-19.050782 14.878906-31.15625 14.878906h-195.304688c-12.171875 0-23.5625-5.417969-31.25-14.863281-7.734375-9.503907-10.738281-21.851563-8.242187-33.875 6.460937-31.125 23.574219-59.445313 48.183593-79.746094 9.320313-7.6875 19.5625-14.085937 30.421876-19.085937-12.101563-13.746094-19.460938-31.757813-19.460938-51.464844 0-43.011719 34.988281-78 78-78s78 34.988281 78 78c0 19.707031-7.359375 37.71875-19.460938 51.464844 10.859376 5 21.101563 11.394531 30.421876 19.085937 24.117187 19.894531 41.03125 47.492187 47.78125 77.878906.15625.527344.289062 1.058594.402343 1.601563 2.507813 12.09375-.53125 24.53125-8.335937 34.125zm-166.808594-184.15625c0 20.953125 17.046875 38 38 38s38-17.046875 38-38-17.046875-38-38-38-38 17.046875-38 38zm135.988281 158.46875c-.003906-.011719-.007812-.027344-.007812-.039063-9.605469-46.253906-50.8125-79.828125-97.980469-79.828125s-88.378906 33.574219-97.980469 79.828125c-.089843.449219.21875.59375.21875.597657.007813 0 .042969.007812.109375.007812h195.304688c.011718-.011719.28125-.214844.335937-.566406zm0 0"/></svg>