<?xml version="1.0"?>
<svg xmlns="http://www.w3.org/2000/svg" xmlns:xlink="http://www.w3.org/1999/xlink" version="1.1" id="Capa_1" x="0px" y="0px" viewBox="0 0 31.31 31.31" style="enable-background:new 0 0 31.31 31.31;" xml:space="preserve" width="512px" height="512px"><g><g>
	<path d="M15.658,0c-4.281,0-7.756,3.473-7.756,7.75c0,3.031,1.747,5.656,4.282,6.934v3.506c0,0,2.756,0.219,2.756,1.906   c0,1.172-1.418,1.646-2.232,2.109c-0.355,0.203-1.158,0.639-0.014,1.234c0.611,0.326,2.174,0.713,2.174,2.232   c0,1.525-2.535,2.252-2.535,2.252l3.385,3.387l3.408-3.406v-13.22c2.537-1.277,4.283-3.902,4.283-6.934   C23.408,3.473,19.934,0,15.658,0z M10.041,6.814c0.51-2.634,2.83-4.628,5.617-4.628c2.785,0,5.104,1.994,5.613,4.629h-11.23V6.814z   " data-original="#000000" class="active-path" data-old_color="#000000" fill="#8C7979"/>
	<g>
	</g>
	<g>
	</g>
	<g>
	</g>
	<g>
	</g>
	<g>
	</g>
	<g>
	</g>
	<g>
	</g>
	<g>
	</g>
	<g>
	</g>
	<g>
	</g>
	<g>
	</g>
	<g>
	</g>
	<g>
	</g>
	<g>
	</g>
	<g>
	</g>
</g></g> </svg>
