<?xml version="1.0" encoding="iso-8859-1"?>
<!-- Generator: Adobe Illustrator 16.0.0, SVG Export Plug-In . SVG Version: 6.00 Build 0)  -->
<!DOCTYPE svg PUBLIC "-//W3C//DTD SVG 1.1//EN" "http://www.w3.org/Graphics/SVG/1.1/DTD/svg11.dtd">
<svg version="1.1" id="Capa_1" xmlns="http://www.w3.org/2000/svg" xmlns:xlink="http://www.w3.org/1999/xlink" x="0px" y="0px"
	 width="46.124px" height="46.125px" viewBox="0 0 46.124 46.125" style="enable-background:new 0 0 46.124 46.125;"
	 xml:space="preserve">
<g>
	<g>
		<g>
			<path d="M37.727,0.062H8.397C3.759,0.062,0,3.822,0,8.46v29.204c0,4.639,3.759,8.398,8.397,8.398h29.33
				c4.637,0,8.397-3.76,8.397-8.398V8.46C46.125,3.822,42.365,0.062,37.727,0.062z M38.007,19.14L22.142,35.005
				c-0.673,0.674-1.586,1.052-2.538,1.052s-1.865-0.379-2.538-1.052l-7.863-7.863c-1.401-1.402-1.401-3.674,0.001-5.077
				c0.673-0.673,1.585-1.051,2.537-1.051c0.952,0,1.864,0.378,2.537,1.051l4.686,4.687c0.17,0.17,0.401,0.266,0.641,0.266
				c0.24,0,0.471-0.096,0.641-0.266l12.686-12.687c0.674-0.673,1.586-1.052,2.539-1.052c0.951,0.001,1.864,0.379,2.537,1.052
				C39.409,15.467,39.409,17.739,38.007,19.14z"/>
		</g>
	</g>
</g>
<g>
</g>
<g>
</g>
<g>
</g>
<g>
</g>
<g>
</g>
<g>
</g>
<g>
</g>
<g>
</g>
<g>
</g>
<g>
</g>
<g>
</g>
<g>
</g>
<g>
</g>
<g>
</g>
<g>
</g>
</svg>
