<?xml version="1.0" encoding="UTF-8"?>
<svg width="47px" height="47px" viewBox="0 0 47 47" xmlns="http://www.w3.org/2000/svg" version="1.1">
 <!-- Generated by Pixelmator Pro 1.6.4 -->
 <g id="group">
  <g id="group-1">
   <g id="group-2">
    <path id="Path" d="M37.727 0.062 L8.397 0.062 C3.759 0.062 0 3.822 0 8.46 L0 37.664 C0 42.303 3.759 46.062 8.397 46.062 L37.727 46.062 C42.364 46.062 46.124 42.302 46.124 37.664 L46.124 8.46 C46.125 3.822 42.365 0.062 37.727 0.062 Z M38.007 19.14 L22.142 35.005 C21.469 35.679 20.556 36.057 19.604 36.057 18.652 36.057 17.739 35.678 17.066 35.005 L9.203 27.142 C7.802 25.74 7.802 23.468 9.204 22.065 9.877 21.392 10.789 21.014 11.741 21.014 12.693 21.014 13.605 21.392 14.278 22.065 L18.964 26.752 C19.134 26.922 19.365 27.018 19.605 27.018 19.845 27.018 20.076 26.922 20.246 26.752 L32.932 14.065 C33.606 13.392 34.518 13.013 35.471 13.013 36.422 13.014 37.335 13.392 38.008 14.065 39.409 15.467 39.409 17.739 38.007 19.14 Z" fill="#60d838" fill-opacity="1" stroke="none"/>
   </g>
  </g>
 </g>
 <g id="group-3"/>
 <g id="group-4"/>
 <g id="group-5"/>
 <g id="group-6"/>
 <g id="group-7"/>
 <g id="group-8"/>
 <g id="group-9"/>
 <g id="group-10"/>
 <g id="group-11"/>
 <g id="group-12"/>
 <g id="group-13"/>
 <g id="group-14"/>
 <g id="group-15"/>
 <g id="group-16"/>
 <g id="group-17"/>
</svg>
