<?xml version="1.0" encoding="iso-8859-1"?>
<!-- Generator: Adobe Illustrator 16.0.0, SVG Export Plug-In . SVG Version: 6.00 Build 0)  -->
<!DOCTYPE svg PUBLIC "-//W3C//DTD SVG 1.1//EN" "http://www.w3.org/Graphics/SVG/1.1/DTD/svg11.dtd">
<svg version="1.1" id="Capa_1" xmlns="http://www.w3.org/2000/svg" xmlns:xlink="http://www.w3.org/1999/xlink" x="0px" y="0px"
	 width="45.363px" height="45.363px" viewBox="0 0 45.363 45.363" style="enable-background:new 0 0 45.363 45.363;"
	 xml:space="preserve">
<g>
	<g>
		<path d="M1.788,16.945c0.388,0.385,0.913,0.601,1.459,0.601l27.493-0.035v3.831c0.003,0.836,0.556,1.586,1.329,1.904
			c0.771,0.314,1.658,0.135,2.246-0.459l9.091-9.18c1.062-1.071,1.06-2.801-0.009-3.868l-9.137-9.134
			c-0.59-0.591-1.479-0.768-2.25-0.446c-0.77,0.319-1.271,1.074-1.27,1.908L30.74,5.9L3.219,5.937
			C2.08,5.94,1.161,6.864,1.163,8.004l0.018,7.483C1.182,16.034,1.401,16.56,1.788,16.945z"/>
		<path d="M42.146,27.901l-27.522-0.035l-0.001-3.834c0.002-0.835-0.5-1.587-1.27-1.907c-0.771-0.321-1.66-0.146-2.25,0.445
			l-9.136,9.135c-1.067,1.064-1.071,2.796-0.009,3.866l9.09,9.181c0.588,0.596,1.475,0.772,2.247,0.458
			c0.772-0.316,1.326-1.066,1.329-1.904v-3.83l27.493,0.035c0.547,0,1.072-0.216,1.459-0.602s0.605-0.91,0.607-1.456L44.2,29.97
			C44.203,28.83,43.284,27.903,42.146,27.901z"/>
	</g>
</g>
<g>
</g>
<g>
</g>
<g>
</g>
<g>
</g>
<g>
</g>
<g>
</g>
<g>
</g>
<g>
</g>
<g>
</g>
<g>
</g>
<g>
</g>
<g>
</g>
<g>
</g>
<g>
</g>
<g>
</g>
</svg>
