<?xml version="1.0" encoding="UTF-8"?>
<svg width="44px" height="46px" viewBox="0 0 44 46" version="1.1" xmlns="http://www.w3.org/2000/svg">
    <!-- Generator: Sketch 53.1 (72631) - https://sketchapp.com -->
    <title>Untitled 2</title>
    <desc>Created with Sketch.</desc>
    <g id="Page-1" stroke="none" stroke-width="1" fill="none" fill-rule="evenodd">
        <g id="two-way-arrows" fill="#B2B2FF" fill-rule="nonzero">
            <path d="M0.788,16.945 C1.176,17.33 1.701,17.546 2.247,17.546 L29.74,17.511 L29.74,21.342 C29.743,22.178 30.296,22.928 31.069,23.246 C31.84,23.56 32.727,23.381 33.315,22.787 L42.406,13.607 C43.468,12.536 43.466,10.806 42.397,9.739 L33.26,0.605 C32.67,0.014 31.781,-0.163 31.01,0.159 C30.24,0.478 29.739,1.233 29.74,2.067 L29.74,5.9 L2.219,5.937 C1.08,5.94 0.161,6.864 0.163,8.004 L0.181,15.487 C0.182,16.034 0.401,16.56 0.788,16.945 Z" id="Path"></path>
            <path d="M41.146,27.901 L13.624,27.866 L13.623,24.032 C13.625,23.197 13.123,22.445 12.353,22.125 C11.582,21.804 10.693,21.979 10.103,22.57 L0.967,31.705 C-0.1,32.769 -0.104,34.501 0.958,35.571 L10.048,44.752 C10.636,45.348 11.523,45.524 12.295,45.21 C13.067,44.894 13.621,44.144 13.624,43.306 L13.624,39.476 L41.117,39.511 C41.664,39.511 42.189,39.295 42.576,38.909 C42.963,38.523 43.181,37.999 43.183,37.453 L43.2,29.97 C43.203,28.83 42.284,27.903 41.146,27.901 Z" id="Path"></path>
        </g>
    </g>
</svg>