<?xml version="1.0" encoding="UTF-8"?>
<svg width="46px" height="46px" viewBox="0 0 46 46" xmlns="http://www.w3.org/2000/svg" version="1.1">
 <!-- Generated by Pixelmator Pro 1.6.4 -->
 <g id="group">
  <g id="group-1">
   <path id="Path" d="M3.788 18.945 C4.176 19.33 4.701 19.546 5.247 19.546 L32.74 19.511 32.74 23.342 C32.743 24.178 33.296 24.928 34.069 25.246 34.84 25.56 35.727 25.381 36.315 24.787 L45.406 15.607 C46.468 14.536 46.466 12.806 45.397 11.739 L36.26 2.605 C35.67 2.014 34.781 1.837 34.01 2.159 33.24 2.478 32.739 3.233 32.74 4.067 L32.74 7.9 5.219 7.937 C4.08 7.94 3.161 8.864 3.163 10.004 L3.181 17.487 C3.182 18.034 3.401 18.56 3.788 18.945 Z" fill="#951010" fill-opacity="1" stroke="none"/>
   <path id="Path-1" d="M44.146 29.901 L16.624 29.866 16.623 26.032 C16.625 25.197 16.123 24.445 15.353 24.125 14.582 23.804 13.693 23.979 13.103 24.57 L3.967 33.705 C2.9 34.769 2.896 36.501 3.958 37.571 L13.048 46.752 C13.636 47.348 14.523 47.524 15.295 47.21 16.067 46.894 16.621 46.144 16.624 45.306 L16.624 41.476 44.117 41.511 C44.664 41.511 45.189 41.295 45.576 40.909 45.963 40.523 46.181 39.999 46.183 39.453 L46.2 31.97 C46.203 30.83 45.284 29.903 44.146 29.901 Z" fill="#951010" fill-opacity="1" stroke="none"/>
  </g>
 </g>
 <g id="group-2"/>
 <g id="group-3"/>
 <g id="group-4"/>
 <g id="group-5"/>
 <g id="group-6"/>
 <g id="group-7"/>
 <g id="group-8"/>
 <g id="group-9"/>
 <g id="group-10"/>
 <g id="group-11"/>
 <g id="group-12"/>
 <g id="group-13"/>
 <g id="group-14"/>
 <g id="group-15"/>
 <g id="group-16"/>
</svg>
