<?xml version="1.0" encoding="iso-8859-1"?>
<!-- Generator: Adobe Illustrator 19.0.0, SVG Export Plug-In . SVG Version: 6.00 Build 0)  -->
<svg version="1.1" id="Capa_1" xmlns="http://www.w3.org/2000/svg" xmlns:xlink="http://www.w3.org/1999/xlink" x="0px" y="0px"
	 viewBox="0 0 464.98 464.98" style="enable-background:new 0 0 464.98 464.98;" xml:space="preserve">
<polygon style="fill:#4DCFE0;" points="416.392,15.673 416.392,82.024 272.718,239.804 272.718,403.331 192.261,449.306 
	192.261,239.804 48.588,82.024 48.588,15.673 "/>
<path style="fill:#3A2C51;" d="M192.261,464.98c-2.612,0-5.224-0.522-7.837-2.09c-4.702-2.612-7.837-7.837-7.837-13.584V246.073
	L37.094,92.473c-2.612-3.135-4.18-6.792-4.18-10.449V15.673C32.914,6.792,39.706,0,48.588,0h367.804
	c8.882,0,15.673,6.792,15.673,15.673v66.351c0,3.657-1.567,7.837-4.18,10.449l-139.494,153.6v157.257
	c0,5.747-3.135,10.971-7.837,13.584l-80.457,45.976C197.486,464.457,194.873,464.98,192.261,464.98z M64.261,75.755l139.494,153.078
	c2.612,3.135,4.18,6.792,4.18,10.449v182.335l49.11-28.212v-153.6c0-3.657,1.567-7.837,4.18-10.449l139.494-153.6V31.347H64.261
	V75.755z"/>
<g>
</g>
<g>
</g>
<g>
</g>
<g>
</g>
<g>
</g>
<g>
</g>
<g>
</g>
<g>
</g>
<g>
</g>
<g>
</g>
<g>
</g>
<g>
</g>
<g>
</g>
<g>
</g>
<g>
</g>
</svg>
