<?xml version="1.0" encoding="iso-8859-1"?>
<!-- Generator: Adobe Illustrator 19.0.0, SVG Export Plug-In . SVG Version: 6.00 Build 0)  -->
<svg version="1.1" id="Layer_1" xmlns="http://www.w3.org/2000/svg" x="0px" y="0px"
     viewBox="0 0 512 512" style="enable-background:new 0 0 512 512;" xml:space="preserve">
<path style="fill:#1E0478;" d="M512,233.108v45.785c0,13.186-9.814,24.602-22.821,26.55c-9.635,1.435-19.521,2.821-29.384,4.112
	c-1.195,0.155-2.164,0.968-2.463,2.068c-4.555,16.521-11.165,32.456-19.641,47.387c-0.574,1.004-0.466,2.259,0.275,3.216
	c6.061,7.89,12.086,15.863,17.872,23.693c7.83,10.579,6.694,25.594-2.642,34.918l-32.36,32.36
	c-9.336,9.336-24.339,10.472-34.918,2.642c-7.818-5.786-15.792-11.799-23.693-17.872c-0.956-0.729-2.212-0.837-3.216-0.275
	c-14.919,8.476-30.866,15.086-47.387,19.641c-1.1,0.299-1.913,1.267-2.068,2.463c-1.291,9.874-2.678,19.76-4.112,29.383
	C303.494,502.186,292.078,512,278.88,512H233.12c-13.197,0-24.614-9.814-26.562-22.821c-1.434-9.611-2.821-19.497-4.112-29.383
	c-0.155-1.195-0.968-2.164-2.068-2.463c-16.521-4.555-32.468-11.165-47.387-19.641c-0.992-0.562-2.259-0.466-3.216,0.275
	c-7.902,6.073-15.875,12.086-23.693,17.872c-10.579,7.83-25.582,6.694-34.918-2.642l-32.36-32.36
	c-9.336-9.324-10.472-24.339-2.642-34.918c5.786-7.83,11.799-15.792,17.872-23.693c0.741-0.956,0.849-2.212,0.275-3.216
	c-8.476-14.931-15.086-30.878-19.641-47.387c-0.299-1.1-1.267-1.913-2.463-2.068c-9.862-1.291-19.748-2.666-29.384-4.112
	C9.814,303.494,0,292.078,0,278.892v-45.785c0-13.186,9.814-24.602,22.821-26.55c9.635-1.446,19.521-2.821,29.384-4.112
	c1.195-0.155,2.164-0.968,2.463-2.068c4.555-16.509,11.165-32.456,19.641-47.387c0.574-1.004,0.466-2.259-0.275-3.216
	c-6.061-7.878-12.074-15.851-17.872-23.693c-7.83-10.579-6.694-25.582,2.642-34.918l32.36-32.36
	c9.324-9.336,24.339-10.472,34.918-2.642c7.818,5.786,15.792,11.799,23.693,17.872c0.956,0.729,2.223,0.849,3.216,0.275
	c14.919-8.476,30.866-15.086,47.387-19.641c1.1-0.299,1.913-1.267,2.068-2.463c1.291-9.886,2.678-19.772,4.112-29.384
	C208.506,9.814,219.922,0,233.12,0h45.773c13.186,0,24.602,9.814,26.55,22.821c1.435,9.611,2.821,19.497,4.112,29.384
	c0.155,1.195,0.968,2.164,2.068,2.463c16.521,4.555,32.468,11.165,47.387,19.641c1.004,0.574,2.271,0.466,3.216-0.275
	c7.902-6.073,15.875-12.086,23.693-17.872c10.579-7.83,25.594-6.694,34.918,2.642l32.36,32.36
	c9.336,9.324,10.472,24.339,2.642,34.918c-5.786,7.83-11.811,15.804-17.872,23.693c-0.741,0.956-0.849,2.223-0.275,3.216
	c8.476,14.931,15.086,30.866,19.641,47.387c0.299,1.1,1.267,1.913,2.463,2.068c9.862,1.291,19.748,2.678,29.384,4.112
	C502.186,208.506,512,219.922,512,233.108z M488.092,278.892v-45.785c0-1.446-1.052-2.69-2.451-2.905
	c-9.492-1.423-19.222-2.785-28.941-4.052c-10.747-1.399-19.557-9.013-22.414-19.414c-4.029-14.62-9.874-28.726-17.381-41.935
	c-5.332-9.384-4.507-21.004,2.116-29.611c5.977-7.77,11.894-15.612,17.597-23.323c0.849-1.136,0.705-2.773-0.323-3.801l-32.36-32.36
	c-1.028-1.028-2.666-1.172-3.801-0.323c-7.687,5.69-15.54,11.608-23.323,17.597c-8.595,6.623-20.227,7.447-29.611,2.116
	c-13.209-7.495-27.315-13.341-41.935-17.381c-10.388-2.857-18.015-11.667-19.414-22.426c-1.279-9.731-2.642-19.461-4.052-28.929
	c-0.203-1.399-1.458-2.451-2.905-2.451H233.12c-1.458,0-2.702,1.052-2.917,2.451c-1.411,9.468-2.773,19.199-4.052,28.929
	c-1.399,10.759-9.025,19.569-19.414,22.426c-14.62,4.041-28.726,9.886-41.935,17.381c-9.384,5.332-21.004,4.507-29.611-2.116
	c-7.782-5.989-15.636-11.906-23.323-17.597c-1.148-0.849-2.773-0.705-3.801,0.323l-32.36,32.36
	c-1.028,1.028-1.172,2.654-0.323,3.801c5.714,7.722,11.631,15.564,17.597,23.323c6.623,8.595,7.447,20.227,2.116,29.611
	c-7.507,13.209-13.353,27.315-17.381,41.935c-2.857,10.388-11.667,18.015-22.426,19.414c-9.707,1.267-19.438,2.63-28.929,4.052
	c-1.399,0.215-2.451,1.458-2.451,2.905v45.785c0,1.446,1.052,2.69,2.451,2.905c9.492,1.423,19.222,2.785,28.941,4.052
	c10.747,1.399,19.557,9.025,22.414,19.414c4.029,14.62,9.874,28.726,17.381,41.935c5.332,9.384,4.507,21.016-2.116,29.611
	c-5.977,7.77-11.894,15.624-17.597,23.323c-0.849,1.148-0.705,2.773,0.323,3.801l32.36,32.36c1.028,1.028,2.654,1.16,3.801,0.323
	c7.687-5.69,15.541-11.608,23.323-17.597c4.83-3.718,10.615-5.607,16.413-5.607c4.531,0,9.085,1.148,13.197,3.491
	c13.209,7.495,27.315,13.341,41.935,17.381c10.388,2.857,18.015,11.667,19.414,22.426c1.279,9.731,2.642,19.461,4.052,28.929
	c0.215,1.399,1.458,2.451,2.917,2.451h45.761c1.458,0,2.714-1.052,2.917-2.451c1.423-9.48,2.773-19.21,4.052-28.929
	c1.399-10.759,9.025-19.569,19.414-22.426c14.62-4.041,28.726-9.886,41.935-17.381c9.384-5.332,21.016-4.507,29.611,2.116
	c7.782,5.989,15.636,11.906,23.323,17.597c1.136,0.849,2.773,0.705,3.801-0.323l32.36-32.36c1.028-1.028,1.172-2.666,0.323-3.801
	c-5.702-7.711-11.62-15.552-17.597-23.323c-6.623-8.607-7.448-20.227-2.116-29.611c7.507-13.209,13.353-27.315,17.381-41.935
	c2.857-10.4,11.667-18.015,22.426-19.414c9.707-1.267,19.438-2.63,28.929-4.052C487.04,281.582,488.092,280.339,488.092,278.892z"/>
<path style="fill:#9B8CCC;" d="M488.092,233.108v45.785c0,1.446-1.052,2.69-2.451,2.905c-9.492,1.423-19.222,2.785-28.929,4.052
	c-10.759,1.399-19.569,9.013-22.426,19.414c-4.029,14.62-9.874,28.726-17.381,41.935c-5.332,9.384-4.507,21.004,2.116,29.611
	c5.977,7.77,11.894,15.612,17.597,23.323c0.849,1.136,0.705,2.773-0.323,3.801l-32.36,32.36c-1.028,1.028-2.666,1.172-3.801,0.323
	c-7.687-5.69-15.54-11.608-23.323-17.597c-8.595-6.623-20.227-7.447-29.611-2.116c-13.209,7.495-27.315,13.341-41.935,17.381
	c-10.388,2.857-18.015,11.667-19.414,22.426c-1.279,9.719-2.63,19.45-4.052,28.929c-0.203,1.399-1.458,2.451-2.917,2.451H233.12
	c-1.458,0-2.702-1.052-2.917-2.451c-1.411-9.468-2.773-19.199-4.052-28.929c-1.399-10.759-9.025-19.569-19.414-22.426
	c-14.62-4.041-28.726-9.886-41.935-17.381c-4.112-2.343-8.667-3.491-13.197-3.491c-5.798,0-11.584,1.889-16.413,5.607
	c-7.782,5.989-15.636,11.906-23.323,17.597c-1.148,0.837-2.773,0.705-3.801-0.323l-32.36-32.36
	c-1.028-1.028-1.172-2.654-0.323-3.801c5.702-7.699,11.62-15.552,17.597-23.323c6.623-8.595,7.447-20.227,2.116-29.611
	c-7.507-13.209-13.353-27.315-17.381-41.935c-2.857-10.388-11.667-18.015-22.414-19.414c-9.719-1.267-19.45-2.63-28.941-4.052
	c-1.399-0.215-2.451-1.458-2.451-2.905v-45.785c0-1.446,1.052-2.69,2.451-2.905c9.492-1.423,19.222-2.785,28.929-4.052
	c10.759-1.399,19.569-9.025,22.426-19.414c4.029-14.62,9.874-28.726,17.381-41.935c5.332-9.384,4.507-21.016-2.116-29.611
	c-5.965-7.758-11.883-15.6-17.597-23.323c-0.849-1.148-0.705-2.773,0.323-3.801l32.36-32.36c1.028-1.028,2.654-1.172,3.801-0.323
	c7.687,5.69,15.541,11.608,23.323,17.597c8.607,6.623,20.227,7.447,29.611,2.116c13.209-7.495,27.315-13.341,41.935-17.381
	c10.388-2.857,18.015-11.667,19.414-22.426c1.279-9.731,2.642-19.461,4.052-28.929c0.215-1.399,1.458-2.451,2.917-2.451h45.773
	c1.446,0,2.702,1.052,2.905,2.451c1.411,9.468,2.773,19.199,4.052,28.929c1.399,10.759,9.025,19.569,19.414,22.426
	c14.62,4.041,28.726,9.886,41.935,17.381c9.384,5.332,21.016,4.507,29.611-2.116c7.782-5.989,15.636-11.906,23.323-17.597
	c1.136-0.849,2.773-0.705,3.801,0.323l32.36,32.36c1.028,1.028,1.172,2.666,0.323,3.801c-5.702,7.71-11.62,15.552-17.597,23.323
	c-6.623,8.607-7.448,20.227-2.116,29.611c7.507,13.209,13.353,27.315,17.381,41.935c2.857,10.4,11.667,18.015,22.414,19.414
	c9.719,1.267,19.45,2.63,28.941,4.052C487.04,230.418,488.092,231.661,488.092,233.108z M367.139,256
	c0-61.277-49.861-111.139-111.139-111.139S144.861,194.723,144.861,256S194.723,367.139,256,367.139S367.139,317.277,367.139,256z"
	/>
<path style="fill:#1E0478;" d="M256,144.861c61.277,0,111.139,49.861,111.139,111.139S317.277,367.139,256,367.139
	S144.861,317.277,144.861,256S194.723,144.861,256,144.861z M343.23,256c0-48.092-39.138-87.23-87.23-87.23
	s-87.23,39.138-87.23,87.23s39.138,87.23,87.23,87.23S343.23,304.092,343.23,256z"/>
<g>
</g>
<g>
</g>
<g>
</g>
<g>
</g>
<g>
</g>
<g>
</g>
<g>
</g>
<g>
</g>
<g>
</g>
<g>
</g>
<g>
</g>
<g>
</g>
<g>
</g>
<g>
</g>
<g>
</g>
</svg>
