<?xml version="1.0" encoding="iso-8859-1"?>
<!-- Generator: Adobe Illustrator 19.0.0, SVG Export Plug-In . SVG Version: 6.00 Build 0)  -->
<svg version="1.1" id="Layer_1" xmlns="http://www.w3.org/2000/svg" xmlns:xlink="http://www.w3.org/1999/xlink" x="0px" y="0px"
	 viewBox="0 0 512 512" style="enable-background:new 0 0 512 512;" xml:space="preserve">
<path style="fill:#77757F;" d="M424.498,181.294l-60.076-24.885l24.885-60.075c4.581-11.06-0.672-23.739-11.731-28.321
	L217.372,1.656c-11.057-4.581-23.739,0.67-28.32,11.731l-24.885,60.075l-60.075-24.885c-11.065-4.581-23.742,0.67-28.321,11.731
	c-4.581,11.06,0.672,23.739,11.731,28.321l80.102,33.179l139.63,57.836h-7.883H256H212.65h-86.702
	c-11.971,0-21.675,9.705-21.675,21.675v289.005c0,11.971,9.705,21.675,21.675,21.675h86.702H256h43.351h86.702
	c11.971,0,21.675-9.705,21.675-21.675V221.271l0.181,0.075c2.714,1.123,5.521,1.656,8.286,1.656c8.505,0,16.577-5.039,20.034-13.387
	C440.809,198.555,435.558,185.875,424.498,181.294z M264.295,114.935l-60.076-24.885L220.808,50l120.151,49.768l-16.589,40.05
	L264.295,114.935z"/>
<g>
	<rect id="SVGCleanerId_0" x="147.623" y="222.996" style="fill:#C3C3C7;" width="43.351" height="245.654"/>
</g>
<g>
	<rect x="234.325" y="222.996" style="fill:#A9A8AE;" width="43.351" height="245.654"/>
	<rect x="321.027" y="222.996" style="fill:#A9A8AE;" width="43.351" height="245.654"/>
</g>
<path style="fill:#77757F;" d="M424.498,181.294l-60.076-24.885l24.885-60.075c4.581-11.06-0.672-23.739-11.731-28.321
	L217.372,1.656c-11.057-4.581-23.739,0.67-28.32,11.731l-24.885,60.075l-60.075-24.885c-11.065-4.581-23.742,0.67-28.321,11.731
	c-4.581,11.06,0.672,23.739,11.731,28.321l80.102,33.179l139.63,57.836h-7.883H212.65h-86.702c-11.971,0-21.675,9.705-21.675,21.675
	v289.005c0,11.971,9.705,21.675,21.675,21.675h86.702h86.702h86.702c11.971,0,21.675-9.705,21.675-21.675V221.271l0.181,0.075
	c2.714,1.123,5.521,1.656,8.286,1.656c8.505,0,16.577-5.039,20.034-13.387C440.809,198.555,435.558,185.875,424.498,181.294z
	 M190.974,468.649h-43.351V222.994h43.351V468.649z M277.676,468.649h-43.351V222.994h43.351V468.649z M264.295,114.935
	l-60.076-24.885L220.808,50l120.151,49.768l-16.589,40.05L264.295,114.935z M364.377,468.649h-43.351V222.994h43.351V468.649z"/>
<rect id="SVGCleanerId_1" x="234.325" y="222.996" style="fill:#77757F;" width="21.675" height="245.654"/>
<g>
	<rect id="SVGCleanerId_0_1_" x="147.623" y="222.996" style="fill:#77757F;" width="43.351" height="245.654"/>
</g>
<path style="fill:#57575C;" d="M234.325,468.649V222.994H256v-43.351H212.65h-86.702c-11.971,0-21.675,9.705-21.675,21.675v289.005
	c0,11.971,9.705,21.675,21.675,21.675h86.702H256v-43.351H234.325z M190.974,468.649h-43.351V222.994h43.351V468.649z"/>
<g>
	<rect id="SVGCleanerId_1_1_" x="234.325" y="222.996" style="fill:#77757F;" width="21.675" height="245.654"/>
</g>
<g>
	<rect id="SVGCleanerId_0_2_" x="147.623" y="222.996" style="fill:#77757F;" width="43.351" height="245.654"/>
</g>
<g>
	<path style="fill:#57575C;" d="M234.325,468.649V222.994H256v-43.351H212.65h-86.702c-11.971,0-21.675,9.705-21.675,21.675v289.005
		c0,11.971,9.705,21.675,21.675,21.675h86.702H256v-43.351H234.325z M190.974,468.649h-43.351V222.994h43.351V468.649z"/>
	<path style="fill:#57575C;" d="M204.219,90.051L220.808,50l60.039,24.869l16.56-40.063l-80.036-33.15
		c-11.057-4.581-23.739,0.67-28.32,11.731l-24.885,60.075l-60.075-24.885c-11.065-4.581-23.742,0.67-28.321,11.731
		c-4.581,11.06,0.672,23.739,11.731,28.321l80.102,33.179l80.124,33.188l16.56-40.063L204.219,90.051z"/>
</g>
<g>
</g>
<g>
</g>
<g>
</g>
<g>
</g>
<g>
</g>
<g>
</g>
<g>
</g>
<g>
</g>
<g>
</g>
<g>
</g>
<g>
</g>
<g>
</g>
<g>
</g>
<g>
</g>
<g>
</g>
</svg>
