<?xml version="1.0" encoding="iso-8859-1"?>
<!-- Generator: Adobe Illustrator 19.0.0, SVG Export Plug-In . SVG Version: 6.00 Build 0)  -->
<svg version="1.1" id="Capa_1" xmlns="http://www.w3.org/2000/svg" x="0px" y="0px"
     viewBox="0 0 511.994 511.994" style="enable-background:new 0 0 511.994 511.994;" xml:space="preserve">
<path style="fill:#235087;" d="M418.248,367.11l74.636,74.636c6.784,6.784,10.594,15.981,10.594,25.569l0,0
	c0.009,19.969-16.177,36.154-36.146,36.163c-0.009,0-0.009,0-0.017,0l0,0c-9.588,0-18.785-3.81-25.569-10.594l-74.636-74.636
	L418.248,367.11z"/>
<rect x="335.205" y="341.25" transform="matrix(-0.7071 0.7071 -0.7071 -0.7071 896.5612 371.3891)" style="fill:#EF2648;" width="72.317" height="60.257"/>
<path style="fill:#163768;" d="M405.464,384.156c10.705,0.017,21.393,0.742,31.995,2.165l-19.211-19.211l-17.157,17.157
	C402.549,384.242,403.998,384.156,405.464,384.156z"/>
<path style="fill:#B20D24;" d="M418.248,367.11l-42.615-42.615l-51.138,51.138l17.046,17.046c19.415-5.259,39.41-8.097,59.524-8.438
	L418.248,367.11z"/>
<circle style="fill:#B7E5FF;" cx="213.672" cy="213.672" r="170.459"/>
<g>
	
		<rect x="154.014" y="194.598" transform="matrix(-0.7071 0.7071 -0.7071 -0.7071 440.6371 278.9949)" style="fill:#EF2648;" width="17.046" height="72.317"/>
	
		<rect x="208.079" y="213.684" transform="matrix(-0.7071 0.7071 -0.7071 -0.7071 594.6427 198.1051)" style="fill:#EF2648;" width="96.428" height="17.046"/>
	<rect x="452.315" y="43.238" style="fill:#EF2648;" width="59.661" height="17.046"/>
	<rect x="43.238" y="179.58" style="fill:#EF2648;" width="51.138" height="17.046"/>
	
		<rect x="368.526" y="77.342" transform="matrix(-0.7071 0.7071 -0.7071 -0.7071 730.9818 -131.0524)" style="fill:#EF2648;" width="48.214" height="17.046"/>
</g>
<g>
	<path style="fill:#235087;" d="M119.945,222.22c-18.827,0-34.092-15.265-34.092-34.092s15.265-34.092,34.092-34.092
		s34.092,15.265,34.092,34.092S138.772,222.22,119.945,222.22z M119.945,171.082c-9.418,0-17.046,7.628-17.046,17.046
		c0,9.418,7.628,17.046,17.046,17.046s17.046-7.628,17.046-17.046C136.99,178.71,129.354,171.082,119.945,171.082z"/>
	<path style="fill:#235087;" d="M205.174,307.45c-18.827,0-34.092-15.265-34.092-34.092s15.265-34.092,34.092-34.092
		s34.092,15.265,34.092,34.092S224.001,307.45,205.174,307.45z M205.174,256.312c-9.418,0-17.046,7.628-17.046,17.046
		s7.628,17.046,17.046,17.046c9.418,0,17.046-7.628,17.046-17.046S214.584,256.312,205.174,256.312z"/>
	<path style="fill:#235087;" d="M426.771,85.853c-18.827,0-34.092-15.265-34.092-34.092s15.265-34.092,34.092-34.092
		c18.827,0,34.092,15.265,34.092,34.092S445.598,85.853,426.771,85.853z M426.771,34.715c-9.418,0-17.046,7.628-17.046,17.046
		s7.628,17.046,17.046,17.046c9.418,0,17.046-7.628,17.046-17.046S436.181,34.715,426.771,34.715z"/>
</g>
<path style="fill:#99C8E0;" d="M279.102,56.286c72.803,59.686,83.431,167.093,23.736,239.896
	c-47.652,58.118-127.751,78.173-197.162,49.357c72.803,59.686,180.201,49.058,239.896-23.736s49.058-180.21-23.745-239.896
	C308.916,71.321,294.52,62.687,279.102,56.286z"/>
<rect x="317.388" y="128.448" transform="matrix(-0.7071 0.7071 -0.7071 -0.7071 679.8212 -7.6502)" style="fill:#EF2648;" width="48.214" height="17.046"/>
<path style="fill:#B20D24;" d="M352.102,114.379l-19.449,19.449c2.071,6.213,3.776,12.537,5.114,18.947l23.796-23.796
	C358.656,123.959,355.502,119.084,352.102,114.379z"/>
<g>
	<path style="fill:#235087;" d="M213.697,9.146c-112.972,0-204.551,91.579-204.551,204.551s91.579,204.551,204.551,204.551
		s204.551-91.579,204.551-204.551S326.669,9.146,213.697,9.146z M213.697,384.156c-94.145,0-170.459-76.315-170.459-170.459
		S119.552,43.238,213.697,43.238s170.459,76.315,170.459,170.459S307.842,384.156,213.697,384.156z"/>
	<path style="fill:#235087;" d="M307.45,205.174c-18.827,0-34.092-15.265-34.092-34.092s15.265-34.092,34.092-34.092
		c18.827,0,34.092,15.265,34.092,34.092S326.277,205.174,307.45,205.174z M307.45,154.036c-9.418,0-17.046,7.628-17.046,17.046
		c0,9.418,7.628,17.046,17.046,17.046s17.046-7.628,17.046-17.046C324.496,161.664,316.859,154.036,307.45,154.036z"/>
</g>
<path d="M498.91,435.72l-68.61-68.61l-12.051-12.051l-25.722-25.722c64.033-98.926,35.737-231.032-63.189-295.065
	S98.305-1.465,34.272,97.461S-1.465,328.493,97.461,392.526c70.545,45.658,161.323,45.658,231.876,0l25.722,25.722L367.11,430.3
	l68.61,68.61c17.447,17.447,45.743,17.447,63.189,0C516.356,481.463,516.356,453.167,498.91,435.72z M17.669,213.697
	c0-108.267,87.761-196.028,196.028-196.028s196.028,87.761,196.028,196.028s-87.761,196.028-196.028,196.028
	C105.481,409.606,17.788,321.913,17.669,213.697z M343.451,382.537c14.66-11.284,27.802-24.427,39.086-39.086l23.66,23.66
	l-39.086,39.086L343.451,382.537z M467.315,494.955c-7.338,0.017-14.37-2.898-19.543-8.097l-68.61-68.61l39.086-39.086l68.61,68.61
	c10.79,10.799,10.79,28.296,0,39.086C481.676,492.04,474.645,494.955,467.315,494.955z"/>
<path d="M213.697,34.715c-98.849,0-178.982,80.133-178.982,178.982s80.133,178.982,178.982,178.982s178.982-80.133,178.982-178.982
	C392.569,114.89,312.504,34.826,213.697,34.715z M213.697,375.633c-89.431,0-161.936-72.505-161.936-161.936
	S124.266,51.761,213.697,51.761s161.936,72.505,161.936,161.936C375.531,303.094,303.094,375.54,213.697,375.633z"/>
<g>
</g>
<g>
</g>
<g>
</g>
<g>
</g>
<g>
</g>
<g>
</g>
<g>
</g>
<g>
</g>
<g>
</g>
<g>
</g>
<g>
</g>
<g>
</g>
<g>
</g>
<g>
</g>
<g>
</g>
</svg>
