<svg height="512pt" viewBox="-72 0 512 512" width="512pt" xmlns="http://www.w3.org/2000/svg"><path d="m352.441406 512h-337.300781c-8.359375 0-15.140625-6.78125-15.140625-15.140625v-400.605469c0-8.363281 6.78125-15.144531 15.140625-15.144531h337.300781c8.363282 0 15.144532 6.78125 15.144532 15.144531v400.605469c0 8.359375-6.78125 15.140625-15.144532 15.140625zm0 0" fill="#ad6327"/><path d="m15.140625 81.109375c-8.359375 0-15.140625 6.78125-15.140625 15.144531v400.605469c0 8.359375 6.78125 15.140625 15.140625 15.140625h168.652344v-430.890625zm0 0" fill="#d1833d"/><path d="m30.285156 111.394531h307.015625v370.320313h-307.015625zm0 0" fill="#dae8f7"/><path d="m30.285156 111.394531h153.507813v370.320313h-153.507813zm0 0" fill="#fff"/><path d="m292.480469 432.25h-108.554688c-8.363281 0-15.140625-6.78125-15.140625-15.140625 0-8.363281 6.777344-15.144531 15.140625-15.144531h108.554688c8.363281 0 15.140625 6.78125 15.140625 15.144531 0 8.359375-6.777344 15.140625-15.140625 15.140625zm0 0" fill="#4558ff"/><path d="m168.785156 417.109375c0 8.316406 6.707032 15.0625 15.007813 15.132813v-30.269532c-8.300781.074219-15.007813 6.816406-15.007813 15.136719zm0 0" fill="#647def"/><path d="m292.480469 329.28125h-108.554688c-8.363281 0-15.140625-6.777344-15.140625-15.140625s6.777344-15.144531 15.140625-15.144531h108.554688c8.363281 0 15.140625 6.78125 15.140625 15.144531s-6.777344 15.140625-15.140625 15.140625zm0 0" fill="#4558ff"/><path d="m168.785156 314.140625c0 8.316406 6.707032 15.0625 15.007813 15.132813v-30.269532c-8.300781.074219-15.007813 6.816406-15.007813 15.136719zm0 0" fill="#647def"/><path d="m292.480469 226.3125h-108.554688c-8.363281 0-15.140625-6.777344-15.140625-15.140625s6.777344-15.140625 15.140625-15.140625h108.554688c8.363281 0 15.140625 6.777344 15.140625 15.140625s-6.777344 15.140625-15.140625 15.140625zm0 0" fill="#4558ff"/><g fill="#647def"><path d="m168.785156 211.171875c0 8.316406 6.707032 15.0625 15.007813 15.136719v-30.273438c-8.300781.074219-15.007813 6.820313-15.007813 15.136719zm0 0"/><path d="m123.558594 451.429688h-48.453125c-8.363281 0-15.144531-6.777344-15.144531-15.140626v-46.4375c0-8.363281 6.78125-15.140624 15.144531-15.140624h48.453125c8.363281 0 15.144531 6.777343 15.144531 15.140624v46.4375c0 8.363282-6.78125 15.140626-15.144531 15.140626zm-33.3125-30.285157h18.171875v-16.152343h-18.171875zm0 0"/><path d="m123.558594 348.460938h-48.453125c-8.363281 0-15.144531-6.777344-15.144531-15.140626v-46.4375c0-8.363281 6.78125-15.140624 15.144531-15.140624h48.453125c8.363281 0 15.144531 6.777343 15.144531 15.140624v46.4375c0 8.363282-6.78125 15.140626-15.144531 15.140626zm-33.3125-30.28125h18.171875v-16.152344h-18.171875zm0 0"/><path d="m123.558594 245.496094h-48.453125c-8.363281 0-15.144531-6.78125-15.144531-15.144532v-46.4375c0-8.359374 6.78125-15.140624 15.144531-15.140624h48.453125c8.363281 0 15.144531 6.78125 15.144531 15.140624v46.4375c0 8.363282-6.78125 15.144532-15.144531 15.144532zm-33.3125-30.285156h18.171875v-16.152344h-18.171875zm0 0"/></g><path d="m242 59.007812h-10.605469v-11.40625c0-26.246093-21.355469-47.601562-47.601562-47.601562-26.25 0-47.605469 21.355469-47.605469 47.601562v11.40625h-10.601562c-8.351563 0-15.144532 6.792969-15.144532 15.140626v46.183593c0 8.351563 6.792969 15.144531 15.144532 15.144531h116.414062c8.347656 0 15.140625-6.792968 15.140625-15.144531v-46.183593c0-8.347657-6.792969-15.140626-15.140625-15.140626zm-75.527344-11.40625c0-9.546874 7.769532-17.316406 17.320313-17.316406 9.546875 0 17.316406 7.769532 17.316406 17.316406v3.832032h-34.636719zm0 0" fill="#576993"/><path d="m166.472656 51.433594v-3.832032c0-9.546874 7.769532-17.316406 17.320313-17.316406v-30.285156c-26.25 0-47.605469 21.355469-47.605469 47.601562v11.40625h-10.601562c-8.351563 0-15.144532 6.792969-15.144532 15.140626v46.183593c0 8.351563 6.792969 15.144531 15.144532 15.144531h58.207031v-84.042968zm0 0" fill="#7987a9"/></svg>