<svg xmlns="http://www.w3.org/2000/svg" height="512pt" version="1.1" viewBox="-72 0 512 512" width="512pt">
<g id="surface1">
<path d="M 352.441406 81.109375 L 287.425781 81.109375 L 287.425781 120.335938 C 287.425781 145.382812 267.046875 165.761719 242 165.761719 L 125.585938 165.761719 C 100.535156 165.761719 80.160156 145.382812 80.160156 120.335938 L 80.160156 81.109375 L 15.140625 81.109375 C 6.78125 81.109375 0 87.890625 0 96.253906 L 0 496.859375 C 0 505.21875 6.78125 512 15.140625 512 L 352.441406 512 C 360.804688 512 367.585938 505.21875 367.585938 496.859375 L 367.585938 96.253906 C 367.585938 87.890625 360.804688 81.109375 352.441406 81.109375 Z M 138.703125 461.527344 C 138.703125 469.886719 131.921875 476.667969 123.558594 476.667969 L 75.105469 476.667969 C 66.742188 476.667969 59.960938 469.886719 59.960938 461.527344 L 59.960938 415.089844 C 59.960938 406.726562 66.742188 399.945312 75.105469 399.945312 L 123.558594 399.945312 C 131.921875 399.945312 138.703125 406.726562 138.703125 415.089844 Z M 138.703125 358.558594 C 138.703125 366.921875 131.921875 373.699219 123.558594 373.699219 L 75.105469 373.699219 C 66.742188 373.699219 59.960938 366.921875 59.960938 358.558594 L 59.960938 312.121094 C 59.960938 303.757812 66.742188 296.980469 75.105469 296.980469 L 123.558594 296.980469 C 131.921875 296.980469 138.703125 303.757812 138.703125 312.121094 Z M 138.703125 255.589844 C 138.703125 263.953125 131.921875 270.730469 123.558594 270.730469 L 75.105469 270.730469 C 66.742188 270.730469 59.960938 263.953125 59.960938 255.589844 L 59.960938 209.152344 C 59.960938 200.789062 66.742188 194.011719 75.105469 194.011719 L 123.558594 194.011719 C 131.921875 194.011719 138.703125 200.789062 138.703125 209.152344 Z M 292.480469 457.488281 L 183.925781 457.488281 C 175.5625 457.488281 168.785156 450.707031 168.785156 442.34375 C 168.785156 433.984375 175.5625 427.203125 183.925781 427.203125 L 292.480469 427.203125 C 300.84375 427.203125 307.621094 433.984375 307.621094 442.34375 C 307.621094 450.707031 300.84375 457.488281 292.480469 457.488281 Z M 292.480469 354.519531 L 183.925781 354.519531 C 175.5625 354.519531 168.785156 347.738281 168.785156 339.378906 C 168.785156 331.015625 175.5625 324.234375 183.925781 324.234375 L 292.480469 324.234375 C 300.84375 324.234375 307.621094 331.015625 307.621094 339.378906 C 307.621094 347.738281 300.84375 354.519531 292.480469 354.519531 Z M 292.480469 251.550781 L 183.925781 251.550781 C 175.5625 251.550781 168.785156 244.773438 168.785156 236.410156 C 168.785156 228.046875 175.5625 221.265625 183.925781 221.265625 L 292.480469 221.265625 C 300.84375 221.265625 307.621094 228.046875 307.621094 236.410156 C 307.621094 244.773438 300.84375 251.550781 292.480469 251.550781 Z M 292.480469 251.550781 " style=" stroke:none;fill-rule:nonzero;fill:rgb(0%,0%,0%);fill-opacity:1;" />
<path d="M 90.246094 430.230469 L 108.417969 430.230469 L 108.417969 446.382812 L 90.246094 446.382812 Z M 90.246094 430.230469 " style=" stroke:none;fill-rule:nonzero;fill:rgb(0%,0%,0%);fill-opacity:1;" />
<path d="M 90.246094 327.261719 L 108.417969 327.261719 L 108.417969 343.414062 L 90.246094 343.414062 Z M 90.246094 327.261719 " style=" stroke:none;fill-rule:nonzero;fill:rgb(0%,0%,0%);fill-opacity:1;" />
<path d="M 90.246094 224.296875 L 108.417969 224.296875 L 108.417969 240.449219 L 90.246094 240.449219 Z M 90.246094 224.296875 " style=" stroke:none;fill-rule:nonzero;fill:rgb(0%,0%,0%);fill-opacity:1;" />
<path d="M 242 59.007812 L 231.394531 59.007812 L 231.394531 47.601562 C 231.394531 21.355469 210.039062 0 183.792969 0 C 157.546875 0 136.191406 21.355469 136.191406 47.601562 L 136.191406 59.007812 L 125.585938 59.007812 C 117.234375 59.007812 110.441406 65.800781 110.441406 74.148438 L 110.441406 120.335938 C 110.441406 128.683594 117.234375 135.476562 125.585938 135.476562 L 242 135.476562 C 250.347656 135.476562 257.140625 128.683594 257.140625 120.335938 L 257.140625 74.148438 C 257.140625 65.800781 250.347656 59.007812 242 59.007812 Z M 166.472656 47.601562 C 166.472656 38.054688 174.242188 30.285156 183.792969 30.285156 C 193.339844 30.285156 201.109375 38.054688 201.109375 47.601562 L 201.109375 51.433594 L 166.472656 51.433594 Z M 166.472656 47.601562 " style=" stroke:none;fill-rule:nonzero;fill:rgb(0%,0%,0%);fill-opacity:1;" />
</g>
</svg>