<?xml version="1.0" encoding="iso-8859-1"?>
<!-- Generator: Adobe Illustrator 19.0.0, SVG Export Plug-In . SVG Version: 6.00 Build 0)  -->
<svg version="1.1" id="Layer_1" xmlns="http://www.w3.org/2000/svg" x="0px" y="0px"
     viewBox="0 0 511.998 511.998" style="enable-background:new 0 0 511.998 511.998;" xml:space="preserve">
<g>
	<g>
		<path d="M255.48,138.895c-64.674,0-117.105,52.43-117.105,117.105s52.43,117.105,117.105,117.105s117.105-52.43,117.105-117.105
			S320.156,138.895,255.48,138.895z M255.48,326.262c-38.743,0-70.263-31.52-70.263-70.263c0-30.533,19.581-56.566,46.842-66.234
			v89.655h70.263v-46.842h-23.421v-42.813c27.26,9.668,46.842,35.701,46.842,66.234C325.743,294.742,294.223,326.262,255.48,326.262
			z"/>
	</g>
</g>
<g>
	<g>
		<path d="M478.936,185.713c-12.891-40.955-36.971-77.923-69.824-106.498c-42.579-37.032-97.141-57.427-153.633-57.427
			c-72.564,0-139.846,32.821-184.596,90.046l36.9,28.853c35.809-45.794,89.643-72.058,147.695-72.058
			c45.195,0,88.839,16.31,122.893,45.928c25.988,22.603,45.104,51.751,55.501,84.039l-33.782,9.66l83.955,81.92l27.954-113.921
			L478.936,185.713z"/>
	</g>
</g>
<g>
	<g>
		<path d="M405.302,368.534c-35.782,47.557-90.392,74.833-149.822,74.833c-45.195,0-88.839-16.312-122.894-45.928
			c-26.681-23.204-46.12-53.311-56.315-86.631l35.639-10.19l-83.955-81.92L0,332.617l31.233-8.931
			c12.68,41.991,37.066,79.922,70.612,109.098c42.579,37.032,97.141,57.427,153.633,57.427c37.428,0,73.201-8.572,106.329-25.477
			c31.576-16.114,59.559-39.641,80.925-68.036L405.302,368.534z"/>
	</g>
</g>
<g>
</g>
<g>
</g>
<g>
</g>
<g>
</g>
<g>
</g>
<g>
</g>
<g>
</g>
<g>
</g>
<g>
</g>
<g>
</g>
<g>
</g>
<g>
</g>
<g>
</g>
<g>
</g>
<g>
</g>
</svg>
