<?xml version="1.0" encoding="UTF-8"?>
<svg width="512px" height="512px" viewBox="0 0 512 512" xmlns="http://www.w3.org/2000/svg" version="1.1">
 <!-- Generated by Pixelmator Pro 2.0.8 -->
 <g id="Page-1">
  <g id="turn">
   <path id="Path" d="M502 256 C502 391.863 391.863 502 256 502 120.137 502 10 391.863 10 256 10 120.137 120.137 10 256 10 391.863 10 502 120.137 502 256 Z" fill="#f9f9f9" fill-opacity="1" stroke="none"/>
   <path id="Path-1" d="M256 462 C142.41 462 50 369.59 50 256 50 142.41 142.41 50 256 50 369.59 50 462 142.41 462 256 462 369.59 369.59 462 256 462 Z" fill="#cc7867" fill-opacity="1" stroke="none"/>
   <path id="Path-2" d="M407.5 202.668 L334.672 145.867 334.672 173.617 327.223 173.617 C299.277 173.617 274.035 185.176 256 203.766 237.969 185.176 212.727 173.617 184.781 173.617 L176.734 173.617 176.734 145.867 103.906 202.676 176.734 259.477 176.734 229.617 184.781 229.617 C208.648 229.617 228 248.969 228 272.84 L228 407.523 284 407.523 284 272.84 C284 248.969 303.352 229.617 327.223 229.617 L334.672 229.617 334.672 259.477 Z" fill="#f9f9f9" fill-opacity="1" stroke="none"/>
   <path id="Shape" d="M437.02 74.98 C388.668 26.629 324.379 0 256 0 187.621 0 123.332 26.629 74.98 74.98 26.629 123.332 0 187.621 0 256 0 324.379 26.629 388.668 74.98 437.02 123.332 485.371 187.621 512 256 512 324.379 512 388.668 485.371 437.02 437.02 485.371 388.668 512 324.379 512 256 512 187.621 485.371 123.332 437.02 74.98 Z M422.879 422.879 C378.305 467.453 319.039 492 256 492 192.961 492 133.695 467.453 89.121 422.879 44.547 378.305 20 319.039 20 256 20 192.961 44.547 133.695 89.121 89.121 133.695 44.547 192.961 20 256 20 319.039 20 378.305 44.547 422.879 89.121 467.453 133.695 492 192.961 492 256 492 319.039 467.453 378.305 422.879 422.879 Z" fill="#000000" fill-opacity="1" stroke="none"/>
   <path id="Path-3" d="M330.281 136.883 C326.848 138.559 324.672 142.047 324.672 145.867 L324.672 163.648 C299.137 164.227 275.156 173.48 256 190.027 236.691 173.352 212.492 164.082 186.734 163.637 L186.734 145.867 C186.734 142.047 184.559 138.559 181.121 136.883 177.688 135.203 173.598 135.633 170.586 137.984 L97.754 194.793 C95.324 196.688 93.902 199.598 93.902 202.68 93.902 205.758 95.324 208.668 97.754 210.563 L170.586 267.363 C173.598 269.715 177.688 270.141 181.121 268.465 184.555 266.785 186.734 263.301 186.734 259.477 L186.734 239.676 C204.117 240.691 217.969 255.152 217.996 272.781 218.008 278.301 238.008 278.273 237.996 272.75 237.949 243.453 214.074 219.617 184.777 219.617 L176.734 219.617 C171.211 219.617 166.734 224.094 166.734 229.617 L166.734 238.996 120.164 202.676 166.734 166.348 166.734 173.617 C166.734 179.141 171.211 183.617 176.734 183.617 L184.777 183.617 C209.117 183.617 231.863 193.246 248.82 210.727 250.703 212.668 253.293 213.766 256 213.766 258.703 213.766 261.293 212.668 263.176 210.727 280.137 193.246 302.879 183.617 327.219 183.617 L334.668 183.617 C340.191 183.617 344.668 179.141 344.668 173.617 L344.668 166.348 391.238 202.664 344.668 238.992 344.668 229.617 C344.668 224.094 340.191 219.617 334.668 219.617 L327.219 219.617 C297.875 219.617 274 243.492 274 272.84 L274 397.523 238 397.523 238 274 C238 268.477 218 267.477 218 273 L218 407.523 C218 413.047 222.477 417.523 228 417.523 L284 417.523 C289.523 417.523 294 413.047 294 407.523 L294 272.84 C294 255.379 307.539 241.023 324.668 239.715 L324.668 259.477 C324.668 263.301 326.848 266.785 330.281 268.465 333.715 270.141 337.805 269.711 340.82 267.359 L413.648 210.551 C416.078 208.656 417.5 205.746 417.5 202.664 417.5 199.586 416.078 196.676 413.648 194.781 L340.82 137.98 C337.809 135.633 333.719 135.203 330.281 136.883 Z" fill="#000000" fill-opacity="1" stroke="none"/>
  </g>
 </g>
</svg>
