<?xml version="1.0" encoding="UTF-8"?>
<svg width="512px" height="512px" viewBox="0 0 512 512" version="1.1" xmlns="http://www.w3.org/2000/svg" xmlns:xlink="http://www.w3.org/1999/xlink">
    <!-- Generator: Sketch 54.1 (76490) - https://sketchapp.com -->
    <title>Untitled 2</title>
    <desc>Created with Sketch.</desc>
    <g id="Page-1" stroke="none" stroke-width="1" fill="none" fill-rule="evenodd">
        <g id="turn" fill-rule="nonzero">
            <path d="M502,256 C502,391.863281 391.863281,502 256,502 C120.136719,502 10,391.863281 10,256 C10,120.136719 120.136719,10 256,10 C391.863281,10 502,120.136719 502,256 Z" id="Path" fill="#F9F9F9"></path>
            <path d="M256,462 C142.410156,462 50,369.589844 50,256 C50,142.410156 142.410156,50 256,50 C369.589844,50 462,142.410156 462,256 C462,369.589844 369.589844,462 256,462 Z" id="Path" fill="#CC7867"></path>
            <path d="M407.5,202.667969 L334.671875,145.867188 L334.671875,173.617188 L327.222656,173.617188 C299.277344,173.617188 274.035156,185.175781 256,203.765625 C237.96875,185.175781 212.726562,173.617188 184.78125,173.617188 L176.734375,173.617188 L176.734375,145.867188 L103.90625,202.675781 L176.734375,259.476562 L176.734375,229.617188 L184.78125,229.617188 C208.648438,229.617188 228,248.96875 228,272.839844 L228,407.523438 L284,407.523438 L284,272.839844 C284,248.96875 303.351562,229.617188 327.222656,229.617188 L334.671875,229.617188 L334.671875,259.476562 L407.5,202.667969 Z" id="Path" fill="#F9F9F9"></path>
            <path d="M437.019531,74.980469 C388.667969,26.628906 324.378906,0 256,0 C187.621094,0 123.332031,26.628906 74.980469,74.980469 C26.628906,123.332031 -2.84217094e-14,187.621094 -2.84217094e-14,256 C-2.84217094e-14,324.378906 26.628906,388.667969 74.980469,437.019531 C123.332031,485.371094 187.621094,512 256,512 C324.378906,512 388.667969,485.371094 437.019531,437.019531 C485.371094,388.667969 512,324.378906 512,256 C512,187.621094 485.371094,123.332031 437.019531,74.980469 Z M422.878906,422.878906 C378.304688,467.453125 319.039062,492 256,492 C192.960938,492 133.695312,467.453125 89.121094,422.878906 C44.546875,378.304688 20,319.039062 20,256 C20,192.960938 44.546875,133.695312 89.121094,89.121094 C133.695312,44.546875 192.960938,20 256,20 C319.039062,20 378.304688,44.546875 422.878906,89.121094 C467.453125,133.695312 492,192.960938 492,256 C492,319.039062 467.453125,378.304688 422.878906,422.878906 Z" id="Shape" fill="#000000"></path>
            <path d="M435.796875,136.425781 C432.730469,131.832031 426.523438,130.59375 421.929688,133.65625 C417.335938,136.722656 416.09375,142.933594 419.160156,147.527344 C440.644531,179.730469 452,217.238281 452,256 C452,364.074219 364.074219,452 256,452 C147.925781,452 60,364.074219 60,256 C60,147.925781 147.925781,60 256,60 C291.957031,60 327.140625,69.867188 357.75,88.539062 C362.464844,91.414062 368.617188,89.925781 371.492188,85.210938 C374.371094,80.492188 372.878906,74.339844 368.164062,71.464844 C334.417969,50.878906 295.632812,40 256,40 C136.898438,40 40,136.898438 40,256 C40,375.101562 136.898438,472 256,472 C375.101562,472 472,375.101562 472,256 C472,213.277344 459.480469,171.929688 435.796875,136.425781 Z" id="Path" fill="#000000"></path>
            <path d="M330.28125,136.882812 C326.847656,138.558594 324.671875,142.046875 324.671875,145.867188 L324.671875,163.648438 C299.136719,164.226562 275.15625,173.480469 256,190.027344 C236.691406,173.351562 212.492188,164.082031 186.734375,163.636719 L186.734375,145.867188 C186.734375,142.046875 184.558594,138.558594 181.121094,136.882812 C177.6875,135.203125 173.597656,135.632812 170.585938,137.984375 L97.753906,194.792969 C95.324219,196.6875 93.902344,199.597656 93.902344,202.679688 C93.902344,205.757812 95.324219,208.667969 97.753906,210.5625 L170.585938,267.363281 C173.597656,269.714844 177.6875,270.140625 181.121094,268.464844 C184.554688,266.785156 186.734375,263.300781 186.734375,259.476562 L186.734375,239.675781 C204.117188,240.691406 217.96875,255.152344 217.996094,272.78125 C218.007812,278.300781 222.480469,282.765625 227.996094,282.765625 L228.015625,282.765625 C233.535156,282.757812 238.007812,278.273438 237.996094,272.75 C237.949219,243.453125 214.074219,219.617188 184.777344,219.617188 L176.734375,219.617188 C171.210938,219.617188 166.734375,224.09375 166.734375,229.617188 L166.734375,238.996094 L120.164062,202.675781 L166.734375,166.347656 L166.734375,173.617188 C166.734375,179.140625 171.210938,183.617188 176.734375,183.617188 L184.777344,183.617188 C209.117188,183.617188 231.863281,193.246094 248.820312,210.726562 C250.703125,212.667969 253.292969,213.765625 256,213.765625 C258.703125,213.765625 261.292969,212.667969 263.175781,210.726562 C280.136719,193.246094 302.878906,183.617188 327.21875,183.617188 L334.667969,183.617188 C340.191406,183.617188 344.667969,179.140625 344.667969,173.617188 L344.667969,166.347656 L391.238281,202.664062 L344.667969,238.992188 L344.667969,229.617188 C344.667969,224.09375 340.191406,219.617188 334.667969,219.617188 L327.21875,219.617188 C297.875,219.617188 274,243.492188 274,272.839844 L274,397.523438 L238,397.523438 L238,362.765625 C238,357.242188 233.523438,352.765625 228,352.765625 C222.476562,352.765625 218,357.242188 218,362.765625 L218,407.523438 C218,413.046875 222.476562,417.523438 228,417.523438 L284,417.523438 C289.523438,417.523438 294,413.046875 294,407.523438 L294,272.839844 C294,255.378906 307.539062,241.023438 324.667969,239.714844 L324.667969,259.476562 C324.667969,263.300781 326.847656,266.785156 330.28125,268.464844 C333.714844,270.140625 337.804688,269.710938 340.820312,267.359375 L413.648438,210.550781 C416.078125,208.65625 417.5,205.746094 417.5,202.664062 C417.5,199.585938 416.078125,196.675781 413.648438,194.78125 L340.820312,137.980469 C337.808594,135.632812 333.71875,135.203125 330.28125,136.882812 L330.28125,136.882812 Z" id="Path" fill="#000000"></path>
            <path d="M219.691406,322.378906 C221.972656,325.867188 226.40625,327.535156 230.425781,326.519531 C234.492188,325.492188 237.519531,321.976562 237.949219,317.808594 C238.359375,313.835938 236.226562,309.890625 232.710938,308.019531 C228.863281,305.972656 224.015625,306.675781 220.929688,309.761719 C217.597656,313.089844 217.082031,318.464844 219.691406,322.378906 Z" id="Path" fill="#000000"></path>
            <path d="M389.390625,111.320312 C391,115.183594 394.929688,117.675781 399.109375,117.476562 C403.234375,117.28125 406.859375,114.464844 408.132812,110.546875 C409.417969,106.59375 408.019531,102.078125 404.707031,99.558594 C401.328125,96.988281 396.609375,96.839844 393.070312,99.179688 C389.128906,101.785156 387.605469,106.972656 389.390625,111.320312 L389.390625,111.320312 Z" id="Path" fill="#000000"></path>
        </g>
    </g>
</svg>