<?xml version="1.0" encoding="UTF-8"?>
<svg width="512px" height="433px" viewBox="0 0 512 433" version="1.1" xmlns="http://www.w3.org/2000/svg">
    <!-- Generator: Sketch 54.1 (76490) - https://sketchapp.com -->
    <title>Untitled 3</title>
    <desc>Created with Sketch.</desc>
    <g id="Page-1" stroke="none" stroke-width="1" fill="none" fill-rule="evenodd">
        <g id="exchange-(1)" fill-rule="nonzero">
            <path d="M211.862,432.121 L17.655,432.121 C7.901,432.121 0,421.724811 0,408.890433 L0,153.351567 C0,140.517189 7.901,130.121 17.655,130.121 L211.862,130.121 C221.616,130.121 229.517,140.517189 229.517,153.351567 L229.517,408.890433 C229.517,421.724811 221.617,432.121 211.862,432.121" id="Path" fill="#42B05C"></path>
            <g id="Group" transform="translate(26.000000, 165.000000)" fill="#FFFFFF">
                <path d="M97.586,18.086 L9.31,18.086 C4.437,18.086 0.482,14.131 0.482,9.258 C0.482,4.385 4.437,0.43 9.31,0.43 L97.586,0.43 C102.459,0.43 106.414,4.385 106.414,9.258 C106.414,14.131 102.459,18.086 97.586,18.086" id="Path"></path>
                <path d="M132.897,53.397 L35.793,53.397 C30.92,53.397 26.965,49.442 26.965,44.569 C26.965,39.696 30.92,35.741 35.793,35.741 L132.896,35.741 C137.769,35.741 141.724,39.696 141.724,44.569 C141.724,49.442 137.769,53.397 132.897,53.397" id="Path"></path>
                <path d="M97.586,88.707 L9.31,88.707 C4.437,88.707 0.482,84.752 0.482,79.879 C0.482,75.006 4.437,71.051 9.31,71.051 L97.586,71.051 C102.459,71.051 106.414,75.006 106.414,79.879 C106.414,84.752 102.459,88.707 97.586,88.707" id="Path"></path>
                <path d="M44.621,124.017 L9.31,124.017 C4.437,124.017 0.482,120.062 0.482,115.189 C0.482,110.316 4.437,106.361 9.31,106.361 L44.62,106.361 C49.493,106.361 53.448,110.316 53.448,115.189 C53.448,120.062 49.494,124.017 44.621,124.017" id="Path"></path>
                <path d="M97.586,159.328 L26.966,159.328 C22.093,159.328 18.138,155.373 18.138,150.5 C18.138,145.627 22.093,141.672 26.966,141.672 L97.587,141.672 C102.46,141.672 106.415,145.627 106.415,150.5 C106.414,155.373 102.459,159.328 97.586,159.328" id="Path"></path>
            </g>
            <path d="M494.345,432.121 L300.138,432.121 C290.384,432.121 282.483,421.724811 282.483,408.890433 L282.483,153.351567 C282.483,140.517189 290.384,130.121 300.138,130.121 L494.345,130.121 C504.099,130.121 512,140.517189 512,153.351567 L512,408.890433 C512,421.724811 504.099,432.121 494.345,432.121" id="Path" fill="#ED7161"></path>
            <g id="Group" transform="translate(308.000000, 165.000000)" fill="#FFFFFF">
                <path d="M98.069,18.086 L9.793,18.086 C4.92,18.086 0.965,14.131 0.965,9.258 C0.965,4.385 4.92,0.43 9.793,0.43 L98.069,0.43 C102.942,0.43 106.897,4.385 106.897,9.258 C106.897,14.131 102.942,18.086 98.069,18.086" id="Path"></path>
                <path d="M133.379,53.397 L36.276,53.397 C31.403,53.397 27.448,49.442 27.448,44.569 C27.448,39.696 31.403,35.741 36.276,35.741 L133.379,35.741 C138.252,35.741 142.207,39.696 142.207,44.569 C142.207,49.442 138.252,53.397 133.379,53.397" id="Path"></path>
                <path d="M98.069,88.707 L9.793,88.707 C4.92,88.707 0.965,84.752 0.965,79.879 C0.965,75.006 4.92,71.051 9.793,71.051 L98.069,71.051 C102.942,71.051 106.897,75.006 106.897,79.879 C106.897,84.752 102.942,88.707 98.069,88.707" id="Path"></path>
                <path d="M45.103,124.017 L9.793,124.017 C4.92,124.017 0.965,120.062 0.965,115.189 C0.965,110.316 4.92,106.361 9.793,106.361 L45.103,106.361 C49.976,106.361 53.931,110.316 53.931,115.189 C53.931,120.062 49.976,124.017 45.103,124.017" id="Path"></path>
                <path d="M98.069,159.328 L27.448,159.328 C22.575,159.328 18.62,155.373 18.62,150.5 C18.62,145.627 22.575,141.672 27.448,141.672 L98.069,141.672 C102.942,141.672 106.897,145.627 106.897,150.5 C106.897,155.373 102.942,159.328 98.069,159.328" id="Path"></path>
            </g>
            <g id="Group" transform="translate(105.000000, 0.000000)" fill="#48A0DC">
                <path d="M233.056,96.992 C229.366,96.992 225.923,94.653 224.687,90.963 C223.133,86.337 225.632,81.341 230.248,79.787 L281.06,62.767 L264.04,11.947 C262.486,7.321 264.985,2.316 269.601,0.771 C274.235,-0.791 279.232,1.716 280.777,6.332 L300.613,65.521 C302.158,70.147 299.668,75.152 295.043,76.697 L235.863,96.533 C234.927,96.842 233.983,96.992 233.056,96.992" id="Path"></path>
                <path d="M292.233,77.155 C290.927,77.155 289.602,76.864 288.349,76.246 C238.64,51.811 198.845,41.845 151,41.845 C103.155,41.845 63.36,51.811 13.652,76.246 C9.265,78.4 3.986,76.599 1.841,72.221 C-0.313,67.843 1.488,62.555 5.866,60.41 C58.187,34.677 100.233,24.19 151,24.19 C201.759,24.19 243.813,34.677 296.134,60.41 C300.512,62.555 302.313,67.843 300.159,72.221 C298.633,75.346 295.499,77.155 292.233,77.155" id="Path"></path>
            </g>
        </g>
    </g>
</svg>