<?xml version="1.0" encoding="UTF-8"?>
<svg width="512px" height="512px" viewBox="0 0 512 512" version="1.1" xmlns="http://www.w3.org/2000/svg">
    <!-- Generator: Sketch 54.1 (76490) - https://sketchapp.com -->
    <title>not-found</title>
    <desc>Created with Sketch.</desc>
    <g id="Page-1" stroke="none" stroke-width="1" fill="none" fill-rule="evenodd">
        <g id="not-found">
            <path d="M491.363281,439.761719 L381.054688,329.457031 C436.097656,250.09375 428.269531,140.320312 357.5625,69.613281 C278.046875,-9.90625 149.125,-9.90625 69.609375,69.613281 C-9.90625,149.128906 -9.90625,278.046875 69.609375,357.566406 C140.320312,428.273438 250.089844,436.101562 329.453125,381.054688 L439.757812,491.363281 C453.949219,505.550781 477.171875,505.550781 491.359375,491.363281 C505.550781,477.171875 505.550781,453.949219 491.363281,439.761719 Z" id="Path" fill="#FFDDA0" fill-rule="nonzero"></path>
            <path d="M317.09375,110.082031 C259.925781,52.914062 167.242188,52.914062 110.078125,110.082031 C52.910156,167.246094 52.910156,259.929688 110.078125,317.097656 C167.242188,374.261719 259.925781,374.261719 317.09375,317.097656 C374.257812,259.929688 374.257812,167.246094 317.09375,110.082031 Z" id="Path" fill="#FFFB8E" fill-rule="nonzero"></path>
            <path d="M248.953125,61.273438 C243.585938,60.035156 238.230469,63.375 236.988281,68.742188 C235.746094,74.109375 239.09375,79.46875 244.460938,80.710938 C269.273438,86.445312 291.953125,99.042969 310.042969,117.132812 C363.226562,170.316406 363.226562,256.859375 310.042969,310.042969 C256.859375,363.230469 170.316406,363.230469 117.132812,310.042969 C63.945312,256.859375 63.945312,170.316406 117.132812,117.132812 C132.402344,101.863281 150.472656,90.726562 170.84375,84.023438 C176.074219,82.304688 178.921875,76.667969 177.203125,71.433594 C175.480469,66.199219 169.839844,63.351562 164.609375,65.074219 C141.242188,72.757812 120.523438,85.527344 103.027344,103.027344 C42.0625,163.992188 42.0625,263.1875 103.027344,324.152344 C133.507812,354.632812 173.546875,369.875 213.589844,369.875 C253.628906,369.871094 293.667969,354.632812 324.152344,324.152344 C385.113281,263.1875 385.113281,163.992188 324.152344,103.027344 C303.414062,82.292969 277.414062,67.851562 248.953125,61.273438 Z" id="Path" fill="#000000" fill-rule="nonzero"></path>
            <path d="M498.414062,432.707031 L393.882812,328.175781 C447.484375,244.121094 435.746094,133.691406 364.617188,62.558594 C324.277344,22.21875 270.640625,-2.84217094e-14 213.589844,-2.84217094e-14 C156.535156,-2.84217094e-14 102.898438,22.21875 62.558594,62.558594 C22.214844,102.898438 0,156.535156 0,213.589844 C0,270.640625 22.214844,324.277344 62.558594,364.617188 C102.898438,404.957031 156.53125,427.171875 213.582031,427.171875 C254.527344,427.171875 293.96875,415.6875 328.175781,393.882812 L432.707031,498.414062 C441.453125,507.164062 453.121094,511.980469 465.5625,511.980469 C478,511.980469 489.667969,507.164062 498.417969,498.414062 C516.527344,480.296875 516.527344,450.824219 498.414062,432.707031 L498.414062,432.707031 Z M484.308594,484.308594 C479.328125,489.285156 472.671875,492.027344 465.5625,492.027344 C458.449219,492.027344 451.792969,489.285156 446.8125,484.308594 L336.507812,374.003906 C334.578125,372.070312 332.023438,371.082031 329.453125,371.082031 C327.476562,371.082031 325.492188,371.664062 323.769531,372.859375 C291.359375,395.339844 253.253906,407.222656 213.582031,407.222656 C161.859375,407.222656 113.234375,387.082031 76.664062,350.511719 C1.164062,275.011719 1.164062,152.164062 76.664062,76.664062 C113.238281,40.089844 161.863281,19.949219 213.589844,19.949219 C265.3125,19.949219 313.9375,40.089844 350.511719,76.664062 C416.792969,142.949219 426.195312,246.871094 372.859375,323.769531 C370.109375,327.734375 370.589844,333.09375 374.003906,336.507812 L484.308594,446.8125 C494.644531,457.148438 494.644531,473.96875 484.308594,484.308594 L484.308594,484.308594 Z" id="Shape" fill="#000000" fill-rule="nonzero"></path>
            <path d="M206.976562,77.328125 C212.46875,77.328125 216.949219,72.847656 216.949219,67.351562 C216.949219,61.859375 212.46875,57.378906 206.976562,57.378906 C201.480469,57.378906 197,61.859375 197,67.351562 C197,72.847656 201.480469,77.328125 206.976562,77.328125 Z" id="Path" fill="#000000" fill-rule="nonzero"></path>
            <text id="?" stroke="#C4C4C4" font-family="PTMono-Bold, PT Mono" font-size="240" font-weight="bold" fill="#444444">
                <tspan x="146" y="296">?</tspan>
            </text>
        </g>
    </g>
</svg>