<?xml version="1.0" encoding="iso-8859-1"?>
<!-- Generator: Adobe Illustrator 17.1.0, SVG Export Plug-In . SVG Version: 6.00 Build 0)  -->
<!DOCTYPE svg PUBLIC "-//W3C//DTD SVG 1.1//EN" "http://www.w3.org/Graphics/SVG/1.1/DTD/svg11.dtd">
<svg version="1.1" id="Capa_1" xmlns="http://www.w3.org/2000/svg" x="0px" y="0px"
     viewBox="0 0 382.686 382.686" style="enable-background:new 0 0 382.686 382.686;" xml:space="preserve">
<g>
	<path d="M329.196,197.015c0.126-2.406,0.197-4.797,0.197-7.148c0-75.883-61.735-137.618-137.618-137.618
		c-41.67,0-80.646,18.604-106.934,51.04l-4.5,5.553l74.438,25.588l2.016-1.248c10.498-6.499,22.594-9.934,34.979-9.934
		c36.733,0,66.618,29.885,66.618,66.618c0,2.356-0.147,4.748-0.409,7.148h-46.082l85.393,133.421l85.392-133.421H329.196z"/>
	<path d="M81.046,160.685C36.357,160.685,0,197.042,0,241.73s36.357,81.046,81.046,81.046s81.046-36.357,81.046-81.046
		S125.734,160.685,81.046,160.685z"/>
</g>
<g>
</g>
<g>
</g>
<g>
</g>
<g>
</g>
<g>
</g>
<g>
</g>
<g>
</g>
<g>
</g>
<g>
</g>
<g>
</g>
<g>
</g>
<g>
</g>
<g>
</g>
<g>
</g>
<g>
</g>
</svg>
