<svg height="512pt" viewBox="-21 0 512 512" width="512pt" xmlns="http://www.w3.org/2000/svg"><path d="m352 384v64l-53.332031 53.332031h-277.335938c-5.886719 0-10.664062-4.777343-10.664062-10.664062v-469.335938c0-5.886719 4.777343-10.664062 10.664062-10.664062h320c5.890625 0 10.667969 4.777343 10.667969 10.664062v85.335938" fill="#7ecffb"/><path d="m352 416h-85.332031v85.332031h32l53.332031-53.332031zm0 0" fill="#bae4fb"/><path d="m362.667969 106.667969v-85.335938c0-11.765625-9.570313-21.332031-21.335938-21.332031h-320c-11.765625 0-21.332031 9.566406-21.332031 21.332031v469.335938c0 11.765625 9.566406 21.332031 21.332031 21.332031h277.335938c2.824219 0 5.546875-1.121094 7.539062-3.125l53.335938-53.332031c2.003906-1.996094 3.125-4.714844 3.125-7.542969v-64h-21.335938v21.332031h-74.664062c-5.890625 0-10.667969 4.78125-10.667969 10.667969v74.667969h-234.667969v-469.335938h320v85.335938zm-85.335938 320h64v16.917969l-47.082031 47.082031h-16.917969zm0 0"/><path d="m74.667969 96h213.332031v128h-213.332031zm0 0" fill="#bae4fb"/><path d="m213.332031 234.667969h-138.664062c-5.890625 0-10.667969-4.78125-10.667969-10.667969v-128c0-5.886719 4.777344-10.667969 10.667969-10.667969h213.332031c5.886719 0 10.667969 4.78125 10.667969 10.667969v32h-21.335938v-21.332031h-192v106.664062h128zm0 0"/><path d="m64 277.332031h106.667969v21.335938h-106.667969zm0 0"/><path d="m192 277.332031h21.332031v21.335938h-21.332031zm0 0"/><path d="m64 341.332031h64v21.335938h-64zm0 0"/><path d="m149.332031 341.332031h106.667969v21.335938h-106.667969zm0 0"/><path d="m64 405.332031h106.667969v21.335938h-106.667969zm0 0"/><path d="m192 405.332031h42.667969v21.335938h-42.667969zm0 0"/><path d="m458.667969 245.332031c0 58.910157-47.757813 106.667969-106.667969 106.667969s-106.667969-47.757812-106.667969-106.667969c0-58.910156 47.757813-106.664062 106.667969-106.664062s106.667969 47.753906 106.667969 106.664062zm0 0" fill="#fdd55b"/><path d="m352 362.667969c-64.691406 0-117.332031-52.640625-117.332031-117.335938 0-64.691406 52.640625-117.332031 117.332031-117.332031s117.332031 52.640625 117.332031 117.332031c0 64.695313-52.640625 117.335938-117.332031 117.335938zm0-213.335938c-52.929688 0-96 43.074219-96 96 0 52.929688 43.070312 96 96 96s96-43.070312 96-96c0-52.925781-43.070312-96-96-96zm0 0"/><path d="m352 266.667969h-53.332031v-21.335938h42.664062v-53.332031h21.335938v64c0 5.886719-4.78125 10.667969-10.667969 10.667969zm0 0"/></svg>