<?xml version="1.0" encoding="UTF-8"?>
<svg width="470px" height="512px" viewBox="0 0 470 512" version="1.1" xmlns="http://www.w3.org/2000/svg">
    <!-- Generator: Sketch 54.1 (76490) - https://sketchapp.com -->
    <title>outstanding_edits</title>
    <desc>Created with Sketch.</desc>
    <g id="Page-1" stroke="none" stroke-width="1" fill="none" fill-rule="evenodd">
        <g id="outstanding_edits">
            <path d="M352,384 L352,448 L298.667969,501.332031 L21.332031,501.332031 C15.445312,501.332031 10.667969,496.554688 10.667969,490.667969 L10.667969,21.332031 C10.667969,15.445312 15.445312,10.667969 21.332031,10.667969 L341.332031,10.667969 C347.222656,10.667969 352,15.445312 352,21.332031 L352,106.667969" id="Path" fill="#7ECFFB" fill-rule="nonzero"></path>
            <polygon id="Path" fill="#BAE4FB" fill-rule="nonzero" points="352 416 266.667969 416 266.667969 501.332031 298.667969 501.332031 352 448"></polygon>
            <path d="M362.667969,106.667969 L362.667969,21.332031 C362.667969,9.566406 353.097656,0 341.332031,0 L21.332031,0 C9.566406,0 2.84217094e-14,9.566406 2.84217094e-14,21.332031 L2.84217094e-14,490.667969 C2.84217094e-14,502.433594 9.566406,512 21.332031,512 L298.667969,512 C301.492188,512 304.214844,510.878906 306.207031,508.875 L359.542969,455.542969 C361.546875,453.546875 362.667969,450.828125 362.667969,448 L362.667969,384 L341.332031,384 L341.332031,405.332031 L266.667969,405.332031 C260.777344,405.332031 256,410.113281 256,416 L256,490.667969 L21.332031,490.667969 L21.332031,21.332031 L341.332031,21.332031 L341.332031,106.667969 L362.667969,106.667969 Z M277.332031,426.667969 L341.332031,426.667969 L341.332031,443.585938 L294.25,490.667969 L277.332031,490.667969 L277.332031,426.667969 Z" id="Shape" fill="#000000" fill-rule="nonzero"></path>
            <polygon id="Path" fill="#BAE4FB" fill-rule="nonzero" points="74.667969 96 288 96 288 224 74.667969 224"></polygon>
            <path d="M213.332031,234.667969 L74.667969,234.667969 C68.777344,234.667969 64,229.886719 64,224 L64,96 C64,90.113281 68.777344,85.332031 74.667969,85.332031 L288,85.332031 C293.886719,85.332031 298.667969,90.113281 298.667969,96 L298.667969,128 L277.332031,128 L277.332031,106.667969 L85.332031,106.667969 L85.332031,213.332031 L213.332031,213.332031 L213.332031,234.667969 Z" id="Path" fill="#000000" fill-rule="nonzero"></path>
            <polygon id="Path" fill="#000000" fill-rule="nonzero" points="64 277.332031 170.667969 277.332031 170.667969 298.667969 64 298.667969"></polygon>
            <polygon id="Path" fill="#000000" fill-rule="nonzero" points="192 277.332031 213.332031 277.332031 213.332031 298.667969 192 298.667969"></polygon>
            <polygon id="Path" fill="#000000" fill-rule="nonzero" points="64 341.332031 128 341.332031 128 362.667969 64 362.667969"></polygon>
            <polygon id="Path" fill="#000000" fill-rule="nonzero" points="149.332031 341.332031 256 341.332031 256 362.667969 149.332031 362.667969"></polygon>
            <polygon id="Path" fill="#000000" fill-rule="nonzero" points="64 405.332031 170.667969 405.332031 170.667969 426.667969 64 426.667969"></polygon>
            <polygon id="Path" fill="#000000" fill-rule="nonzero" points="192 405.332031 234.667969 405.332031 234.667969 426.667969 192 426.667969"></polygon>
            <path d="M352,362.667969 C287.308594,362.667969 234.667969,310.027344 234.667969,245.332031 C234.667969,180.640625 287.308594,128 352,128 C416.691406,128 469.332031,180.640625 469.332031,245.332031 C469.332031,310.027344 416.691406,362.667969 352,362.667969 Z M352,149.332031 C299.070312,149.332031 256,192.40625 256,245.332031 C256,298.261719 299.070312,341.332031 352,341.332031 C404.929688,341.332031 448,298.261719 448,245.332031 C448,192.40625 404.929688,149.332031 352,149.332031 Z" id="Shape" fill="#000000" fill-rule="nonzero"></path>
            <g id="error" transform="translate(254.000000, 146.000000)">
                <circle id="Oval" fill="#D75A4A" fill-rule="nonzero" cx="98" cy="98" r="98"></circle>
                <polyline id="Path" stroke="#FFFFFF" stroke-width="10" stroke-linecap="round" points="63 133 98 98 133 63"></polyline>
                <polyline id="Path" stroke="#FFFFFF" stroke-width="10" stroke-linecap="round" points="63 63 98 98 133 133"></polyline>
            </g>
        </g>
    </g>
</svg>