<?xml version="1.0" encoding="iso-8859-1"?>
<!-- Generator: Adobe Illustrator 19.0.0, SVG Export Plug-In . SVG Version: 6.00 Build 0)  -->
<svg version="1.1" id="Layer_1" xmlns="http://www.w3.org/2000/svg" x="0px" y="0px"
     viewBox="0 0 512 512" style="enable-background:new 0 0 512 512;" xml:space="preserve">
<g>
	<polygon style="fill:#C3C3C7;" points="123.586,158.897 123.586,459.034 176.552,459.034 176.552,158.897 150.069,158.897 	"/>
	<g>
		<rect id="SVGCleanerId_0" x="229.517" y="158.897" style="fill:#C3C3C7;" width="52.966" height="300.138"/>
	</g>
	<polygon style="fill:#C3C3C7;" points="335.448,158.897 335.448,459.034 388.414,459.034 388.414,158.897 361.931,158.897 	"/>
</g>
<path style="fill:#87868D;" d="M467.862,105.931h-52.966h-26.483V26.483C388.414,11.857,376.557,0,361.931,0H150.069
	c-14.626,0-26.483,11.857-26.483,26.483v79.448H97.103H44.138c-14.626,0-26.483,11.857-26.483,26.483
	c0,14.626,11.857,26.483,26.483,26.483h26.483v326.621c0,14.626,11.857,26.483,26.483,26.483h105.931h105.931h105.931
	c14.626,0,26.483-11.857,26.483-26.483V158.897h26.483c14.626,0,26.483-11.857,26.483-26.483
	C494.345,117.788,482.488,105.931,467.862,105.931z M176.552,459.034h-52.966V158.897h26.483h26.483V459.034z M282.483,459.034
	h-52.966V158.897h52.966V459.034z M203.034,105.931h-26.483V52.966h158.897v52.966h-26.483H203.034z M388.414,459.034h-52.966
	V158.897h26.483h26.483V459.034z"/>
<g>
	<polygon style="fill:#A9A8AE;" points="123.586,158.897 123.586,459.034 176.552,459.034 176.552,158.897 150.069,158.897 	"/>
	<g>
		<rect id="SVGCleanerId_0_1_" x="229.517" y="158.897" style="fill:#A9A8AE;" width="52.966" height="300.138"/>
	</g>
	<polygon style="fill:#A9A8AE;" points="335.448,158.897 335.448,459.034 388.414,459.034 388.414,158.897 361.931,158.897 	"/>
</g>
<g>
	<path id="SVGCleanerId_1" style="fill:#77757F;" d="M467.862,105.931h-52.966h-26.483V26.483C388.414,11.857,376.557,0,361.931,0
		H150.069c-14.626,0-26.483,11.857-26.483,26.483v79.448H97.103H44.138c-14.626,0-26.483,11.857-26.483,26.483
		c0,14.626,11.857,26.483,26.483,26.483h26.483v326.621c0,14.626,11.857,26.483,26.483,26.483h105.931h105.931h105.931
		c14.626,0,26.483-11.857,26.483-26.483V158.897h26.483c14.626,0,26.483-11.857,26.483-26.483
		C494.345,117.788,482.488,105.931,467.862,105.931z M176.552,459.034h-52.966V158.897h26.483h26.483V459.034z M282.483,459.034
		h-52.966V158.897h52.966V459.034z M203.034,105.931h-26.483V52.966h158.897v52.966h-26.483H203.034z M388.414,459.034h-52.966
		V158.897h26.483h26.483V459.034z"/>
</g>
<polygon style="fill:#C3C3C7;" points="123.586,158.897 123.586,459.034 176.552,459.034 176.552,158.897 150.069,158.897 "/>
<g>
	<rect x="229.517" y="158.897" style="fill:#77757F;" width="26.483" height="300.138"/>
	<polygon style="fill:#77757F;" points="123.586,158.897 123.586,459.034 176.552,459.034 176.552,158.897 150.069,158.897 	"/>
</g>
<g>
	<path id="SVGCleanerId_2" style="fill:#57575C;" d="M229.517,459.034V158.897H256v-52.966h-52.966h-26.483V52.966H256V0H150.069
		c-14.626,0-26.483,11.857-26.483,26.483v79.448H97.103H44.138c-14.626,0-26.483,11.857-26.483,26.483
		c0,14.626,11.857,26.483,26.483,26.483h26.483v326.621c0,14.626,11.857,26.483,26.483,26.483h105.931H256v-52.966H229.517z
		 M176.552,459.034h-52.966V158.897h26.483h26.483V459.034z"/>
</g>
<g>
	<polygon style="fill:#C3C3C7;" points="123.586,158.897 123.586,459.034 176.552,459.034 176.552,158.897 150.069,158.897 	"/>
	<g>
		<rect id="SVGCleanerId_0_2_" x="229.517" y="158.897" style="fill:#C3C3C7;" width="52.966" height="300.138"/>
	</g>
	<polygon style="fill:#C3C3C7;" points="335.448,158.897 335.448,459.034 388.414,459.034 388.414,158.897 361.931,158.897 	"/>
</g>
<g>
	<path id="SVGCleanerId_1_1_" style="fill:#87868D;" d="M467.862,105.931h-52.966h-26.483V26.483
		C388.414,11.857,376.557,0,361.931,0H150.069c-14.626,0-26.483,11.857-26.483,26.483v79.448H97.103H44.138
		c-14.626,0-26.483,11.857-26.483,26.483c0,14.626,11.857,26.483,26.483,26.483h26.483v326.621
		c0,14.626,11.857,26.483,26.483,26.483h105.931h105.931h105.931c14.626,0,26.483-11.857,26.483-26.483V158.897h26.483
		c14.626,0,26.483-11.857,26.483-26.483C494.345,117.788,482.488,105.931,467.862,105.931z M176.552,459.034h-52.966V158.897h26.483
		h26.483V459.034z M282.483,459.034h-52.966V158.897h52.966V459.034z M203.034,105.931h-26.483V52.966h158.897v52.966h-26.483
		H203.034z M388.414,459.034h-52.966V158.897h26.483h26.483V459.034z"/>
</g>
<g>
	<polygon style="fill:#A9A8AE;" points="123.586,158.897 123.586,459.034 176.552,459.034 176.552,158.897 150.069,158.897 	"/>
	<g>
		<rect id="SVGCleanerId_0_3_" x="229.517" y="158.897" style="fill:#A9A8AE;" width="52.966" height="300.138"/>
	</g>
	<polygon style="fill:#A9A8AE;" points="335.448,158.897 335.448,459.034 388.414,459.034 388.414,158.897 361.931,158.897 	"/>
</g>
<g>
	<path id="SVGCleanerId_1_2_" style="fill:#77757F;" d="M467.862,105.931h-52.966h-26.483V26.483
		C388.414,11.857,376.557,0,361.931,0H150.069c-14.626,0-26.483,11.857-26.483,26.483v79.448H97.103H44.138
		c-14.626,0-26.483,11.857-26.483,26.483c0,14.626,11.857,26.483,26.483,26.483h26.483v326.621
		c0,14.626,11.857,26.483,26.483,26.483h105.931h105.931h105.931c14.626,0,26.483-11.857,26.483-26.483V158.897h26.483
		c14.626,0,26.483-11.857,26.483-26.483C494.345,117.788,482.488,105.931,467.862,105.931z M176.552,459.034h-52.966V158.897h26.483
		h26.483V459.034z M282.483,459.034h-52.966V158.897h52.966V459.034z M203.034,105.931h-26.483V52.966h158.897v52.966h-26.483
		H203.034z M388.414,459.034h-52.966V158.897h26.483h26.483V459.034z"/>
</g>
<polygon style="fill:#C3C3C7;" points="123.586,158.897 123.586,459.034 176.552,459.034 176.552,158.897 150.069,158.897 "/>
<g>
	<rect x="229.517" y="158.897" style="fill:#77757F;" width="26.483" height="300.138"/>
	<polygon style="fill:#77757F;" points="123.586,158.897 123.586,459.034 176.552,459.034 176.552,158.897 150.069,158.897 	"/>
</g>
<g>
	<path id="SVGCleanerId_2_1_" style="fill:#57575C;" d="M229.517,459.034V158.897H256v-52.966h-52.966h-26.483V52.966H256V0H150.069
		c-14.626,0-26.483,11.857-26.483,26.483v79.448H97.103H44.138c-14.626,0-26.483,11.857-26.483,26.483
		c0,14.626,11.857,26.483,26.483,26.483h26.483v326.621c0,14.626,11.857,26.483,26.483,26.483h105.931H256v-52.966H229.517z
		 M176.552,459.034h-52.966V158.897h26.483h26.483V459.034z"/>
</g>
<g>
	<polygon style="fill:#C3C3C7;" points="123.586,158.897 123.586,459.034 176.552,459.034 176.552,158.897 150.069,158.897 	"/>
	<g>
		<rect id="SVGCleanerId_0_4_" x="229.517" y="158.897" style="fill:#C3C3C7;" width="52.966" height="300.138"/>
	</g>
	<polygon style="fill:#C3C3C7;" points="335.448,158.897 335.448,459.034 388.414,459.034 388.414,158.897 361.931,158.897 	"/>
</g>
<g>
	<path id="SVGCleanerId_1_3_" style="fill:#87868D;" d="M467.862,105.931h-52.966h-26.483V26.483
		C388.414,11.857,376.557,0,361.931,0H150.069c-14.626,0-26.483,11.857-26.483,26.483v79.448H97.103H44.138
		c-14.626,0-26.483,11.857-26.483,26.483c0,14.626,11.857,26.483,26.483,26.483h26.483v326.621
		c0,14.626,11.857,26.483,26.483,26.483h105.931h105.931h105.931c14.626,0,26.483-11.857,26.483-26.483V158.897h26.483
		c14.626,0,26.483-11.857,26.483-26.483C494.345,117.788,482.488,105.931,467.862,105.931z M176.552,459.034h-52.966V158.897h26.483
		h26.483V459.034z M282.483,459.034h-52.966V158.897h52.966V459.034z M203.034,105.931h-26.483V52.966h158.897v52.966h-26.483
		H203.034z M388.414,459.034h-52.966V158.897h26.483h26.483V459.034z"/>
</g>
<g>
	<polygon style="fill:#A9A8AE;" points="123.586,158.897 123.586,459.034 176.552,459.034 176.552,158.897 150.069,158.897 	"/>
	<g>
		<rect id="SVGCleanerId_0_5_" x="229.517" y="158.897" style="fill:#A9A8AE;" width="52.966" height="300.138"/>
	</g>
	<polygon style="fill:#A9A8AE;" points="335.448,158.897 335.448,459.034 388.414,459.034 388.414,158.897 361.931,158.897 	"/>
</g>
<g>
	<path id="SVGCleanerId_1_4_" style="fill:#77757F;" d="M467.862,105.931h-52.966h-26.483V26.483
		C388.414,11.857,376.557,0,361.931,0H150.069c-14.626,0-26.483,11.857-26.483,26.483v79.448H97.103H44.138
		c-14.626,0-26.483,11.857-26.483,26.483c0,14.626,11.857,26.483,26.483,26.483h26.483v326.621
		c0,14.626,11.857,26.483,26.483,26.483h105.931h105.931h105.931c14.626,0,26.483-11.857,26.483-26.483V158.897h26.483
		c14.626,0,26.483-11.857,26.483-26.483C494.345,117.788,482.488,105.931,467.862,105.931z M176.552,459.034h-52.966V158.897h26.483
		h26.483V459.034z M282.483,459.034h-52.966V158.897h52.966V459.034z M203.034,105.931h-26.483V52.966h158.897v52.966h-26.483
		H203.034z M388.414,459.034h-52.966V158.897h26.483h26.483V459.034z"/>
</g>
<polygon style="fill:#C3C3C7;" points="123.586,158.897 123.586,459.034 176.552,459.034 176.552,158.897 150.069,158.897 "/>
<rect id="SVGCleanerId_3" x="229.517" y="158.897" style="fill:#77757F;" width="26.483" height="300.138"/>
<polygon style="fill:#77757F;" points="123.586,158.897 123.586,459.034 176.552,459.034 176.552,158.897 150.069,158.897 "/>
<g>
	<path id="SVGCleanerId_2_2_" style="fill:#57575C;" d="M229.517,459.034V158.897H256v-52.966h-52.966h-26.483V52.966H256V0H150.069
		c-14.626,0-26.483,11.857-26.483,26.483v79.448H97.103H44.138c-14.626,0-26.483,11.857-26.483,26.483
		c0,14.626,11.857,26.483,26.483,26.483h26.483v326.621c0,14.626,11.857,26.483,26.483,26.483h105.931H256v-52.966H229.517z
		 M176.552,459.034h-52.966V158.897h26.483h26.483V459.034z"/>
</g>
<g>
	<polygon style="fill:#C3C3C7;" points="123.586,158.897 123.586,459.034 176.552,459.034 176.552,158.897 150.069,158.897 	"/>
	<g>
		<rect id="SVGCleanerId_0_6_" x="229.517" y="158.897" style="fill:#C3C3C7;" width="52.966" height="300.138"/>
	</g>
	<polygon style="fill:#C3C3C7;" points="335.448,158.897 335.448,459.034 388.414,459.034 388.414,158.897 361.931,158.897 	"/>
</g>
<g>
	<path id="SVGCleanerId_1_5_" style="fill:#87868D;" d="M467.862,105.931h-52.966h-26.483V26.483
		C388.414,11.857,376.557,0,361.931,0H150.069c-14.626,0-26.483,11.857-26.483,26.483v79.448H97.103H44.138
		c-14.626,0-26.483,11.857-26.483,26.483c0,14.626,11.857,26.483,26.483,26.483h26.483v326.621
		c0,14.626,11.857,26.483,26.483,26.483h105.931h105.931h105.931c14.626,0,26.483-11.857,26.483-26.483V158.897h26.483
		c14.626,0,26.483-11.857,26.483-26.483C494.345,117.788,482.488,105.931,467.862,105.931z M176.552,459.034h-52.966V158.897h26.483
		h26.483V459.034z M282.483,459.034h-52.966V158.897h52.966V459.034z M203.034,105.931h-26.483V52.966h158.897v52.966h-26.483
		H203.034z M388.414,459.034h-52.966V158.897h26.483h26.483V459.034z"/>
</g>
<path style="fill:#77757F;" d="M467.862,105.931h-52.966h-26.483V26.483C388.414,11.857,376.557,0,361.931,0H150.069
	c-14.626,0-26.483,11.857-26.483,26.483v79.448H97.103H44.138c-14.626,0-26.483,11.857-26.483,26.483
	c0,14.626,11.857,26.483,26.483,26.483h26.483v326.621c0,14.626,11.857,26.483,26.483,26.483h105.931h105.931h105.931
	c14.626,0,26.483-11.857,26.483-26.483V158.897h26.483c14.626,0,26.483-11.857,26.483-26.483
	C494.345,117.788,482.488,105.931,467.862,105.931z M203.034,105.931h-26.483V52.966h158.897v52.966h-26.483H203.034z"/>
<g>
	<polygon style="fill:#A9A8AE;" points="123.586,158.897 123.586,459.034 176.552,459.034 176.552,158.897 150.069,158.897 	"/>
	<g>
		<rect id="SVGCleanerId_0_7_" x="229.517" y="158.897" style="fill:#A9A8AE;" width="52.966" height="300.138"/>
	</g>
	<polygon style="fill:#A9A8AE;" points="335.448,158.897 335.448,459.034 388.414,459.034 388.414,158.897 361.931,158.897 	"/>
</g>
<polygon style="fill:#C3C3C7;" points="123.586,158.897 123.586,459.034 176.552,459.034 176.552,158.897 150.069,158.897 "/>
<g>
	<rect id="SVGCleanerId_3_1_" x="229.517" y="158.897" style="fill:#77757F;" width="26.483" height="300.138"/>
</g>
<polygon style="fill:#77757F;" points="123.586,158.897 123.586,459.034 176.552,459.034 176.552,158.897 150.069,158.897 "/>
<g>
	<path id="SVGCleanerId_2_3_" style="fill:#57575C;" d="M229.517,459.034V158.897H256v-52.966h-52.966h-26.483V52.966H256V0H150.069
		c-14.626,0-26.483,11.857-26.483,26.483v79.448H97.103H44.138c-14.626,0-26.483,11.857-26.483,26.483
		c0,14.626,11.857,26.483,26.483,26.483h26.483v326.621c0,14.626,11.857,26.483,26.483,26.483h105.931H256v-52.966H229.517z
		 M176.552,459.034h-52.966V158.897h26.483h26.483V459.034z"/>
</g>
<g>
</g>
<g>
</g>
<g>
</g>
<g>
</g>
<g>
</g>
<g>
</g>
<g>
</g>
<g>
</g>
<g>
</g>
<g>
</g>
<g>
</g>
<g>
</g>
<g>
</g>
<g>
</g>
<g>
</g>
</svg>
