<svg viewBox="0 0 512 512" xmlns="http://www.w3.org/2000/svg" xmlns:xlink="http://www.w3.org/1999/xlink"><linearGradient id="a" gradientTransform="matrix(1 0 0 -1 0 -12310)" gradientUnits="userSpaceOnUse" x1="0" x2="512" y1="-12566" y2="-12566"><stop offset="0" stop-color="#00f1ff"/><stop offset=".231" stop-color="#00d8ff"/><stop offset=".5138" stop-color="#00c0ff"/><stop offset=".7773" stop-color="#00b2ff"/><stop offset="1" stop-color="#00adff"/></linearGradient><path d="m512 256c0 141.386719-114.613281 256-256 256s-256-114.613281-256-256 114.613281-256 256-256 256 114.613281 256 256zm0 0" fill="url(#a)"/><g fill="#fff"><path d="m223.085938 411h-48.183594c-15.558594 0-28.21875-12.660156-28.21875-28.21875v-253.5625c0-15.558594 12.660156-28.21875 28.21875-28.21875h177.125c15.5625 0 28.21875 12.660156 28.21875 28.21875v88.601562c0 8.285157 6.71875 15 15 15 8.285156 0 15-6.714843 15-15v-88.601562c0-32.101562-26.117188-58.21875-58.21875-58.21875h-177.121094c-32.105469 0-58.222656 26.117188-58.222656 58.21875v253.5625c0 32.101562 26.121094 58.21875 58.222656 58.21875h48.183594c8.28125 0 15-6.714844 15-15s-6.71875-15-15.003906-15zm0 0"/><path d="m337.621094 157.441406h-148.390625c-8.28125 0-15 6.714844-15 15s6.71875 15 15 15h148.390625c8.285156 0 15-6.714844 15-15s-6.714844-15-15-15zm0 0"/><path d="m352.621094 230.066406c0-8.28125-6.714844-15-15-15h-148.390625c-8.28125 0-15 6.71875-15 15 0 8.285156 6.71875 15 15 15h148.390625c8.285156 0 15-6.714844 15-15zm0 0"/><path d="m189.230469 272.695312c-8.285157 0-15 6.714844-15 15 0 8.285157 6.714843 15 15 15h90.125c8.28125 0 15-6.714843 15-15 0-8.285156-6.71875-15-15-15zm0 0"/><path d="m435.59375 279.765625c-17.082031-17.085937-44.878906-17.082031-61.949219-.011719l-79.097656 78.917969c-1.746094 1.746094-3.039063 3.894531-3.757813 6.261719l-17.222656 56.707031c-1.589844 5.234375-.207031 10.917969 3.613282 14.832031 2.863281 2.933594 6.75 4.527344 10.738281 4.527344 1.335937 0 2.679687-.179688 4.003906-.546875l58.148437-16.105469c2.492188-.691406 4.761719-2.015625 6.589844-3.839844l78.933594-78.78125c17.082031-17.082031 17.082031-44.878906 0-61.960937zm-21.210938 21.210937c5.382813 5.386719 5.382813 14.152344.007813 19.527344l-2.371094 2.367188-19.535156-19.535156 2.359375-2.359376c5.386719-5.382812 14.148438-5.382812 19.539062 0zm-76.121093 95.511719-28.066407 7.773438 8.207032-27.007813 52.84375-52.730468 19.539062 19.539062zm0 0"/></g></svg>