<?xml version="1.0" encoding="iso-8859-1"?>
<!-- Generator: Adobe Illustrator 16.0.0, SVG Export Plug-In . SVG Version: 6.00 Build 0)  -->
<!DOCTYPE svg PUBLIC "-//W3C//DTD SVG 1.1//EN" "http://www.w3.org/Graphics/SVG/1.1/DTD/svg11.dtd">
<svg version="1.1" id="Capa_1" xmlns="http://www.w3.org/2000/svg" xmlns:xlink="http://www.w3.org/1999/xlink" x="0px" y="0px"
	 width="565px" height="565px" viewBox="0 0 565 565" style="enable-background:new 0 0 565 565;" xml:space="preserve">
<g>
	<g>
		<path d="M54.5,51.8C24.4,51.8,0,76.3,0,106.3s24.5,54.5,54.5,54.5c20.9,0,39.7-11.8,48.8-30.3c23.3,4.2,33.8,25.2,38.2,39
			c-16.5,26.8-25.2,57-25.2,87.5l0,0v206.4v0.5l0.1,0.6c0,0,0.8,3.1,0.8,4.4c0,25.5,20.7,44,49.2,44c13.3,0,25.7-5.801,35-16
			c9.2,10.3,22.4,16.3,36.5,16.3c15.7,0,35.5-2,44.7-16.5c8.5,14.1,26.8,16.3,43,16.3c15.4,0,29.701-7.4,38.9-19.6
			c9.1,11.8,23.199,18.8,38.199,18.8c25.9,0,40.102-15.601,40.102-43.8c0-1.801-0.801-4.2-1.5-5.9V257.1c0-41.1-9-73.5-27.602-99
			c8.301-15.7,25.4-24.7,47.5-24.8c9.602,16.6,28.801,27.6,48.602,27.6c30.398,0,55.199-24.5,55.199-54.5s-24.199-54.5-53.9-54.5
			c-23.4,0-44.1,15-51.6,36.9c-30,1.2-55.4,14.1-72.199,36.9C358,102.7,321.5,90,284.1,90c-40.8,0-79.8,14.8-110.5,41.9
			c-15.2-25.6-39.8-42-68.6-45.4C97,65.6,77,51.8,54.5,51.8z M334.301,388.8H242.6c-6.4,0-11.5-5.2-11.5-11.5v-5.6
			c0-6.4,5.2-11.5,11.5-11.5h91.701c6.398,0,11.5,5.2,11.5,11.5v5.6C345.801,383.6,340.6,388.8,334.301,388.8z M359.5,322.1
			c-25.801,0-46.699-20.899-46.699-46.699c0-25.8,20.898-46.7,46.699-46.7s46.699,20.9,46.699,46.7
			C406.1,301.2,385.199,322.1,359.5,322.1z M280.4,234.1c-25.8,0-46.7-20.9-46.7-46.7c0-25.8,20.9-46.7,46.7-46.7
			c25.799,0,46.7,20.9,46.7,46.7C327.1,213.2,306.199,234.1,280.4,234.1z M210.2,228.8c25.8,0,46.7,20.9,46.7,46.7
			s-20.9,46.7-46.7,46.7c-25.8,0-46.7-20.9-46.7-46.7S184.4,228.8,210.2,228.8z"/>
		<circle cx="280.4" cy="186.9" r="28"/>
		<circle cx="210.2" cy="274.9" r="28"/>
		<circle cx="359.5" cy="274.9" r="28"/>
	</g>
</g>
<g>
</g>
<g>
</g>
<g>
</g>
<g>
</g>
<g>
</g>
<g>
</g>
<g>
</g>
<g>
</g>
<g>
</g>
<g>
</g>
<g>
</g>
<g>
</g>
<g>
</g>
<g>
</g>
<g>
</g>
</svg>
