<?xml version="1.0" encoding="iso-8859-1"?>
<!-- Generator: Adobe Illustrator 16.0.0, SVG Export Plug-In . SVG Version: 6.00 Build 0)  -->
<!DOCTYPE svg PUBLIC "-//W3C//DTD SVG 1.1//EN" "http://www.w3.org/Graphics/SVG/1.1/DTD/svg11.dtd">
<svg version="1.1" id="Capa_1" xmlns="http://www.w3.org/2000/svg" xmlns:xlink="http://www.w3.org/1999/xlink" x="0px" y="0px"
	 width="589.739px" height="589.739px" viewBox="0 0 589.739 589.739" style="enable-background:new 0 0 589.739 589.739;"
	 xml:space="preserve">
<g>
	<g>
		<path d="M563.672,227.201c-5.136,0-11.533,0.603-19.546,1.846c-4.581,0.708-7.373-0.134-7.593-0.412
			c-0.363-0.459-0.545-1.664-0.517-2.974c13.933-11.571,20.607-24.098,18.876-35.563c-1.128-7.411-6.292-17.643-24.499-24.298
			c-3.538-1.291-7.095-1.951-10.576-1.951c-25.924,0-37.169,34.167-40.382,46.474c-16.916,11.131-37.246,20.253-59.498,26.727
			v-52.412c0-64.853-46.426-117.8-104.021-119.369l-11.073-23.036c-1.568-3.251-4.82-5.345-8.425-5.412
			c-3.72,0.019-6.952,1.884-8.635,5.068l-15.137,28.467c-56.39,4.169-101.334,54.229-101.334,114.281v34.741
			C120.87,229.591,86.35,254.291,73.01,265.24c-20.597-13.158-43.796-10.088-60.244,7.181c-6.646,6.99-13.167,17.796-12.747,26.173
			c0.373,7.497,4.332,20.081,26.583,20.081c5.231,0,11.676-0.603,19.708-1.846c4.562-0.717,7.306,0.173,7.42,0.325
			c0.344,0.44,0.478,1.674,0.43,2.983c-14.057,11.638-20.798,24.222-19.058,35.707c1.128,7.382,6.273,17.595,24.422,24.222
			c3.538,1.291,7.095,1.95,10.576,1.95c25.915,0,37.122-34.166,40.325-46.474c17.327-11.408,38.125-20.664,60.894-27.129v90.71
			c0,2.458,0.946,4.819,2.629,6.589c1.071,1.119,10.528,10.49,35.621,18.542v80.851c0,0.076,0.047,0.144,0.047,0.22
			c-10.748,1.119-19.182,10.107-19.182,21.143v4.781v0.307v4.781c0,9.16,7.42,16.581,16.582,16.581h4.781h67.243h4.781
			c3.625,0,6.99-0.994,9.983-2.592c2.563,1.616,5.584,2.592,8.835,2.592h4.781h67.244h4.781c11.78,0,21.362-9.582,21.362-21.362
			v-5.078c0-11.035-8.435-20.033-19.173-21.143c0-0.086,0.048-0.153,0.048-0.229v-80.832c25.092-8.061,34.54-17.423,35.62-18.541
			c1.684-1.779,2.63-4.141,2.63-6.599V326.24c50.136-10.376,83.758-34.646,96.858-45.565c8.654,5.508,17.499,8.291,26.393,8.3l0,0
			c12.269,0,24.27-5.518,33.784-15.529c6.646-6.98,13.168-17.786,12.747-26.163C589.271,238.121,584.384,227.201,563.672,227.201z
			 M291.15,103.28c49.458,0,96.017,48.673,96.017,86.397c0,33.918-34.435,53.359-94.478,53.359s-94.478-19.584-94.478-53.722
			C198.202,151.389,241.97,103.28,291.15,103.28z M283.825,514.668c1.855,0,3.558,0.517,5.116,1.291
			c-0.277,0.479-0.555,0.956-0.794,1.453c-2.62-1.721-5.737-2.744-9.104-2.744H283.825z M295.625,508.682
			c-2.802-1.864-6.091-2.993-9.61-3.356c0-0.076,0.048-0.144,0.048-0.22v-68.859c5.632,0.096,13.492,0.096,19.125,0v68.859
			c0,0.076,0.048,0.144,0.048,0.22C301.717,505.689,298.427,506.818,295.625,508.682z M391.25,526.468v4.781
			c0-9.16-7.421-16.581-16.581-16.581h4.781C385.952,514.668,391.25,519.966,391.25,526.468z"/>
		<path d="M218.905,197.662c4.81,0,8.711-3.901,8.711-8.711c0-20.301,27.722-56.629,54.994-56.629c4.81,0,8.711-3.901,8.711-8.711
			c0-4.81-3.901-8.711-8.711-8.711c-35.926,0-72.426,43.089-72.426,74.052C210.184,193.751,214.085,197.662,218.905,197.662z"/>
	</g>
</g>
<g>
</g>
<g>
</g>
<g>
</g>
<g>
</g>
<g>
</g>
<g>
</g>
<g>
</g>
<g>
</g>
<g>
</g>
<g>
</g>
<g>
</g>
<g>
</g>
<g>
</g>
<g>
</g>
<g>
</g>
</svg>
