<?xml version="1.0" encoding="iso-8859-1"?>
<!-- Generator: Adobe Illustrator 16.0.0, SVG Export Plug-In . SVG Version: 6.00 Build 0)  -->
<!DOCTYPE svg PUBLIC "-//W3C//DTD SVG 1.1//EN" "http://www.w3.org/Graphics/SVG/1.1/DTD/svg11.dtd">
<svg version="1.1" id="Capa_1" xmlns="http://www.w3.org/2000/svg" xmlns:xlink="http://www.w3.org/1999/xlink" x="0px" y="0px"
	 width="572.155px" height="572.154px" viewBox="0 0 572.155 572.154" style="enable-background:new 0 0 572.155 572.154;"
	 xml:space="preserve">
<g>
	<g>
		<path d="M556.917,191.436L254.743,57.704c-1.272-0.593-2.362-1.157-3.318-1.645c-2.964-1.53-5.766-2.975-9.362-2.975
			c-8.539,0-12.211,7.928-14.047,11.887l-1.1,2.467c-2.123,4.733-5.154,11.494-7.86,18.628c-2.075,4.322-4.064,9.084-6.215,14.22
			c-8.511,20.32-19.087,45.604-47.908,74.425c-52.221,52.211-98.771,57.279-116.299,59.183c-2.687,0.296-4.762,0.535-6.148,0.812
			c-2.917,0.583-5.862,2.84-7.182,5.508c-2.438,4.944-0.459,10.309,1.97,15.243l139.804,301.247
			c4.198,9.342,13.817,15.366,24.508,15.366c4.15,0,8.195-0.88,12.02-2.591l1.1-0.497c14.124-6.359,20.722-22.415,14.697-35.812
			L123.296,297.196c34.263,2.697,69.596-7.735,98.743-28.792l174.984,175.348c4.513,4.522,10.203,6.903,16.447,6.903
			c7.344,0,14.717-3.337,20.77-9.39l0.842-0.842c11.513-11.504,12.584-27.148,2.562-37.198L261.379,226.606
			c21.812-30.504,31.872-64.212,28.84-95.721l242.553,112.483c3.404,1.578,7.038,2.382,10.806,2.382
			c10.69,0,20.616-6.503,25.016-16.046l0.812-1.55c3.089-6.674,3.596-14.104,1.415-20.913
			C568.545,200.147,563.659,194.553,556.917,191.436z"/>
		<path d="M215.508,45.129c0.593-3.509-0.813-7.047-3.653-9.198c-21.2-16.094-46.502-24.595-73.191-24.595
			c-26.278,0-52.297,8.08-75.64,23.438l-10.337-6.455c1.195-7.611-1.214-15.52-6.933-21.238c-9.324-9.323-25.58-9.333-34.941,0
			c-9.62,9.639-9.62,25.303,0,34.932c4.379,4.38,10.146,6.914,16.323,7.172l4.982,13.015
			C-3.426,104.723-10.32,166.286,15.709,214.013c1.683,3.089,4.915,4.982,8.396,4.982c0.201,0,0.392,0,0.593-0.02
			C186.17,208.982,215.23,46.765,215.508,45.129z"/>
	</g>
</g>
<g>
</g>
<g>
</g>
<g>
</g>
<g>
</g>
<g>
</g>
<g>
</g>
<g>
</g>
<g>
</g>
<g>
</g>
<g>
</g>
<g>
</g>
<g>
</g>
<g>
</g>
<g>
</g>
<g>
</g>
</svg>
