<svg height="616pt" viewBox="-19 -137 616.00142 616" width="616pt" xmlns="http://www.w3.org/2000/svg"><path d="m125.925781 163.175781c-.03125-25.492187 5.140625-50.71875 15.199219-74.144531-93.035156.136719-138.328125 17.648438-140.996094 34.605469-1.875 11.859375 16.449219 33.234375 73.464844 57.667969 16.960938 7.265624 35.890625 14.183593 56.347656 20.640624-2.675781-12.753906-4.023437-25.746093-4.015625-38.769531zm0 0"/><path d="m228.171875 127.429688c6.808594.003906 12.328125-5.515626 12.328125-12.324219 0-6.808594-5.519531-12.328125-12.328125-12.328125-6.804687-.003906-12.324219 5.515625-12.324219 12.324218.007813 6.808594 5.523438 12.320313 12.324219 12.328126zm0 0"/><path d="m310.488281 207.765625c4.257813 0 7.714844-3.457031 7.714844-7.714844 0-4.265625-3.457031-7.722656-7.714844-7.722656-4.265625 0-7.722656 3.457031-7.722656 7.722656.003906 4.257813 3.460937 7.710938 7.722656 7.714844zm0 0"/><path d="m450.609375 266.507812c-5.117187.113282-10.324219.167969-15.613281.171876-48.140625 0-102.957032-4.582032-159.496094-13.484376-40.226562-6.25-80.078125-14.714843-119.378906-25.339843 23.207031 56.855469 75.125 96.898437 136.015625 104.886719 60.886719 7.992187 121.378906-17.292969 158.46875-66.234376zm0 0"/><path d="m278.230469 235.914062c66.851562 10.53125 131.105469 14.917969 184.292969 12.726563 15.058593-25.960937 22.96875-55.453125 22.929687-85.464844 0-94.304687-76.71875-171.023437-171.019531-171.023437-94.296875 0-171.019532 76.71875-171.019532 171.023437-.007812 15.066407 1.980469 30.066407 5.914063 44.609375 42.351563 12.011719 85.398437 21.40625 128.902344 28.128906zm123.125-101.898437c25.5625 0 46.285156 20.722656 46.285156 46.28125-.007813 25.5625-20.726563 46.28125-46.285156 46.277344-25.5625 0-46.285157-20.726563-46.277344-46.285157.03125-25.546874 20.734375-46.242187 46.277344-46.273437zm-90.867188 40.824219c13.917969 0 25.203125 11.289062 25.203125 25.210937 0 13.917969-11.285156 25.207031-25.203125 25.207031-13.925781 0-25.210937-11.289062-25.210937-25.207031.019531-13.917969 11.292968-25.191406 25.210937-25.210937zm-82.316406-89.550782c16.472656 0 29.820313 13.347657 29.820313 29.816407 0 16.464843-13.347657 29.820312-29.820313 29.820312-16.464844 0-29.816406-13.355469-29.816406-29.824219.019531-16.457031 13.355469-29.792968 29.816406-29.8125zm0 0"/><path d="m502.8125 156.425781c.078125 2.242188.132812 4.484375.132812 6.75.035157 29.25-6.78125 58.101563-19.90625 84.25 2.253907-.179687 4.496094-.363281 6.699219-.570312 61.769531-5.71875 85.769531-20.429688 87.640625-32.292969 1.859375-11.78125-16.953125-33.632812-74.566406-58.136719zm0 0"/><path d="m401.355469 209.082031c15.898437 0 28.789062-12.886719 28.792969-28.785156 0-15.902344-12.886719-28.789063-28.789063-28.789063-15.898437-.003906-28.789063 12.882813-28.792969 28.78125.015625 15.894532 12.894532 28.773438 28.789063 28.792969zm0 0"/></svg>