<?xml version="1.0" encoding="iso-8859-1"?>
<!-- Generator: Adobe Illustrator 19.0.0, SVG Export Plug-In . SVG Version: 6.00 Build 0)  -->
<svg version="1.1" id="Layer_1" xmlns="http://www.w3.org/2000/svg" xmlns:xlink="http://www.w3.org/1999/xlink" x="0px" y="0px"
	 viewBox="0 0 512 512" style="enable-background:new 0 0 512 512;" xml:space="preserve">
<g>
	<g>
		<path d="M406.588,331.294v82.824c0,12.475-10.114,22.588-22.588,22.588s-22.588-10.113-22.588-22.588c0,0,0-184.267,0-203.294
			c0-52.21-35.465-93.083-82.823-103.054V84.295c13.499-7.813,22.588-22.399,22.588-39.118C301.176,20.226,280.949,0,256,0
			s-45.176,20.226-45.176,45.176c0,16.72,9.089,31.306,22.588,39.118v23.475c-47.358,9.97-82.823,50.843-82.823,103.054
			c0,19.027,0,203.294,0,203.294c0,12.475-10.114,22.588-22.588,22.588s-22.588-10.113-22.588-22.588v-82.824H60.235v82.824
			c0,53.972,43.91,97.882,97.882,97.882h195.765c53.972,0,97.882-43.91,97.882-97.882v-82.824H406.588z M256,376.471
			c-24.949,0-45.176-20.227-45.176-45.176h90.353C301.176,356.244,280.949,376.471,256,376.471z M256,286.118
			c-37.427,0-67.765-30.338-67.765-67.765c0-37.426,30.338-67.765,67.765-67.765c37.424,0,67.765,30.339,67.765,67.765
			C323.765,255.78,293.424,286.118,256,286.118z"/>
	</g>
</g>
<g>
	<g>
		<circle cx="256" cy="218.353" r="22.588"/>
	</g>
</g>
<g>
	<g>
		<circle cx="256" cy="218.353" r="22.588"/>
	</g>
</g>
<g>
</g>
<g>
</g>
<g>
</g>
<g>
</g>
<g>
</g>
<g>
</g>
<g>
</g>
<g>
</g>
<g>
</g>
<g>
</g>
<g>
</g>
<g>
</g>
<g>
</g>
<g>
</g>
<g>
</g>
</svg>
