<svg height="512pt" viewBox="0 -59 512 512" width="512pt" xmlns="http://www.w3.org/2000/svg"><path d="m512 328.308594c0-39.082032-21.414062-73.25-53.121094-91.402344h-405.757812c-31.707032 18.148438-53.121094 52.320312-53.121094 91.402344v27.34375h27.054688l-17.433594 38.480468h33.03125l59.042968-38.480468h312.539063l59.042969 38.480468h33.027344l-17.429688-38.480468h23.125zm-387.523438-18.949219c-8.410156 0-14.636718-6.875-15-15-.363281-8.101563 7.152344-15 15-15 8.410157 0 14.636719 6.871094 15 15 .363282 8.101563-7.15625 15-15 15zm88.664063 0c-8.40625 0-14.632813-6.875-15-15-.363281-8.101563 7.15625-15 15-15 8.410156 0 14.636719 6.871094 15 15 .363281 8.101563-7.152344 15-15 15zm88.667969 0c-8.410156 0-14.636719-6.875-15-15-.363282-8.101563 7.15625-15 15-15 8.410156 0 14.636718 6.871094 15 15 .363281 8.101563-7.152344 15-15 15zm88.667968 0c-8.410156 0-14.636718-6.875-15-15-.363281-8.101563 7.152344-15 15-15 8.410157 0 14.636719 6.871094 15 15 .363282 8.101563-7.15625 15-15 15zm0 0"/><path d="m308.472656 188.960938c0-9.273438-7.542968-16.816407-16.816406-16.816407h-1.394531c-9.417969 4.464844-20.628907 7.035157-32.785157 7.035157-12.160156 0-23.371093-2.570313-32.789062-7.035157h-1.394531c-9.269531 0-16.816407 7.542969-16.816407 16.816407v17.945312h101.996094zm0 0"/><path d="m176.480469 188.960938c0-17.269532 9.402343-32.371094 23.347656-40.484376-2.222656-4.855468-3.4375-10.097656-3.4375-15.59375 0-13.351562 7.105469-25.199218 18.652344-33.574218l-6.867188-13.667969c-2.4375-.976563-4.726562-2.445313-6.699219-4.417969-3.78125-3.78125-5.863281-8.808594-5.863281-14.15625s2.082031-10.375 5.863281-14.15625c7.808594-7.800781 20.507813-7.800781 28.308594.003906 3.78125 3.777344 5.863282 8.808594 5.863282 14.152344 0 1.746094-.242188 3.449219-.671876 5.09375l7.894532 15.710938c4.667968-.835938 9.550781-1.289063 14.605468-1.289063 5.078126 0 9.992188.457031 14.679688 1.304688l7.902344-15.726563c-.429688-1.644531-.675782-3.347656-.675782-5.09375 0-5.347656 2.082032-10.375 5.863282-14.15625 7.804687-7.804687 20.503906-7.800781 28.308594 0 3.78125 3.78125 5.863281 8.808594 5.863281 14.15625s-2.082031 10.375-5.859375 14.15625c-1.972656 1.972656-4.261719 3.441406-6.703125 4.417969l-6.886719 13.710937c11.507812 8.371094 18.589844 20.203126 18.589844 33.527344 0 5.5-1.214844 10.742188-3.441406 15.59375 13.949218 8.117188 23.351562 23.21875 23.351562 40.484375v17.949219h87.621094v-38.289062c0-92.976563-75.640625-168.617188-168.617188-168.617188-92.976562 0-168.617187 75.640625-168.617187 168.617188v38.289062h87.625zm0 0"/><path d="m226.390625 132.882812c0 7.535157 13.578125 16.296876 31.085937 16.296876 17.503907 0 31.082032-8.761719 31.082032-16.296876 0-7.539062-13.578125-16.300781-31.082032-16.300781-17.507812 0-31.085937 8.761719-31.085937 16.300781zm0 0"/></svg>