<?xml version="1.0" encoding="iso-8859-1"?>
<!-- Generator: Adobe Illustrator 19.0.0, SVG Export Plug-In . SVG Version: 6.00 Build 0)  -->
<svg version="1.1" id="Layer_1" xmlns="http://www.w3.org/2000/svg" x="0px" y="0px"
     viewBox="0 0 512 512" style="enable-background:new 0 0 512 512;" xml:space="preserve">
<g>
	<g>
		<path d="M414.118,429.176V314.025c13.859-12.407,22.588-30.429,22.588-50.495c0-25.055-13.609-46.919-33.828-58.644
			c-20.612-51.576-67.599-89.751-124.289-97.86V84.295c13.5-7.813,22.588-22.399,22.588-39.118C301.176,20.226,280.949,0,256,0
			s-45.176,20.226-45.176,45.176c0,16.72,9.088,31.306,22.588,39.118v22.731c-56.69,8.111-103.677,46.283-124.288,97.858
			c-20.221,11.726-33.83,33.589-33.83,58.645c0,20.067,8.73,38.088,22.588,50.497v115.15c0,20.759-16.888,37.647-37.647,37.647V512
			c45.669,0,82.824-37.155,82.824-82.824v-7.529h45.176V512h45.176v-90.353h45.177V512h45.176v-90.353h45.176v7.529
			c0,45.669,37.155,82.824,82.824,82.824v-45.176C431.006,466.824,414.118,449.935,414.118,429.176z M143.059,286.118
			c-12.475,0-22.588-10.114-22.588-22.588s10.114-22.588,22.588-22.588s22.588,10.114,22.588,22.588
			S155.534,286.118,143.059,286.118z M256,361.412c-24.948,0-45.176-20.227-45.176-45.176h90.353
			C301.176,341.185,280.948,361.412,256,361.412z M368.941,286.118c-12.475,0-22.588-10.114-22.588-22.588
			s10.113-22.588,22.588-22.588s22.588,10.114,22.588,22.588S381.416,286.118,368.941,286.118z"/>
	</g>
</g>
<g>
</g>
<g>
</g>
<g>
</g>
<g>
</g>
<g>
</g>
<g>
</g>
<g>
</g>
<g>
</g>
<g>
</g>
<g>
</g>
<g>
</g>
<g>
</g>
<g>
</g>
<g>
</g>
<g>
</g>
</svg>
