<?xml version="1.0" encoding="iso-8859-1"?>
<!-- Generator: Adobe Illustrator 19.0.0, SVG Export Plug-In . SVG Version: 6.00 Build 0)  -->
<svg version="1.1" id="Layer_1" xmlns="http://www.w3.org/2000/svg" xmlns:xlink="http://www.w3.org/1999/xlink" x="0px" y="0px"
	 viewBox="0 0 512 512" style="enable-background:new 0 0 512 512;" xml:space="preserve">
<g>
	<g>
		<path d="M361.412,466.824V331.294c0-33.527-15.67-63.375-40.065-82.682c33.565-25.543,67.495-64.128,67.495-115.772
			C388.841,59.475,329.365,0,256,0S123.159,59.475,123.159,132.84c0,51.643,33.931,90.228,67.495,115.772
			c-24.395,19.307-40.065,49.155-40.065,82.682v135.529h-30.118V512h271.059v-45.176H361.412z M290.799,118.662
			c21.103-21.459,63.712-13.776,63.712-13.776s8.388,42.475-12.717,63.934c-21.103,21.459-63.712,13.776-63.712,13.776
			S269.695,140.119,290.799,118.662z M286.118,225.882C286.118,242.515,272.634,256,256,256s-30.118-13.485-30.118-30.118H286.118z
			 M170.205,168.82c-21.105-21.459-12.717-63.934-12.717-63.934s42.609-7.683,63.712,13.776
			c21.106,21.457,12.717,63.934,12.717,63.934S191.312,190.279,170.205,168.82z M316.235,421.647H195.765v-45.177h120.471V421.647z"
			/>
	</g>
</g>
<g>
</g>
<g>
</g>
<g>
</g>
<g>
</g>
<g>
</g>
<g>
</g>
<g>
</g>
<g>
</g>
<g>
</g>
<g>
</g>
<g>
</g>
<g>
</g>
<g>
</g>
<g>
</g>
<g>
</g>
</svg>
