<?xml version="1.0" encoding="iso-8859-1"?>
<!-- Generator: Adobe Illustrator 19.0.0, SVG Export Plug-In . SVG Version: 6.00 Build 0)  -->
<svg version="1.1" id="Layer_1" xmlns="http://www.w3.org/2000/svg" xmlns:xlink="http://www.w3.org/1999/xlink" x="0px" y="0px"
	 viewBox="0 0 512 512" style="enable-background:new 0 0 512 512;" xml:space="preserve">
<g>
	<g>
		<path d="M384,466.824c-12.475,0-22.588-10.114-22.588-22.588V286.118c0-32.408-14.637-61.387-37.647-80.723v-54.807
			c0-6.304,1.301-12.308,3.644-17.762c6.015,1.747,12.366,2.703,18.944,2.703c37.424,0,67.765-30.338,67.765-67.765
			C414.118,30.339,383.777,0,346.353,0c-37.427,0-67.765,30.339-67.765,67.765c0,14.187,4.366,27.35,11.818,38.233
			c-7.507,13.167-11.818,28.38-11.818,44.591v32.569c-7.279-1.59-14.833-2.452-22.588-2.452s-15.309,0.861-22.588,2.452v-32.569
			c0-16.211-4.311-31.423-11.818-44.591c7.453-10.883,11.818-24.046,11.818-38.233C233.412,30.339,203.071,0,165.647,0
			C128.22,0,97.882,30.339,97.882,67.765c0,37.427,30.337,67.765,67.765,67.765c6.578,0,12.93-0.956,18.944-2.705
			c2.343,5.456,3.644,11.46,3.644,17.763v54.807c-23.01,19.337-37.647,48.315-37.647,80.723v158.118
			c0,12.475-10.114,22.588-22.588,22.588s-37.647,0-37.647,0V512h331.294v-45.176C421.647,466.824,396.475,466.824,384,466.824z
			 M346.353,45.176c12.475,0,22.588,10.114,22.588,22.588s-10.113,22.588-22.588,22.588s-22.588-10.114-22.588-22.588
			S333.878,45.176,346.353,45.176z M165.647,90.353c-12.475,0-22.588-10.114-22.588-22.588s10.114-22.588,22.588-22.588
			c12.475,0,22.588,10.114,22.588,22.588S178.122,90.353,165.647,90.353z M256,316.235c-24.949,0-45.176-20.227-45.176-45.176
			h90.353C301.176,296.008,280.949,316.235,256,316.235z"/>
	</g>
</g>
<g>
</g>
<g>
</g>
<g>
</g>
<g>
</g>
<g>
</g>
<g>
</g>
<g>
</g>
<g>
</g>
<g>
</g>
<g>
</g>
<g>
</g>
<g>
</g>
<g>
</g>
<g>
</g>
<g>
</g>
</svg>
