<svg id="Layer_1" enable-background="new 0 0 512 512" height="512" viewBox="0 0 512 512" width="512" xmlns="http://www.w3.org/2000/svg"><g><path d="m353.795 148.921c5.857-5.856 15.352-5.858 21.21-.002l4.334 4.332c3.993 3.999 6.192 9.311 6.192 14.957v171.922l-.627-.313c-25.52-12.76-41.64-38.843-41.64-67.376v-104.234c0-5.641 2.203-10.952 6.193-14.949z"/><path d="m215.514 34.279 29.877-29.884c5.858-5.859 15.356-5.86 21.214-.001l29.891 29.891c10.813 10.806 16.768 25.186 16.768 40.491v60.316l-21.105-21.112c-19.937-19.938-52.378-19.938-72.32.006l-21.108 21.115v-60.326c.001-15.299 5.959-29.679 16.783-40.496z"/><path d="m132.658 153.258 4.337-4.337c5.857-5.857 15.352-5.858 21.21-.003l4.334 4.332c3.993 3.999 6.192 9.31 6.192 14.957v104.244c0 28.529-16.118 54.609-41.635 67.367l-.631.316v-171.927c0-5.64 2.202-10.952 6.193-14.949z"/><path d="m168.732 490.885c0 11.643-9.472 21.115-21.133 21.115-11.653 0-21.133-9.48-21.133-21.133v-21.133h42.267v21.133.018z"/><path d="m385.532 490.885c0 11.643-9.473 21.115-21.151 21.115-11.644 0-21.116-9.472-21.116-21.115v-.019-21.133h42.267z"/><path d="m198.732 451.667v39.2.019c0 11.643 9.472 21.115 21.116 21.115h72.266c11.679 0 21.151-9.472 21.151-21.115v-39.218h-114.533z"/><path d="m343.265 439.733v-3.066c0-8.284-6.716-15-15-15h-144.533c-8.284 0-15 6.716-15 15v3.066h-91.192c-11.677 0-18.908-12.773-12.85-22.756 6.959-11.466 17.121-20.978 29.702-27.266l46.123-23.062c10.546-5.274 20.061-12.256 28.217-20.606v17.933c0 8.077 6.207 15.027 14.275 15.407 8.614.406 15.725-6.458 15.725-14.983v-163.158c0-15.299 5.958-29.679 16.786-40.501l25.541-25.549c8.241-8.24 21.649-8.24 29.883-.006l25.556 25.564c10.813 10.806 16.768 25.187 16.768 40.492v162.735c0 8.077 6.207 15.027 14.275 15.407 8.614.406 15.725-6.458 15.725-14.983v-18.359c8.159 8.353 17.678 15.335 28.228 20.61l46.125 23.063c12.577 6.287 22.737 15.799 29.693 27.266 6.056 9.983-1.175 22.754-12.851 22.754h-91.196z"/></g></svg>