<svg height="512" viewBox="0 0 64 64" width="512" xmlns="http://www.w3.org/2000/svg"><circle cx="19" cy="34" r="1"/><path d="m52 58h-2a3.006 3.006 0 0 0 -2.829 2h7.658a3.006 3.006 0 0 0 -2.829-2z"/><path d="m14.535 44h34.93l2.667-4h-40.264z"/><path d="m33 56a5 5 0 0 1 1 .1v-10.1h-4v10.1a5 5 0 0 1 1-.1z"/><circle cx="45" cy="34" r="1"/><path d="m33 58h-2a3.006 3.006 0 0 0 -2.829 2h7.658a3.006 3.006 0 0 0 -2.829-2z"/><path d="m14 58h-2a3.006 3.006 0 0 0 -2.829 2h7.658a3.006 3.006 0 0 0 -2.829-2z"/><path d="m11.6 56.041c.135-.011.264-.041.4-.041h2a4.954 4.954 0 0 1 1.442.237l3.198-10.237h-3.905z"/><circle cx="32" cy="34" r="1"/><path d="m28.618 24-1.618 3.236v.764h10v-.764l-1.618-3.236z"/><path d="m39 21v-2a1 1 0 0 0 -1-1h-12a1 1 0 0 0 -1 1v2a1 1 0 0 0 1 1h12a1 1 0 0 0 1-1zm-10 0h-2v-2h2zm8 0h-2v-2h2z"/><path d="m27.5 12a.5.5 0 0 0 -.5.5v3.5h1v-3.5a.5.5 0 0 0 -.5-.5z"/><path d="m50 56h2c.138 0 .268.03.4.041l-3.135-10.041h-3.906l3.2 10.237a4.961 4.961 0 0 1 1.441-.237z"/><path d="m36.5 12a.5.5 0 0 0 -.5.5v3.5h1v-3.5a.5.5 0 0 0 -.5-.5z"/><path d="m11 28h14v-1a1 1 0 0 1 .105-.447l1.277-2.553h-.382a3 3 0 0 1 -3-3v-2a3 3 0 0 1 2-2.816v-3.684a2.5 2.5 0 0 1 5 0v3.5h4v-3.5a2.5 2.5 0 0 1 5 0v3.684a3 3 0 0 1 2 2.816v2a3 3 0 0 1 -3 3h-.382l1.282 2.553a1 1 0 0 1 .1.447v1h14v-3a21 21 0 0 0 -42 0z"/><path d="m60 35a5.006 5.006 0 0 0 -5-5h-46a5.006 5.006 0 0 0 -5 5v3h56zm-41 2a3 3 0 1 1 3-3 3 3 0 0 1 -3 3zm13 0a3 3 0 1 1 3-3 3 3 0 0 1 -3 3zm13 0a3 3 0 1 1 3-3 3 3 0 0 1 -3 3z"/></svg>