<?xml version="1.0"?>
<svg xmlns="http://www.w3.org/2000/svg" viewBox="0 0 64 64" width="512" height="512"><g id="monster-4" data-name="monster"><path d="M32,15a7,7,0,1,0,7,7A7.008,7.008,0,0,0,32,15Zm0,9a2,2,0,1,1,2-2A2,2,0,0,1,32,24Z"/><path d="M41,43h7.894a1.082,1.082,0,0,0,1.091-.825A1,1,0,0,0,49,41H40.937a1,1,0,0,1-.994-.889,7.876,7.876,0,0,0-.9-2.9,1,1,0,0,1,.352-1.327A13.963,13.963,0,0,0,42,14.229V6.721a2,2,0,1,0-2,0v5.8a13.945,13.945,0,0,0-16,0v-5.8a2,2,0,1,0-2,0v7.508A13.963,13.963,0,0,0,24.607,35.88a1,1,0,0,1,.352,1.328A7.95,7.95,0,0,0,24,41v2a1,1,0,0,1-1,1H15.107a1.083,1.083,0,0,0-1.092.825A1,1,0,0,0,15,46h8a1,1,0,0,1,1,1v8.809a1,1,0,0,1-1.5.865A4.993,4.993,0,0,0,15.1,60H25V53a2,2,0,0,1,2-2H37a2,2,0,0,1,2,2v7h9.9a4.993,4.993,0,0,0-7.4-3.326,1,1,0,0,1-1.5-.865V44A1,1,0,0,1,41,43ZM32,31a9,9,0,1,1,9-9A9.01,9.01,0,0,1,32,31Z"/></g></svg>
