<svg height="512" viewBox="0 0 64 64" width="512" xmlns="http://www.w3.org/2000/svg"><g id="monster-7" data-name="monster"><path d="m27.1 25a5 5 0 0 0 9.8 0h-3.9v1a1 1 0 0 1 -2 0v-1z"/><path d="m32 17a9.006 9.006 0 0 0 -8.475 6h16.95a9.006 9.006 0 0 0 -8.475-6z"/><path d="m32 35a8.972 8.972 0 0 0 8.941-10h-2.021a6.991 6.991 0 0 1 -13.84 0h-2.021a8.972 8.972 0 0 0 8.941 10z"/><path d="m56 32a23.816 23.816 0 0 0 -9.6-19.2 1 1 0 0 1 -.347-.483l-2.314-6.938-2.21 3.683a1 1 0 0 1 -1.2.423 24.181 24.181 0 0 0 -16.65 0 1 1 0 0 1 -1.2-.423l-2.21-3.683-2.313 6.937a1 1 0 0 1 -.347.483 24 24 0 0 0 0 38.4 1 1 0 0 1 .4.8v6a2 2 0 0 0 4 0v-2.675a1 1 0 0 1 1.36-.933 24.11 24.11 0 0 0 17.28 0 1 1 0 0 1 1.36.933v2.676a2 2 0 0 0 4 0v-6a1 1 0 0 1 .4-.8 23.816 23.816 0 0 0 9.591-19.2zm-24-17a11 11 0 1 1 -11 11 11.013 11.013 0 0 1 11-11zm13 28h-16.463l-2.677 4.51a1 1 0 0 1 -.86.49 1 1 0 0 1 -.857-.485l-2.709-4.515h-2.434v-2h26z"/><path d="m26.211 43h-2.445l1.229 2.049z"/></g></svg>