<?xml version="1.0" encoding="iso-8859-1"?>
<!-- Generator: Adobe Illustrator 16.0.0, SVG Export Plug-In . SVG Version: 6.00 Build 0)  -->
<!DOCTYPE svg PUBLIC "-//W3C//DTD SVG 1.1//EN" "http://www.w3.org/Graphics/SVG/1.1/DTD/svg11.dtd">
<svg version="1.1" id="Capa_1" xmlns="http://www.w3.org/2000/svg" x="0px" y="0px"
     width="575.279px" height="575.279px" viewBox="0 0 575.279 575.279"
     style="enable-background:new 0 0 575.279 575.279;"
     xml:space="preserve">
<g>
	<path d="M520.2,189.72H459v-48.96h-55.08V85.68h-55.08v55.08H232.56V85.68h-55.08v55.08H122.4v48.96H61.2v61.2H0v110.16v61.2h61.2
		v-61.2v-48.96h61.2v55.08h55.08v55.08H122.4v67.32h52.65h57.509v-65.552v-56.849h116.28v56.849V489.6h57.51H459v-67.32h-55.08
		v-55.08H459v-55.08h61.2v110.16h55.079v-171.36H520.2V189.72z M238.68,281.52h-61.2v-61.2h61.2V281.52z M410.04,281.52h-61.2v-61.2
		h61.2V281.52z"/>
</g>
<g>
</g>
<g>
</g>
<g>
</g>
<g>
</g>
<g>
</g>
<g>
</g>
<g>
</g>
<g>
</g>
<g>
</g>
<g>
</g>
<g>
</g>
<g>
</g>
<g>
</g>
<g>
</g>
<g>
</g>
</svg>
