<?xml version="1.0" encoding="iso-8859-1"?>
<!-- Generator: Adobe Illustrator 18.1.1, SVG Export Plug-In . SVG Version: 6.00 Build 0)  -->
<svg version="1.1" id="Capa_1" xmlns="http://www.w3.org/2000/svg" xmlns:xlink="http://www.w3.org/1999/xlink" x="0px" y="0px"
	 viewBox="0 0 327.464 327.464" style="enable-background:new 0 0 327.464 327.464;" xml:space="preserve">
<g>
	<g>
		<path style="fill:#010002;" d="M0,160.591c4.047,5.428,16.399,13.434,41.44,20.484c9.241,2.6,19.466,4.819,30.312,6.723
			c26.619,4.672,57.409,7.212,89.734,7.212c33.14,0,64.703-2.654,91.768-7.549c10.089-1.828,19.608-3.938,28.272-6.38
			c29.104-8.191,41.081-17.682,42.778-22.904c-17.247-24.791-52.106-44.791-88.537-57.029c0.261-1.817,0.435-3.628,0.435-5.428
			c0-19.51-15.817-29.436-35.321-29.436h-71.034c-19.51,0-35.321,9.926-35.321,29.436c0,1.3,0.082,2.611,0.218,3.922
			C55.489,112.086,17.296,133.63,0,160.591z M185.608,145.895c0,12.004-9.73,21.74-21.74,21.74c-12.004,0-21.74-9.73-21.74-21.74
			c0-3.204,0.734-6.228,1.98-8.964c3.421-7.522,10.96-12.771,19.755-12.771c8.8,0,16.339,5.254,19.755,12.771
			C184.874,139.667,185.608,142.686,185.608,145.895z M244.584,128.702c7.348-7.348,21-5.608,30.497,3.889
			c9.497,9.497,11.232,23.149,3.889,30.497c-7.348,7.348-21,5.608-30.497-3.889C238.976,149.702,237.236,136.05,244.584,128.702z
			 M52.661,132.591c9.497-9.497,23.149-11.232,30.497-3.889c7.348,7.348,5.608,21-3.889,30.497
			c-9.491,9.497-23.149,11.232-30.497,3.889C41.429,155.734,43.17,142.082,52.661,132.591z"/>
		<path style="fill:#010002;" d="M161.486,205.888c-39.401,0-75.723-3.693-104.887-9.905c-24.182-5.156-43.442-12.042-55.402-20.01
			c9.437,13.81,24.362,26.14,41.995,36.496c-0.37,1.414-0.571,2.845-0.571,4.291c0,24.53,53.852,44.421,120.29,44.421
			s120.285-19.885,120.285-44.415c0-1.436-0.201-2.85-0.56-4.253c19.499-11.449,35.691-25.308,44.829-40.907
			c-10.666,9.567-31.508,17.862-58.927,23.894C239.014,202.004,201.871,205.888,161.486,205.888z"/>
	</g>
</g>
<g>
</g>
<g>
</g>
<g>
</g>
<g>
</g>
<g>
</g>
<g>
</g>
<g>
</g>
<g>
</g>
<g>
</g>
<g>
</g>
<g>
</g>
<g>
</g>
<g>
</g>
<g>
</g>
<g>
</g>
</svg>
