<?xml version="1.0" encoding="iso-8859-1"?>
<!-- Generator: Adobe Illustrator 18.1.1, SVG Export Plug-In . SVG Version: 6.00 Build 0)  -->
<svg version="1.1" id="Capa_1" xmlns="http://www.w3.org/2000/svg" x="0px" y="0px"
     viewBox="0 0 25.919 25.919" style="enable-background:new 0 0 25.919 25.919;" xml:space="preserve">
<g>
	<path style="fill:#030104;" d="M24.589,12.446c0.838-2.592,0.235-6.292-2.288-8.814c-1.822-1.822-4.263-2.645-6.454-2.645
		c-0.876,0-1.712,0.133-2.454,0.385c-3.774-1.87-7.08-1.785-8.897,0.031C3.179,2.72,2.835,4.791,3.331,7.169l-0.82,0.82
		C2.347,7.945,2.178,7.914,2,7.914c-1.105,0-2,0.895-2,2s0.895,2,2,2s2-0.895,2-2c0-0.178-0.031-0.347-0.074-0.512l0.063-0.063
		c0.867,2.228,2.364,4.589,4.393,6.78l-2.869,2.869C5.347,18.945,5.178,18.914,5,18.914c-1.105,0-2,0.895-2,2s0.895,2,2,2
		s2-0.895,2-2c0-0.178-0.031-0.347-0.074-0.512l2.869-2.868c2.187,2.029,4.545,3.529,6.772,4.399l-0.055,0.055
		c-0.165-0.043-0.334-0.074-0.512-0.074c-1.105,0-2,0.895-2,2s0.895,2,2,2s2-0.895,2-2c0-0.178-0.031-0.347-0.074-0.512l0.809-0.809
		c2.389,0.504,4.472,0.164,5.794-1.159C26.346,19.62,26.398,16.188,24.589,12.446z M20.953,4.981
		c2.641,2.64,2.498,6.757,1.117,8.138c-0.716,0.716-1.448,1.064-2.237,1.064c-1.394,0-3.159-1.029-5.106-2.977
		c-4.625-4.626-2.652-6.599-1.91-7.342c0.608-0.608,1.741-0.971,3.03-0.971C17.766,2.893,19.626,3.655,20.953,4.981z"/>
</g>
<g>
</g>
<g>
</g>
<g>
</g>
<g>
</g>
<g>
</g>
<g>
</g>
<g>
</g>
<g>
</g>
<g>
</g>
<g>
</g>
<g>
</g>
<g>
</g>
<g>
</g>
<g>
</g>
<g>
</g>
</svg>
