<?xml version="1.0" encoding="iso-8859-1"?>
<!-- Generator: Adobe Illustrator 18.0.0, SVG Export Plug-In . SVG Version: 6.00 Build 0)  -->
<!DOCTYPE svg PUBLIC "-//W3C//DTD SVG 1.1//EN" "http://www.w3.org/Graphics/SVG/1.1/DTD/svg11.dtd">
<svg version="1.1" id="Capa_1" xmlns="http://www.w3.org/2000/svg" x="0px" y="0px"
     viewBox="0 0 53 53" style="enable-background:new 0 0 53 53;" xml:space="preserve">
<g>
	<path d="M18.075,17.293c-0.391-0.391-1.023-0.391-1.414,0l-5.146,5.146c-0.391,0.391-0.391,1.023,0,1.414
		c0.195,0.195,0.451,0.293,0.707,0.293s0.512-0.098,0.707-0.293l5.146-5.146C18.466,18.316,18.466,17.684,18.075,17.293z"/>
	<path d="M19.221,21.147c-0.391-0.391-1.023-0.391-1.414,0l-3.146,3.146c-0.391,0.391-0.391,1.023,0,1.414
		C14.856,25.902,15.112,26,15.368,26s0.512-0.098,0.707-0.293l3.146-3.146C19.611,22.171,19.611,21.538,19.221,21.147z"/>
	<path d="M18.807,25.147l-1.146,1.146c-0.391,0.391-0.391,1.023,0,1.414C17.856,27.902,18.112,28,18.368,28s0.512-0.098,0.707-0.293
		l1.146-1.146c0.391-0.391,0.391-1.023,0-1.414S19.197,24.757,18.807,25.147z"/>
	<path d="M36.339,17.293c-0.391-0.391-1.023-0.391-1.414,0s-0.391,1.023,0,1.414l5.146,5.146c0.195,0.195,0.451,0.293,0.707,0.293
		s0.512-0.098,0.707-0.293c0.391-0.391,0.391-1.023,0-1.414L36.339,17.293z"/>
	<path d="M35.193,21.147c-0.391-0.391-1.023-0.391-1.414,0s-0.391,1.023,0,1.414l3.146,3.146C37.12,25.902,37.376,26,37.632,26
		s0.512-0.098,0.707-0.293c0.391-0.391,0.391-1.023,0-1.414L35.193,21.147z"/>
	<path d="M34.193,25.147c-0.391-0.391-1.023-0.391-1.414,0s-0.391,1.023,0,1.414l1.146,1.146C34.12,27.902,34.376,28,34.632,28
		s0.512-0.098,0.707-0.293c0.391-0.391,0.391-1.023,0-1.414L34.193,25.147z"/>
	<path d="M43.5,6h-9V2.306C34.5,1.034,33.466,0,32.195,0h-11.39C19.534,0,18.5,1.034,18.5,2.306V6h-9c-2.757,0-5,2.243-5,5v33
		c0,2.757,2.243,5,5,5h3v1.694c0,1.271,1.034,2.306,2.305,2.306h23.39c1.271,0,2.305-1.034,2.305-2.306V49h3c2.757,0,5-2.243,5-5V11
		C48.5,8.243,46.257,6,43.5,6z M8.63,25.317c-2.285-3.884-0.985-8.902,2.897-11.188c1.256-0.739,2.687-1.13,4.138-1.13
		c2.886,0,5.587,1.544,7.049,4.028c2.07,3.516,4.37,13.843,0.134,16.337c-0.593,0.35-1.286,0.526-2.06,0.526
		C16.447,33.892,10.363,28.262,8.63,25.317z M28.5,41h-4c-0.552,0-1-0.447-1-1s0.448-1,1-1h4c0.552,0,1,0.447,1,1S29.052,41,28.5,41
		z M44.37,25.317c-1.732,2.944-7.816,8.574-12.159,8.574c-0.774,0-1.467-0.177-2.06-0.525c-4.236-2.495-1.936-12.822,0.134-16.338
		C31.748,14.544,34.448,13,37.334,13c1.451,0,2.881,0.391,4.138,1.131C45.355,16.415,46.655,21.434,44.37,25.317z"/>
</g>
<g>
</g>
<g>
</g>
<g>
</g>
<g>
</g>
<g>
</g>
<g>
</g>
<g>
</g>
<g>
</g>
<g>
</g>
<g>
</g>
<g>
</g>
<g>
</g>
<g>
</g>
<g>
</g>
<g>
</g>
</svg>
