<svg height="512" viewBox="0 0 58 58" width="512" xmlns="http://www.w3.org/2000/svg"><g id="019---Alien" transform="translate(-1 -1)"><path id="Shape" d="m57.17 26.77c-1.259957-.378596-2.6074146.2207464-3.17 1.41-.7879996 1.6674215-2.0196221 3.0858631-3.56 4.1-.3167345.1555877-.6920246.1327187-.9875237-.0601765-.2954991-.1928953-.4674543-.5272558-.4524763-.8798235.1688398-2.363428-.1058841-4.7375855-.81-7 .94-.32.92-2 4.61-4.36.9987584 1.0680897 2.6220936 1.2604777 3.842845.4554311 1.2207513-.8050466 1.6832247-2.3729589 1.0947913-3.7116448-.5884334-1.338686-2.0563198-2.0580885-3.4748583-1.7030077s-2.3744051 1.6811839-2.262778 3.1392214c-.1046709.0172109-.2059368.0509662-.3.1-1.7124733 1.0124731-3.1914923 2.3756243-4.34 4-1.2121544-2.7136909-3.0365167-5.1096638-5.33-7 .0933975-.1106894.1616373-.240345.2-.38.3774604-1.4332532.9745311-2.799432 1.77-4.05 1.3846879.4942589 2.9235302-.0878165 3.6344696-1.37475771.7109393-1.2869412.3844536-2.89947171-.7711007-3.80850778-1.1555544-.90903607-2.7996221-.84667425-3.882993.14728743s-1.2867631 2.62659121-.4803759 3.85597806c-.9769046 1.3361215-1.6896703 2.846506-2.1 4.45-2.7988884-1.8570857-6.0454688-2.9277664-9.4-3.1 0-.1 0 0 0-4 .0048254-.05656394.0048254-.11343606 0-.17 1.3883059-.47436608 2.2298734-1.88322644 1.9894397-3.33050253-.2404338-1.44727608-1.4923281-2.50835287-2.9594397-2.50835287s-2.7190059 1.06107679-2.9594397 2.50835287c-.2404337 1.44727609.6011338 2.85613645 1.9894397 3.33050253-.0250775.05474464-.0451591.11164246-.06.17v4c-3.3532642.1541838-6.6004605 1.22275-9.39 3.09-.4145602-1.6007219-1.1306948-3.1076592-2.11-4.44.8063872-1.22938685.602995-2.86201638-.4803759-3.85597806s-2.7274386-1.0563235-3.882993-.14728743c-1.1555543.90903607-1.48204 2.52156658-.7711007 3.80850778.7109394 1.28694121 2.2497817 1.86901661 3.6344696 1.37475771-.0026078.0266029-.0026078.0533971 0 .08 1.7 2.65 1.55 3.92 2 4.42-2.3035197 1.8830494-4.1326229 4.2807504-5.34 7-1.1725915-1.6066486-2.6508585-2.9659745-4.35-4-.09406324-.0490338-.19532912-.0827891-.3-.1.11551112-1.4639333-.8456741-2.7963101-2.27131135-3.1484491-1.42563726-.3521389-2.89663813.3794768-3.47602201 1.7288314s-.0968318 2.919784 1.14028598 3.7109749c1.23711777.7911909 2.86513107.5705603 3.84704738-.5213572 3.67 2.31 3.7 4.05 4.61 4.36-.7004474 2.263189-.9750914 4.6366558-.81 7 .0361845.3798281-.1469229.7471455-.472017.9468765-.3250942.1997311-.73551258.1970635-1.057983-.0068765-1.5284335-1.0251327-2.74603156-2.4502758-3.52-4.12-.55706991-1.1729024-1.88434697-1.7665727-3.13-1.4-1.18329394.338469-1.96497546 1.4629199-1.87 2.69.66 6.94 6.07 10.59 11.57 12.17.8388116.2493172 1.4181384 1.015001 1.43 1.89v11.3c-.0417768 2.1092509 1.5165095 3.9092659 3.61 4.17 1.1266463.1103869 2.2473076-.2617853 3.0840872-1.0242268s1.3113076-1.8437449 1.3059128-2.9757732v-6.89c-.0396146-1.0154553.6637496-1.9094906 1.66-2.11.5863545-.1012177 1.1873304.0639042 1.6396536.4505053.4523232.386601.7090185.9545313.7003464 1.5494947v6.83c-.0417768 2.1092509 1.5165095 3.9092659 3.61 4.17 1.1266463.1103869 2.2473076-.2617853 3.0840872-1.0242268s1.3113076-1.8437449 1.3059128-2.9757732v-6.89c-.0396146-1.0154553.6637496-1.9094906 1.66-2.11.5863545-.1012177 1.1873304.0639042 1.6396536.4505053.4523232.386601.7090185.9545313.7003464 1.5494947v6.83c-.0417768 2.1092509 1.5165095 3.9092659 3.61 4.17 1.1266463.1103869 2.2473076-.2617853 3.0840872-1.0242268s1.3113076-1.8437449 1.3059128-2.9757732c0 0 0-8 0-11.47.0131967-.8777546.5972314-1.6443001 1.44-1.89 5.5-1.58 10.91-5.23 11.57-12.17.0955242-1.2200771-.669513-2.3426861-1.84-2.7zm-39.17 29.23c-.5522847 0-1-.4477153-1-1s.4477153-1 1-1 1 .4477153 1 1-.4477153 1-1 1zm0-9c-.5522847 0-1-.4477153-1-1s.4477153-1 1-1 1 .4477153 1 1-.4477153 1-1 1zm12 5c-.5522847 0-1-.4477153-1-1s.4477153-1 1-1 1 .4477153 1 1-.4477153 1-1 1zm4.1-19.57c-2.5592916-1.3653334-5.6307084-1.3653334-8.19 0-1.470253.812112-3.2637802.7701737-4.6944676-.1097715s-2.2771343-2.4617247-2.2155324-4.1402285c.0416315-6.0874729 4.9140045-11.0395757 11-11.18 6.1629995.0986727 11.0834883 5.1667761 11 11.33.0170138 1.6538783-.8476315 3.1917732-2.2695191 4.0366629-1.4218876.8448898-3.1860163.86902-4.6304809.0633371zm7.9 23.57c-.5522847 0-1-.4477153-1-1s.4477153-1 1-1 1 .4477153 1 1-.4477153 1-1 1zm0-9c-.5522847 0-1-.4477153-1-1s.4477153-1 1-1 1 .4477153 1 1-.4477153 1-1 1z"/><path id="Shape" d="m29.75 19c-4.8924675.2748164-8.725996 4.309879-8.75 9.21-.0840947 1.0782117.5210907 2.0921978 1.51 2.53-.0049789-.0799225-.0049789-.1600775 0-.24.0000001-4.1421356 3.3578644-7.4999998 7.5-7.4999998s7.4999999 3.3578642 7.5 7.4999998c.0049789.0799225.0049789.1600775 0 .24.0878687-.0297694.1718122-.0700622.25-.12.7806565-.4649434 1.2534949-1.3114766 1.24-2.22.0652967-2.4863889-.8833146-4.8924327-2.6278614-6.6652694-1.7445467-1.7728367-4.1350211-2.7600259-6.6221386-2.7347306z"/><path id="Shape" d="m30 25c-1.5205796.0024484-2.9725513.6331719-4.0121615 1.742847-1.0396103 1.109675-1.5744291 2.5996424-1.4778385 4.117153 1.6877798-.9165192 3.5699054-1.417048 5.49-1.46 1.882981.0225228 3.7311717.5103352 5.38 1.42.13 0 .12.14.12-.32-.0055037-3.0352835-2.4647165-5.4944963-5.5-5.5z"/></g></svg>