<svg height="512" viewBox="0 0 56 56" width="512" xmlns="http://www.w3.org/2000/svg"><g id="020---Alien"><path id="Shape" d="m8.23 27-.65-2.59c-5.66 3.1-8.26 8.23-7.42 14.65 1.56-4.29 4.01-9.65 8.07-12.06z"/><path id="Shape" d="m50 47c1.8527488.0128685 3.6621902.561605 5.21 1.58-.97-2.08-2.83-4.58-6.21-4.58-6.61 0-7.48 6-14 6-6.07 0-7.53-4.07-7.88-6h-12.12c.34 8 4.69 12 13 12 11.7 0 16.48-9 22-9z"/><path id="Shape" d="m21 10c1.6568542 0 3-1.34314575 3-3s-1.3431458-3-3-3-3 1.34314575-3 3 1.3431458 3 3 3zm0-4c.5522847 0 1 .44771525 1 1s-.4477153 1-1 1-1-.44771525-1-1 .4477153-1 1-1z"/><path id="Shape" d="m34.42 24.45-.65 2.55c4.06 2.37 6.51 7.73 8.07 12.06.84-6.38-1.76-11.51-7.42-14.61z"/><path id="Shape" d="m10.74 28.83 2.33-.46c.6829529-.1344993 1.3867133.0957625 1.8580811.6079413.4713677.5121788.642535 1.2325961.4519189 1.9020587-.9589079 3.6275615-1.4231099 7.3680874-1.38 11.12h14c.0463722-3.751459-.4144651-7.4919774-1.37-11.12-.1906161-.6694626-.0194488-1.3898799.4519189-1.9020587.4713678-.5121788 1.1751282-.7424406 1.8580811-.6079413l2.33.46 1.56-6.25-6-2.58h-11.62l-6 2.58c1.37 5.6 1.03 4.27 1.53 6.25zm6.48 1.55 4-5c.209018-.3144469.5773256-.4843547.9522027-.4392706.374877.0450842.6923976.2974724.8209007.6525109s.0460757.7521844-.2131034 1.0267597l-2.7 3.38h3.92c.3824923.001757.7304753.221544.8964082.5661738s.1207435.7537221-.1164082 1.0538262l-4 5c-.3565237.3777024-.9428527.4195872-1.349445.0963985-.4065922-.3231887-.4980777-.9038491-.210555-1.3363985l2.7-3.38h-3.92c-.3824923-.001757-.7304753-.221544-.8964082-.5661738s-.1207435-.7537221.1164082-1.0538262z"/><path id="Shape" d="m6 10c1.26825492-.00356437 2.3972517-.8042713 2.82-2h4.29c.431148 3.427395 1.291217 6.7870395 2.56 10h10.66c1.2674778-3.2133832 2.1275042-6.5728614 2.56-10h4.29c.4870363 1.37754669 1.8956662 2.2038721 3.3357331 1.95679568 1.4400668-.24707641 2.492694-1.49568678 2.492694-2.95679568s-1.0526272-2.70971927-2.492694-2.95679568c-1.4400669-.24707641-2.8486968.57924899-3.3357331 1.95679568h-4.18c0-2.42-2.54-6-8-6s-8 3.58-8 6h-4.18c-.50891078-1.43939791-2.01766392-2.2670245-3.50504098-1.92269036-1.48737706.34433415-2.47893005 1.75079228-2.30351391 3.26739562.17541613 1.51660335 1.46184662 2.65958124 2.98855489 2.65529474zm30-4c.5522847 0 1 .44771525 1 1s-.4477153 1-1 1-1-.44771525-1-1 .4477153-1 1-1zm-11.29 8.71c-1.71 1.72-5.7 1.72-7.42 0-.3921222-.3921222-.3921222-1.0278778 0-1.42s1.0278778-.3921222 1.42 0c.6534929.5036222 1.466223.755604 2.29.71.8285196.0461147 1.6456663-.2096878 2.3-.72.3948836-.3893607 1.0306392-.3848836 1.42.01.3893607.3948836.3848836 1.0306392-.01 1.42zm-3.71-12.71c2.7614237 0 5 2.23857625 5 5s-2.2385763 5-5 5-5-2.23857625-5-5 2.2385763-5 5-5zm-15 4c.55228475 0 1 .44771525 1 1s-.44771525 1-1 1-1-.44771525-1-1 .44771525-1 1-1z"/></g></svg>