<?xml version="1.0" encoding="iso-8859-1"?>
<!-- Generator: Adobe Illustrator 19.0.0, SVG Export Plug-In . SVG Version: 6.00 Build 0)  -->
<svg version="1.1" id="Layer_1" xmlns="http://www.w3.org/2000/svg" x="0px" y="0px"
     viewBox="0 0 512 512" style="enable-background:new 0 0 512 512;" xml:space="preserve">
<g>
	<g>
		<path d="M256,0C144.97,0,54.64,90.33,54.64,201.36C54.64,307.698,139.672,512,256,512c52.267,0,103.966-41.863,145.576-117.879
			c33.888-61.907,55.784-137.57,55.784-192.761C457.36,90.33,367.03,0,256,0z M190.232,321.853
			c-23.444-4.517-43.565-19.047-55.202-39.863c-11.438-20.46-13.413-44.844-5.417-66.903c6.802-18.769,25.925-29.457,45.484-25.43
			c22.979,4.743,42.718,19.197,54.157,39.654c11.637,20.817,13.477,45.565,5.047,67.904c-5.852,15.504-20.549,25.353-36.586,25.355
			C195.242,322.57,192.741,322.337,190.232,321.853z M283.54,414.983h-56.333c-8.296,0-15.022-6.726-15.022-15.022
			c0-8.296,6.726-15.022,15.022-15.022h56.333c8.296,0,15.022,6.726,15.022,15.022C298.562,408.257,291.836,414.983,283.54,414.983z
			 M376.97,281.989c-11.637,20.817-31.758,35.346-55.202,39.863c-2.507,0.483-5.012,0.717-7.485,0.717
			c-16.036,0-30.731-9.849-36.584-25.355c-8.43-22.339-6.591-47.088,5.046-67.903c11.638-20.817,31.758-35.346,55.202-39.863
			c18.78-3.617,37.316,6.742,44.07,24.637C390.447,236.425,388.608,261.174,376.97,281.989z"/>
	</g>
</g>
<g>
</g>
<g>
</g>
<g>
</g>
<g>
</g>
<g>
</g>
<g>
</g>
<g>
</g>
<g>
</g>
<g>
</g>
<g>
</g>
<g>
</g>
<g>
</g>
<g>
</g>
<g>
</g>
<g>
</g>
</svg>
