<?xml version="1.0" encoding="iso-8859-1"?>
<!-- Generator: Adobe Illustrator 19.0.0, SVG Export Plug-In . SVG Version: 6.00 Build 0)  -->
<svg version="1.1" id="Layer_1" xmlns="http://www.w3.org/2000/svg" x="0px" y="0px"
     viewBox="0 0 512 512" style="enable-background:new 0 0 512 512;" xml:space="preserve">
<g>
	<g>
		<path d="M122.435,256c0-22.026,5.364-42.822,14.847-61.156l-103.89,35.219V77.913H0v356.174h33.391V285.449l104.318,32.518
			C127.962,299.434,122.435,278.352,122.435,256z"/>
	</g>
</g>
<g>
	<g>
		<path d="M478.609,77.913v152.15l-103.89-35.219c9.483,18.334,14.847,39.13,14.847,61.156c0,22.352-5.527,43.434-15.274,61.966
			l104.318-32.518v148.638H512V77.913H478.609z"/>
	</g>
</g>
<g>
	<g>
		<path d="M256,222.609c-18.412,0-33.391,14.979-33.391,33.391c0,18.412,14.979,33.391,33.391,33.391s33.391-14.979,33.391-33.391
			C289.391,237.588,274.412,222.609,256,222.609z"/>
	</g>
</g>
<g>
	<g>
		<path d="M289.897,313.507c-9.944,5.885-21.53,9.276-33.897,9.276c-12.368,0-23.953-3.391-33.897-9.275l-24.115,24.116
			c16.381,11.675,36.408,18.55,58.012,18.55s41.631-6.875,58.012-18.551L289.897,313.507z"/>
	</g>
</g>
<g>
	<g>
		<path d="M256,155.826c-55.236,0-100.174,44.938-100.174,100.174c0,21.604,6.875,41.631,18.551,58.012l24.115-24.116
			c-5.884-9.943-9.275-21.529-9.275-33.896c0-36.824,29.959-66.783,66.783-66.783s66.783,29.959,66.783,66.783
			c0,12.367-3.391,23.953-9.275,33.897l24.115,24.116c11.676-16.382,18.551-36.409,18.551-58.013
			C356.174,200.764,311.236,155.826,256,155.826z"/>
	</g>
</g>
<g>
</g>
<g>
</g>
<g>
</g>
<g>
</g>
<g>
</g>
<g>
</g>
<g>
</g>
<g>
</g>
<g>
</g>
<g>
</g>
<g>
</g>
<g>
</g>
<g>
</g>
<g>
</g>
<g>
</g>
</svg>
