<?xml version="1.0" encoding="iso-8859-1"?>
<!-- Generator: Adobe Illustrator 19.0.0, SVG Export Plug-In . SVG Version: 6.00 Build 0)  -->
<svg version="1.1" id="Layer_1" xmlns="http://www.w3.org/2000/svg" xmlns:xlink="http://www.w3.org/1999/xlink" x="0px" y="0px"
	 viewBox="0 0 512 512" style="enable-background:new 0 0 512 512;" xml:space="preserve">
<g>
	<g>
		<path d="M367.76,270.86c19.828-0.977,43.97-5.926,59.853-22.073c31.102-31.624,18.741-94.217,18.741-94.217
			s-52.201-9.407-84.989,12.907c-17.054-30.703-47.131-53.155-82.775-59.919V84.295c13.5-7.813,22.588-22.399,22.588-39.118
			C301.177,20.226,280.95,0,256.001,0s-45.176,20.226-45.176,45.176c0,16.72,9.089,31.306,22.588,39.118v23.263
			c-35.644,6.764-65.721,29.216-82.777,59.919c-32.786-22.314-84.989-12.907-84.989-12.907s-12.362,62.595,18.741,94.217
			c15.883,16.148,40.025,21.096,59.853,22.073c7.608,18.882,19.834,35.405,35.316,48.131
			c-17.938,18.899-28.967,44.424-28.967,72.538v75.294h-30.118V512H391.53v-45.176h-30.118v-75.294
			c0-28.115-11.029-53.64-28.969-72.538C347.926,306.265,360.152,289.742,367.76,270.86z M286.118,286.118
			c0,16.632-13.484,30.118-30.118,30.118c-16.632,0-30.118-13.485-30.118-30.118H286.118z M256.001,150.588
			c12.475,0,22.588,10.113,22.588,22.588s-10.114,22.588-22.588,22.588c-12.475,0-22.588-10.114-22.588-22.588
			S243.526,150.588,256.001,150.588z M180.707,233.412c0-12.475,10.114-22.588,22.588-22.588s22.588,10.114,22.588,22.588
			c0,12.475-10.114,22.588-22.588,22.588S180.707,245.886,180.707,233.412z M316.236,421.647H195.765v-45.177h120.471V421.647z
			 M308.707,256c-12.475,0-22.588-10.114-22.588-22.588c0-12.475,10.113-22.588,22.588-22.588s22.588,10.114,22.588,22.588
			C331.295,245.886,321.181,256,308.707,256z"/>
	</g>
</g>
<g>
</g>
<g>
</g>
<g>
</g>
<g>
</g>
<g>
</g>
<g>
</g>
<g>
</g>
<g>
</g>
<g>
</g>
<g>
</g>
<g>
</g>
<g>
</g>
<g>
</g>
<g>
</g>
<g>
</g>
</svg>
