<?xml version="1.0" encoding="iso-8859-1"?>
<!-- Generator: Adobe Illustrator 19.0.0, SVG Export Plug-In . SVG Version: 6.00 Build 0)  -->
<svg version="1.1" id="Layer_1" xmlns="http://www.w3.org/2000/svg" xmlns:xlink="http://www.w3.org/1999/xlink" x="0px" y="0px"
	 viewBox="0 0 512.001 512.001" style="enable-background:new 0 0 512.001 512.001;" xml:space="preserve">
<g>
	<g>
		<g>
			<path d="M255.992,128.001c-17.664,0-32,14.336-32,32s14.315,32,32,32s32-14.336,32-32S273.656,128.001,255.992,128.001z"/>
			<path d="M470.989,415.254c-8.299-13.909-12.331-26.667-12.331-39.04V209.238c0-110.229-83.115-201.941-189.205-208.811
				C151.97-7.125,53.325,86.443,53.325,202.646v173.653c0,12.309-4.032,25.045-12.331,38.955
				c-9.088,15.253-11.392,33.365-6.443,51.029c5.952,21.184,23.68,38.336,45.163,43.691c5.397,1.344,10.88,2.027,16.299,2.027
				c17.621,0,34.027-7.019,46.229-19.733c3.968-4.096,10.688-3.477,15.168,1.003c24.256,24.235,66.453,24.171,90.624-0.107
				c4.565-4.587,11.349-4.629,15.957,0c24.171,24.256,66.389,24.299,90.624,0.085c4.459-4.48,11.221-5.099,15.168-1.003
				c12.181,12.736,28.587,19.733,46.229,19.733c5.397,0,10.88-0.683,16.277-2.027c21.504-5.333,39.253-22.507,45.184-43.691
				C482.381,448.662,480.098,430.529,470.989,415.254z M255.992,234.667c-52.928,0-96-33.493-96-74.667s43.072-74.667,96-74.667
				s96,33.493,96,74.667S308.92,234.667,255.992,234.667z"/>
		</g>
	</g>
</g>
<g>
</g>
<g>
</g>
<g>
</g>
<g>
</g>
<g>
</g>
<g>
</g>
<g>
</g>
<g>
</g>
<g>
</g>
<g>
</g>
<g>
</g>
<g>
</g>
<g>
</g>
<g>
</g>
<g>
</g>
</svg>
