<svg height="471pt" viewBox="-27 0 471 471.904" width="471pt" xmlns="http://www.w3.org/2000/svg"><path d="m352.453125 15.902344h16v16h-16zm0 0"/><path d="m143.460938 31.816406 24.351562 48.695313 29.167969-48.609375h139.472656v-16h-148.527344l-18.832031 31.394531-23.648438-47.296875-21.273437 31.902344h-59.71875v16h68.277344zm0 0"/><path d="m208.453125 135.902344c-72.289063 0-131.417969 56.738281-135.59375 128h271.191406c-4.183593-71.253906-63.3125-128-135.597656-128zm14.871094 33.058594c-4.921875-.703126-9.929688-1.058594-14.871094-1.058594v-16c5.695313 0 11.460937.410156 17.125 1.210937zm74.289062 49.359374c-13.457031-22.328124-34.5625-38.703124-59.441406-46.113281l4.558594-15.328125c28.714843 8.535156 53.066406 27.433594 68.578125 53.183594zm0 0"/><path d="m70.691406 86.238281-44.3125-27.695312 21.816406 49.089843c5.34375-9.074218 13.128907-16.519531 22.496094-21.394531zm0 0"/><path d="m16.453125 39.902344c0 4.421875-3.582031 8-8 8s-8-3.578125-8-8c0-4.417969 3.582031-8 8-8s8 3.582031 8 8zm0 0"/><path d="m.453125 279.902344h416.007813v16h-416.007813zm0 0"/><path d="m416.453125 39.902344c0 4.421875-3.582031 8-8 8s-8-3.578125-8-8c0-4.417969 3.582031-8 8-8s8 3.582031 8 8zm0 0"/><path d="m376.042969 263.902344c-4.214844-88.902344-77.664063-160-167.589844-160-89.929687 0-163.378906 71.097656-167.59375 160h16c4.199219-80.085938 70.480469-144 151.59375-144 81.109375 0 147.390625 63.914062 151.589844 144zm0 0"/><path d="m368.707031 107.632812 21.816407-49.089843-44.3125 27.695312c9.367187 4.875 17.152343 12.320313 22.496093 21.394531zm0 0"/><path d="m353.285156 158.617188c4.628906-6.617188 7.167969-14.425782 7.167969-22.714844 0-22.054688-17.945313-40-40-40-10.953125 0-21.105469 4.441406-28.539063 12.105468 23.96875 12.257813 44.898438 29.59375 61.371094 50.609376zm0 0"/><path d="m124.988281 108.007812c-7.441406-7.664062-17.585937-12.105468-28.535156-12.105468-22.058594 0-40 17.945312-40 40 0 8.289062 2.535156 16.097656 7.167969 22.714844 16.472656-21.007813 37.398437-38.351563 61.367187-50.609376zm0 0"/><path d="m44.050781 354.710938c1.167969 3.113281 4.167969 5.191406 7.488281 5.191406h313.832032c3.3125 0 6.320312-2.085938 7.488281-5.183594l16.054687-42.816406h-360.917968zm300.402344-26.808594h16v16h-16zm-48 0h16v16h-16zm-48 0h16v16h-16zm-48 0h16v16h-16zm-48 0h16v16h-16zm-48 0h16v16h-16zm-48 0h16v16h-16zm0 0"/><path d="m88.453125 391.902344h240c8.824219 0 16-7.175782 16-16h-272c0 8.824218 7.175781 16 16 16zm0 0"/><path d="m184.453125 407.902344h16v32h-16zm0 0"/><path d="m184.453125 455.902344h16v16h-16zm0 0"/><path d="m152.453125 407.902344h16v64h-16zm0 0"/><path d="m120.453125 407.902344h16v48h-16zm0 0"/><path d="m88.453125 407.902344h16v32h-16zm0 0"/><path d="m88.453125 455.902344h16v16h-16zm0 0"/><path d="m312.453125 407.902344h16v48h-16zm0 0"/><path d="m280.453125 407.902344h16v32h-16zm0 0"/><path d="m280.453125 455.902344h16v16h-16zm0 0"/><path d="m248.453125 407.902344h16v64h-16zm0 0"/><path d="m216.453125 407.902344h16v48h-16zm0 0"/></svg>