<?xml version="1.0" encoding="iso-8859-1"?>
<!-- Generator: Adobe Illustrator 19.0.0, SVG Export Plug-In . SVG Version: 6.00 Build 0)  -->
<svg version="1.1" id="Layer_1" xmlns="http://www.w3.org/2000/svg" x="0px" y="0px"
     viewBox="0 0 512 512" style="enable-background:new 0 0 512 512;" xml:space="preserve">
<g>
	<g>
		<path d="M194.028,192.492c-8.704-14.059-24.384-21.888-40.533-21.888c-8.235,0-16.555,2.027-24.171,6.293
			c-10.837,6.059-18.411,15.68-21.376,27.093c-2.795,10.837-1.024,22.101,4.949,31.765c19.136,30.976,78.549,70.4,93.483,62.101
			c1.429-0.787,3.498-3.731,4.992-9.513C218.432,261.058,205.719,211.394,194.028,192.492z"/>
	</g>
</g>
<g>
	<g>
		<path d="M404.039,204.002c-2.965-11.437-10.538-21.058-21.376-27.095c-7.595-4.267-15.936-6.293-24.171-6.293
			c-16.149,0-31.829,7.808-40.512,21.867c-11.712,18.901-24.427,68.565-17.365,95.872c1.515,5.781,3.563,8.725,5.013,9.515
			c14.955,8.363,74.325-31.125,93.483-62.101C405.083,226.103,406.833,214.818,404.039,204.002z"/>
	</g>
</g>
<g>
	<g>
		<path d="M428.716,64h-87.381V49.173C341.333,22.059,319.276,0,292.14,0h-72.299c-27.115,0-49.173,22.059-49.173,49.173V64H83.286
			c-34.155,0-61.952,27.307-61.952,60.864v326.251C21.333,484.672,49.13,512,83.286,512h345.429
			c34.155,0,61.952-27.328,61.952-60.885V124.864C490.667,91.307,462.87,64,428.716,64z M219.841,42.666h72.299
			c3.605,0,6.528,2.901,6.528,6.507V64h-85.333V49.173h-0.001C213.333,45.568,216.256,42.666,219.841,42.666z M76.609,258.219
			c-12.181-19.669-15.701-42.709-9.941-64.917c5.888-22.784,20.736-41.856,41.835-53.653c42.176-23.595,96.811-9.984,121.813,30.379
			c16.405,26.539,32.875,88.448,22.379,129.003c-5.461,21.077-16.875,31.253-25.493,36.075c-7.744,4.352-16.235,6.229-25.109,6.229
			C153.388,341.333,92.716,284.245,76.609,258.219z M298.667,426.667h-85.333c-11.797,0-21.333-9.557-21.333-21.333
			c0-11.797,9.536-21.333,21.333-21.333h85.333c11.797,0,21.333,9.536,21.333,21.333C320,417.109,310.464,426.667,298.667,426.667z
			 M435.393,258.219c-16.107,26.027-76.8,83.115-125.504,83.115c-8.875,0-17.344-1.877-25.109-6.229
			c-8.597-4.821-20.011-14.997-25.472-36.075c-10.496-40.555,5.952-102.464,22.379-129.003
			c24.981-40.363,79.637-53.973,121.813-30.379c21.077,11.797,35.925,30.869,41.835,53.653
			C451.073,215.509,447.552,238.549,435.393,258.219z"/>
	</g>
</g>
<g>
</g>
<g>
</g>
<g>
</g>
<g>
</g>
<g>
</g>
<g>
</g>
<g>
</g>
<g>
</g>
<g>
</g>
<g>
</g>
<g>
</g>
<g>
</g>
<g>
</g>
<g>
</g>
<g>
</g>
</svg>
