<?xml version="1.0" encoding="iso-8859-1"?>
<!-- Generator: Adobe Illustrator 19.0.0, SVG Export Plug-In . SVG Version: 6.00 Build 0)  -->
<svg version="1.1" id="Layer_1" xmlns="http://www.w3.org/2000/svg" x="0px" y="0px"
     viewBox="0 0 512.079 512.079" style="enable-background:new 0 0 512.079 512.079;" xml:space="preserve">
<g>
	<g>
		<g>
			<path d="M510.333,67.39c-0.428-4.348-4.079-7.667-8.448-7.679c-67.755,0-99.669,36.267-111.445,54.612
				c-5.035-7.935-10.411-15.786-16.383-23.722c-0.598-0.683-1.11-1.365-1.707-2.048c-0.286-0.672-0.659-1.303-1.109-1.878
				c-6.586-8.315-13.622-16.262-21.077-23.807C295.72,8.511,237.181,2.453,181.544,45.717c-6.315,5.035-12.544,10.581-19.029,16.896
				c-6.992,7.01-13.574,14.418-19.713,22.187c-0.461,0.363-0.864,0.795-1.194,1.28c-1.025,1.365-2.133,2.73-3.415,4.352l-1.45,1.963
				c-1.792,2.389-3.584,4.779-5.206,7.168c-3.668,5.035-6.995,10.155-9.898,14.762C105.915,90.482,82.039,73.19,54.482,65.685
				c-14.397-4.121-29.315-6.133-44.289-5.973c-4.369,0.012-8.02,3.331-8.448,7.679c-0.682,6.4-15.359,157.014,54.102,245.675
				c0.939,100.438,90.368,181.846,200.192,181.846c10.136,0.026,20.261-0.687,30.293-2.133
				c95.488-13.313,169.045-88.661,169.899-179.713C525.693,224.405,511.016,73.79,510.333,67.39z M106.963,138.987
				c-4.011,7.253-7.681,14.591-11.009,21.589c-1.365,2.73-2.56,5.546-3.754,8.277c-5.954-11.537-11.281-23.387-15.958-35.499
				c-8.936-20.776-22.406-39.29-39.423-54.187c4.269,0.762,8.487,1.788,12.629,3.072c20.505,5.549,38.782,17.327,52.308,33.707
				c3.883,4.641,7.18,9.742,9.815,15.189C110.035,133.781,108.413,136.341,106.963,138.987z M373.032,207.253
				c3.328,3.353,3.328,8.763,0,12.117c-3.365,3.3-8.752,3.3-12.117,0c-4.238-4.341-9.32-7.768-14.934-10.069
				c-11.688-4.865-24.834-4.865-36.523,0c-5.591,2.343-10.665,5.765-14.933,10.069c-3.315,3.323-8.696,3.329-12.018,0.014
				c-0.005-0.005-0.009-0.009-0.014-0.014c-3.328-3.353-3.328-8.763,0-12.117c5.822-5.863,12.756-10.505,20.395-13.654
				c15.898-6.742,33.852-6.742,49.75,0C360.265,196.769,367.195,201.408,373.032,207.253z M337.875,131.306L337.875,131.306
				c6.328,1.513,12.395,3.957,18.005,7.253c4.053,2.404,5.391,7.638,2.987,11.691c-1.537,2.592-4.326,4.181-7.339,4.181
				c-1.528-0.024-3.026-0.435-4.352-1.195c-4.168-2.46-8.685-4.273-13.397-5.376c-11.31-2.645-23.078-2.645-34.389,0
				c-4.703,1.134-9.216,2.945-13.398,5.376c-4.053,2.404-9.287,1.066-11.691-2.987s-1.066-9.287,2.987-11.691
				c5.624-3.267,11.688-5.709,18.005-7.253C309.292,127.978,323.876,127.978,337.875,131.306z M215.933,77.973L215.933,77.973
				c5.62-3.253,11.686-5.668,18.004-7.168c13.989-3.415,28.594-3.415,42.583,0c6.314,1.516,12.377,3.93,18.005,7.168
				c4.053,2.405,5.389,7.64,2.984,11.693c-1.537,2.59-4.325,4.178-7.336,4.179c-1.534,0.017-3.042-0.397-4.352-1.195
				c-4.204-2.366-8.712-4.147-13.398-5.291c-11.3-2.731-23.088-2.731-34.389,0c-4.718,1.129-9.256,2.91-13.483,5.291
				c-4.053,2.38-9.268,1.024-11.648-3.029C210.524,85.568,211.88,80.353,215.933,77.973z M152.275,143.679
				c0.564-2.166,1.98-4.012,3.925-5.12c5.609-3.296,11.677-5.74,18.004-7.253c13.999-3.328,28.583-3.328,42.582,0
				c6.318,1.544,12.381,3.987,18.005,7.253c4.035,2.417,5.369,7.635,2.987,11.691c-1.554,2.573-4.332,4.156-7.339,4.181
				c-1.528-0.023-3.026-0.435-4.352-1.195c-4.182-2.431-8.695-4.242-13.398-5.376c-11.31-2.645-23.078-2.645-34.389,0
				c-4.712,1.103-9.229,2.916-13.397,5.376c-1.326,0.76-2.824,1.171-4.352,1.195c-3.006-0.025-5.785-1.608-7.34-4.181
				C152.069,148.261,151.734,145.909,152.275,143.679z M139.048,207.253c5.837-5.844,12.766-10.484,20.394-13.654
				c3.94-1.635,8.026-2.892,12.204-3.754c12.636-2.571,25.753-1.262,37.632,3.754c7.601,3.172,14.503,7.812,20.309,13.654
				c3.328,3.353,3.328,8.763,0,12.117c-1.623,1.578-3.795,2.465-6.059,2.475c-2.238-0.01-4.383-0.899-5.973-2.475
				c-4.268-4.304-9.342-7.726-14.933-10.069c-11.688-4.865-24.834-4.865-36.523,0c-5.613,2.301-10.696,5.728-14.933,10.069
				c-1.614,1.592-3.792,2.481-6.059,2.475c-4.713,0.027-8.555-3.771-8.583-8.484C136.51,211.068,137.42,208.867,139.048,207.253z
				 M128.04,298.645c0-32.99,26.744-59.733,59.733-59.733s59.733,26.744,59.733,59.733s-26.744,59.733-59.733,59.733
				c-2.025,0.016-4.049-0.098-6.059-0.341C151.253,354.906,128.081,329.266,128.04,298.645z M288.211,449.342
				c-1.608,1.982-4.018,3.141-6.571,3.158c-1.988-0.029-3.91-0.719-5.461-1.963c-11.987-8.79-28.29-8.79-40.277,0
				c-3.683,2.98-9.083,2.41-12.063-1.273c-2.937-3.631-2.43-8.944,1.14-11.954c18.266-14.222,43.857-14.222,62.123,0
				C290.69,440.348,291.184,445.701,288.211,449.342z M339.923,431.338c-1.567,2.388-4.227,3.83-7.083,3.84
				c-1.678,0.02-3.319-0.488-4.693-1.451c-3.901-2.542-5.004-7.765-2.462-11.666c0.024-0.037,0.048-0.073,0.073-0.11
				c1.314-2.005,2.457-4.117,3.415-6.315c-7.103-3.165-14.434-5.789-21.932-7.851c-16.589-4.441-33.685-6.707-50.859-6.741h-0.683
				c-17.173,0.034-34.269,2.3-50.859,6.741c-7.521,2.075-14.879,4.699-22.017,7.85c1.023,2.181,2.193,4.291,3.5,6.315
				c2.602,3.861,1.582,9.101-2.28,11.703c-0.036,0.025-0.073,0.049-0.11,0.073c-1.374,0.963-3.016,1.471-4.694,1.451
				c-2.856-0.01-5.516-1.452-7.083-3.84c-16.554-24.832-6.57-45.739,1.025-53.419c3.323-3.346,8.729-3.365,12.075-0.043
				c3.346,3.323,3.365,8.729,0.043,12.075c-1.997,2.326-3.454,5.066-4.267,8.022c6.287-2.586,12.728-4.78,19.285-6.571
				c8.818-2.479,17.801-4.332,26.88-5.547c19.149-2.475,38.536-2.475,57.685,0c9.079,1.214,18.062,3.068,26.88,5.547
				c6.526,1.804,12.937,3.998,19.2,6.571c-0.721-2.949-2.157-5.675-4.181-7.936c-3.346-3.346-3.346-8.771,0-12.117
				s8.771-3.346,12.117,0C346.493,385.599,356.477,406.506,339.923,431.338z M324.306,358.378c-32.99,0-59.733-26.744-59.733-59.733
				s26.744-59.733,59.733-59.733s59.733,26.744,59.733,59.733C384.004,331.619,357.281,358.342,324.306,358.378z M435.838,133.354
				c-4.698,12.13-10.025,24.008-15.958,35.584c-4.437-9.899-9.301-19.798-14.933-30.208c-1.365-2.56-2.901-5.121-4.352-7.765
				c1.707-3.755,20.31-41.899,74.667-51.797C458.244,94.064,444.774,112.578,435.838,133.354z"/>
			<path d="M324.306,290.111c-4.713,0-8.533,3.82-8.533,8.533s3.82,8.533,8.533,8.533s8.533-3.82,8.533-8.533
				C332.826,293.937,329.014,290.125,324.306,290.111z"/>
			<path d="M230.44,298.645c0-23.564-19.103-42.667-42.667-42.667s-42.667,19.103-42.667,42.667s19.103,42.667,42.667,42.667
				S230.44,322.209,230.44,298.645z M187.773,273.045c14.138,0,25.6,11.461,25.6,25.6c-0.042,14.121-11.479,25.558-25.6,25.6
				c-14.121-0.041-25.559-11.479-25.6-25.6C162.173,284.506,173.635,273.045,187.773,273.045z"/>
			<path d="M324.306,255.978c-23.564,0-42.667,19.103-42.667,42.667s19.102,42.667,42.667,42.667
				c23.564,0,42.667-19.103,42.667-42.667C366.965,275.084,347.867,255.986,324.306,255.978z M324.306,324.245
				c-14.138,0-25.6-11.462-25.6-25.6s11.462-25.6,25.6-25.6c14.138,0,25.6,11.461,25.6,25.6
				C349.865,312.766,338.428,324.203,324.306,324.245z"/>
			<circle cx="187.773" cy="298.645" r="8.533"/>
		</g>
	</g>
</g>
<g>
</g>
<g>
</g>
<g>
</g>
<g>
</g>
<g>
</g>
<g>
</g>
<g>
</g>
<g>
</g>
<g>
</g>
<g>
</g>
<g>
</g>
<g>
</g>
<g>
</g>
<g>
</g>
<g>
</g>
</svg>
