<?xml version="1.0" encoding="UTF-8"?>

<svg version="1.2" baseProfile="tiny" width="210mm" height="297mm" viewBox="0 0 21000 29700"
     preserveAspectRatio="xMidYMid" fill-rule="evenodd" clip-path="url(#presentation_clip_path)" stroke-width="28.222"
     stroke-linejoin="round" xmlns="http://www.w3.org/2000/svg" xmlns:ooo="http://xml.openoffice.org/svg/export"
     xml:space="preserve">
 <defs class="ClipPathGroup">
  <clipPath id="presentation_clip_path" clipPathUnits="userSpaceOnUse">
   <rect x="0" y="0" width="21000" height="29700"/>
  </clipPath>
 </defs>
 <defs class="TextShapeIndex">
  <g ooo:slide="id1" ooo:id-list="id3"/>
 </defs>
 <defs class="EmbeddedBulletChars">
  <g id="bullet-char-template(57356)" transform="scale(0.00048828125,-0.00048828125)">
   <path d="M 580,1141 L 1163,571 580,0 -4,571 580,1141 Z"/>
  </g>
  <g id="bullet-char-template(57354)" transform="scale(0.00048828125,-0.00048828125)">
   <path d="M 8,1128 L 1137,1128 1137,0 8,0 8,1128 Z"/>
  </g>
  <g id="bullet-char-template(10146)" transform="scale(0.00048828125,-0.00048828125)">
   <path d="M 174,0 L 602,739 174,1481 1456,739 174,0 Z M 1358,739 L 309,1346 659,739 1358,739 Z"/>
  </g>
  <g id="bullet-char-template(10132)" transform="scale(0.00048828125,-0.00048828125)">
   <path d="M 2015,739 L 1276,0 717,0 1260,543 174,543 174,936 1260,936 717,1481 1274,1481 2015,739 Z"/>
  </g>
  <g id="bullet-char-template(10007)" transform="scale(0.00048828125,-0.00048828125)">
   <path d="M 0,-2 C -7,14 -16,27 -25,37 L 356,567 C 262,823 215,952 215,954 215,979 228,992 255,992 264,992 276,990 289,987 310,991 331,999 354,1012 L 381,999 492,748 772,1049 836,1024 860,1049 C 881,1039 901,1025 922,1006 886,937 835,863 770,784 769,783 710,716 594,584 L 774,223 C 774,196 753,168 711,139 L 727,119 C 717,90 699,76 672,76 641,76 570,178 457,381 L 164,-76 C 142,-110 111,-127 72,-127 30,-127 9,-110 8,-76 1,-67 -2,-52 -2,-32 -2,-23 -1,-13 0,-2 Z"/>
  </g>
  <g id="bullet-char-template(10004)" transform="scale(0.00048828125,-0.00048828125)">
   <path d="M 285,-33 C 182,-33 111,30 74,156 52,228 41,333 41,471 41,549 55,616 82,672 116,743 169,778 240,778 293,778 328,747 346,684 L 369,508 C 377,444 397,411 428,410 L 1163,1116 C 1174,1127 1196,1133 1229,1133 1271,1133 1292,1118 1292,1087 L 1292,965 C 1292,929 1282,901 1262,881 L 442,47 C 390,-6 338,-33 285,-33 Z"/>
  </g>
  <g id="bullet-char-template(9679)" transform="scale(0.00048828125,-0.00048828125)">
   <path d="M 813,0 C 632,0 489,54 383,161 276,268 223,411 223,592 223,773 276,916 383,1023 489,1130 632,1184 813,1184 992,1184 1136,1130 1245,1023 1353,916 1407,772 1407,592 1407,412 1353,268 1245,161 1136,54 992,0 813,0 Z"/>
  </g>
  <g id="bullet-char-template(8226)" transform="scale(0.00048828125,-0.00048828125)">
   <path d="M 346,457 C 273,457 209,483 155,535 101,586 74,649 74,723 74,796 101,859 155,911 209,963 273,989 346,989 419,989 480,963 531,910 582,859 608,796 608,723 608,648 583,586 532,535 482,483 420,457 346,457 Z"/>
  </g>
  <g id="bullet-char-template(8211)" transform="scale(0.00048828125,-0.00048828125)">
   <path d="M -4,459 L 1135,459 1135,606 -4,606 -4,459 Z"/>
  </g>
 </defs>
 <defs class="TextEmbeddedBitmaps"/>
 <g>
  <g id="id2" class="Master_Slide">
   <g id="bg-id2" class="Background"/>
   <g id="bo-id2" class="BackgroundObjects"/>
  </g>
 </g>
 <g class="SlideGroup">
  <g>
   <g id="id1" class="Slide" clip-path="url(#presentation_clip_path)">
    <g class="Page">
     <g class="Graphic">
      <g id="id3">
       <path fill="rgb(0,0,0)" stroke="none" d="M 9546,11917 L 10004,11428 10067,11636 9754,11959 9546,11917 9546,11917 Z"/>
       <path fill="rgb(0,0,0)" stroke="none" d="M 8692,10813 L 8692,10813 C 9400,10386 10754,11396 11723,13011 12692,14615 12952,16292 12244,16719 11629,17094 10525,16375 9619,15136 9702,15136 9702,15136 9702,15136 10598,16355 11650,17000 12213,16667 12859,16271 12650,14667 11671,13042 10692,11417 9369,10469 8723,10865 8077,11250 8286,12865 9265,14490 9390,14709 9525,14907 9671,15105 9588,15094 9588,15094 9588,15094 9452,14917 9327,14719 9213,14521 8244,12907 7984,11240 8692,10813 Z"/>
       <path fill="rgb(0,0,0)" stroke="none" d="M 8817,14980 L 8817,14980 C 8817,13657 8817,13657 8817,13657 9046,14157 9338,14657 9671,15105 9379,15073 9088,15032 8817,14980 Z M 10952,15448 L 10952,15448 C 9994,15448 9994,15448 9994,15448 9911,15355 9827,15250 9744,15146 10223,15178 10723,15178 11213,15125 11119,15240 11036,15344 10952,15448 Z M 11234,15084 L 11234,15084 C 10734,15146 10213,15146 9713,15105 9359,14636 9056,14105 8817,13573 8817,13511 8817,13511 8817,13511 8827,13480 8827,13480 8827,13480 8879,13115 9202,12698 9702,12438 9734,12428 9754,12407 9786,12396 8213,12552 7067,13157 7077,13823 7088,14334 7786,14792 8817,15021 9098,15073 9400,15115 9702,15146 9775,15250 9859,15355 9942,15448 9067,15448 9067,15448 9067,15448 8921,15334 8921,15334 8921,15334 8588,15334 8588,15334 8588,15334 8588,15105 8588,15105 8588,15105 8817,15105 8817,15105 8817,15105 8817,15084 8817,15084 8817,15084 7765,14855 7025,14386 7015,13823 7004,13063 8306,12438 9973,12313 10015,12303 10046,12292 10088,12282 9796,12000 9796,12000 9796,12000 10109,11667 10109,11667 10109,11667 10650,12198 10650,12198 10650,12198 10671,12198 10671,12198 10671,12198 10775,12198 10869,12240 10931,12303 12588,12375 13900,12948 13911,13709 13921,14261 13223,14750 12181,15011 12181,15448 12181,15448 12181,15448 10994,15448 10994,15448 10994,15448 11088,15344 11171,15240 11254,15115 11577,15084 11890,15021 12192,14948 12223,14938 12254,14938 12286,14928 13244,14657 13859,14198 13848,13709 13838,13021 12619,12448 10984,12365 11015,12407 11036,12448 11046,12500 11296,12771 11296,12771 11296,12771 11202,12907 11202,12907 11202,12907 10952,12834 10952,12834 10952,12834 10921,12865 10890,12896 10848,12917 10786,13209 10786,13209 10786,13209 10619,13209 10619,13209 10619,13209 10536,12938 10536,12938 10536,12938 10442,12896 10369,12823 10327,12740 10098,12844 10015,13011 9994,13219 10004,13250 10004,13250 10004,13250 10025,13344 10025,13344 10025,13344 11327,13344 11327,13344 11327,13344 11369,13344 11400,13375 11400,13417 11400,13532 11400,13532 11400,13532 11400,13573 11369,13605 11327,13605 10109,13605 10109,13605 10109,13605 10484,14813 10484,14813 10484,14813 11431,14813 11431,14813 11431,14813 11369,14907 11306,15000 11234,15084 Z M 12181,14813 L 12181,14813 C 12181,14917 12181,14917 12181,14917 11900,14990 11598,15042 11286,15084 11348,14990 11411,14907 11473,14813 12181,14813 12181,14813 12181,14813 Z"/>
       <path fill="rgb(0,0,0)" stroke="none" d="M 9911,12115 L 9911,12115 C 9817,12230 9723,12355 9629,12480 9588,12500 9536,12532 9494,12563 9619,12386 9744,12219 9869,12063 9911,12115 9911,12115 9911,12115 Z M 8723,16667 L 8723,16667 C 9286,17000 10348,16344 11254,15115 11338,15105 11338,15105 11338,15105 10421,16365 9306,17094 8692,16719 8088,16355 8181,15094 8817,13730 8817,13886 8817,13886 8817,13886 8234,15188 8181,16344 8723,16667 Z M 12244,10813 L 12244,10813 C 12952,11240 12692,12907 11723,14521 11609,14709 11484,14896 11359,15073 11275,15084 11275,15084 11275,15084 11411,14896 11546,14698 11671,14490 12650,12865 12859,11250 12213,10865 11754,10584 10973,10969 10213,11771 10171,11730 10171,11730 10171,11730 10942,10917 11744,10511 12244,10813 Z"/>
       <path fill="rgb(0,0,0)" stroke="none" d="M 8515,16709 L 8515,16709 C 8515,16584 8619,16480 8744,16480 8869,16480 8973,16584 8973,16709 8973,16834 8869,16938 8744,16938 8619,16938 8515,16834 8515,16709 Z"/>
       <path fill="rgb(0,0,0)" stroke="none" d="M 8213,12646 L 8213,12646 C 8213,12521 8317,12417 8442,12417 8567,12417 8661,12521 8661,12646 8661,12771 8567,12875 8442,12875 8317,12875 8213,12771 8213,12646 Z"/>
       <path fill="rgb(0,0,0)" stroke="none" d="M 11838,13782 L 11838,13782 C 11838,13657 11931,13553 12056,13553 12181,13553 12286,13657 12286,13782 12286,13907 12181,14011 12056,14011 11931,14011 11838,13907 11838,13782 Z"/>
       <path fill="rgb(255,255,255)" stroke="none" d="M 9973,14094 L 9973,14094 C 10036,14230 10004,14396 9911,14500 9817,14605 9671,14636 9536,14605 9400,14573 9286,14448 9265,14313 9244,14167 9306,14032 9421,13948 9525,13865 9702,13855 9817,13928 9890,13969 9942,14032 9973,14094 Z"/>
       <path fill="rgb(0,0,0)" stroke="none" d="M 9452,14011 L 9452,14011 C 9452,14011 9452,14011 9452,14011 9473,14042 9473,14042 9473,14042 9484,14032 9473,14021 9473,14011 9473,14011 9473,14011 9473,14011 9494,14011 9494,14011 9494,14011 9494,14021 9494,14032 9504,14032 9504,14021 9504,14021 9504,14011 9546,14011 9546,14011 9546,14011 9546,14052 9536,14084 9525,14125 9525,14146 9536,14167 9546,14188 9536,14209 9567,14219 9567,14240 9567,14250 9577,14240 9588,14240 9588,14240 9598,14250 9598,14240 9609,14240 9609,14230 9609,14219 9598,14209 9588,14198 9577,14188 9588,14188 9598,14188 9609,14188 9609,14188 9609,14188 9609,14188 9598,14177 9588,14177 9577,14167 9588,14167 9598,14167 9598,14167 9629,14177 9661,14188 9671,14219 9681,14230 9681,14240 9681,14240 9692,14240 9702,14250 9713,14240 9744,14209 9734,14167 9754,14136 9744,14094 9744,14052 9744,14011 9786,14011 9786,14011 9786,14011 9786,14011 9786,14011 9786,14011 9786,14011 9786,14011 9786,14011 9806,14011 9806,14011 9806,14011 9806,14021 9806,14032 9796,14032 9796,14042 9796,14042 9806,14042 9806,14032 9817,14021 9827,14011 9848,14011 9848,14011 9848,14011 9848,14021 9848,14032 9838,14032 9827,14042 9827,14052 9827,14063 9827,14063 9827,14063 9827,14063 9838,14042 9859,14032 9879,14021 9890,14032 9879,14032 9879,14042 9869,14042 9879,14052 9869,14063 9859,14073 9848,14084 9838,14094 9848,14084 9859,14073 9869,14073 9879,14063 9900,14063 9911,14063 9921,14073 9900,14073 9900,14084 9890,14084 9879,14094 9879,14105 9890,14094 9911,14084 9931,14094 9921,14105 9911,14105 9911,14115 9911,14125 9921,14115 9921,14115 9931,14115 9942,14115 9942,14125 9942,14136 9931,14136 9921,14146 9931,14157 9942,14157 9952,14157 9952,14167 9952,14167 9952,14167 9931,14177 9931,14177 9931,14177 9931,14188 9931,14188 9931,14188 9942,14188 9952,14198 9963,14209 9963,14209 9963,14209 9963,14209 9952,14209 9942,14219 9942,14219 9942,14230 9952,14230 9952,14240 9931,14261 9931,14261 9931,14261 9931,14261 9942,14271 9942,14282 9931,14292 9921,14282 9911,14292 9911,14292 9911,14303 9911,14313 9900,14313 9890,14313 9879,14323 9879,14323 9879,14334 9879,14334 9859,14344 9859,14344 9859,14344 9848,14355 9848,14355 9848,14355 9838,14355 9827,14344 9827,14355 9817,14365 9817,14365 9817,14365 9806,14365 9806,14365 9796,14365 9796,14365 9796,14386 9786,14375 9786,14375 9775,14375 9775,14375 9775,14375 9765,14386 9765,14386 9754,14386 9754,14375 9744,14386 9744,14386 9744,14386 9734,14386 9734,14386 9723,14375 9723,14386 9723,14386 9713,14386 9713,14386 9692,14375 9702,14355 9692,14344 9692,14344 9681,14344 9681,14344 9681,14365 9671,14386 9692,14396 9734,14438 9734,14438 9734,14438 9754,14428 9765,14448 9786,14438 9786,14438 9796,14448 9796,14448 9796,14459 9786,14469 9786,14469 9765,14459 9754,14490 9744,14469 9744,14469 9734,14480 9734,14480 9723,14469 9723,14469 9713,14469 9723,14480 9734,14490 9734,14511 9723,14511 9723,14521 9713,14521 9702,14532 9702,14542 9702,14532 9681,14532 9681,14553 9671,14542 9661,14553 9661,14553 9661,14553 9640,14553 9640,14553 9640,14553 9640,14553 9629,14563 9629,14553 9619,14553 9619,14542 9609,14542 9609,14542 9609,14553 9598,14553 9598,14532 9577,14553 9577,14532 9567,14532 9556,14532 9556,14521 9546,14521 9546,14521 9536,14511 9546,14511 9536,14511 9536,14500 9536,14490 9546,14480 9546,14469 9546,14469 9536,14480 9525,14480 9525,14469 9515,14469 9515,14469 9504,14480 9504,14469 9494,14469 9494,14469 9473,14469 9473,14469 9463,14459 9463,14459 9463,14448 9473,14438 9504,14448 9515,14438 9546,14448 9556,14417 9577,14396 9598,14375 9577,14355 9577,14334 9577,14334 9577,14344 9567,14344 9567,14355 9577,14375 9556,14386 9546,14375 9546,14375 9536,14386 9525,14386 9525,14375 9515,14375 9504,14375 9504,14386 9504,14386 9494,14386 9494,14375 9494,14375 9484,14375 9473,14386 9473,14375 9473,14365 9463,14365 9463,14365 9452,14365 9452,14365 9442,14365 9442,14355 9442,14355 9442,14355 9431,14355 9421,14365 9411,14344 9411,14344 9411,14344 9411,14344 9400,14344 9390,14344 9379,14344 9379,14334 9390,14323 9390,14313 9379,14313 9359,14323 9359,14313 9359,14303 9359,14292 9359,14292 9348,14282 9338,14282 9327,14282 9327,14271 9338,14271 9338,14261 9327,14250 9317,14250 9317,14250 9317,14240 9327,14230 9338,14219 9327,14219 9317,14209 9317,14198 9317,14198 9327,14188 9338,14177 9327,14167 9317,14167 9317,14157 9327,14146 9327,14146 9338,14146 9348,14146 9348,14146 9348,14146 9338,14136 9327,14125 9327,14125 9338,14115 9359,14115 9369,14115 9359,14105 9348,14094 9348,14084 9359,14084 9369,14084 9379,14084 9369,14073 9369,14063 9369,14052 9369,14052 9379,14052 9390,14052 9400,14063 9411,14073 9421,14073 9421,14073 9421,14073 9421,14073 9411,14052 9390,14042 9390,14021 9421,14032 9431,14052 9452,14063 9452,14052 9452,14052 9442,14042 9442,14032 9431,14021 9431,14011 9452,14011 9452,14011 9452,14011 Z M 9640,14459 L 9640,14459 C 9640,14480 9650,14500 9650,14511 9619,14500 9640,14480 9629,14459 9640,14459 9640,14459 9640,14459 Z M 9629,14459 L 9629,14459 C 9629,14480 9640,14500 9619,14511 9609,14511 9609,14511 9609,14511 9609,14490 9619,14480 9629,14459 Z M 9640,14448 L 9640,14448 C 9650,14469 9671,14490 9671,14511 9671,14511 9671,14511 9661,14511 9661,14490 9650,14480 9640,14448 9640,14448 9640,14448 9640,14448 Z M 9504,14448 L 9504,14448 C 9504,14459 9504,14459 9494,14459 9494,14459 9484,14469 9473,14459 9473,14448 9494,14448 9504,14448 9504,14448 9504,14448 9504,14448 Z M 9598,14511 L 9598,14511 C 9598,14511 9598,14511 9588,14511 9598,14490 9609,14469 9619,14448 9619,14469 9609,14490 9598,14511 Z M 9609,14448 L 9609,14448 C 9609,14469 9588,14480 9577,14500 9577,14500 9577,14500 9577,14500 9588,14480 9598,14469 9609,14448 Z M 9567,14490 L 9567,14490 C 9567,14490 9567,14490 9567,14490 9567,14480 9588,14459 9598,14448 9598,14469 9577,14480 9567,14490 Z M 9567,14448 L 9567,14448 C 9567,14448 9556,14469 9546,14459 9546,14459 9556,14448 9556,14448 9556,14448 9567,14448 9567,14448 Z M 9536,14448 L 9536,14448 C 9536,14459 9536,14459 9525,14459 9525,14459 9515,14459 9515,14459 9515,14459 9515,14448 9515,14448 9525,14448 9525,14448 9536,14448 Z M 9786,14448 L 9786,14448 C 9786,14469 9765,14459 9754,14459 9754,14459 9765,14448 9765,14448 9775,14448 9786,14448 9786,14448 Z M 9754,14448 L 9754,14448 C 9754,14459 9744,14459 9744,14459 9734,14459 9734,14459 9734,14459 9734,14448 9734,14448 9734,14448 9744,14448 9744,14448 9754,14448 Z M 9713,14448 L 9713,14448 C 9713,14459 9713,14459 9713,14459 9702,14459 9702,14459 9692,14448 9702,14448 9713,14448 9713,14448 Z M 9692,14500 L 9692,14500 C 9692,14500 9692,14500 9692,14511 9681,14490 9650,14469 9650,14448 9692,14500 9692,14500 9692,14500 Z M 9713,14480 L 9713,14480 C 9713,14480 9713,14480 9713,14480 9692,14469 9681,14459 9671,14438 9681,14448 9692,14469 9713,14480 Z M 9661,14438 L 9661,14438 C 9671,14459 9692,14480 9702,14490 9702,14500 9702,14500 9702,14500 9681,14480 9671,14459 9650,14438 9661,14438 9661,14438 9661,14438 Z M 9556,14480 L 9556,14480 C 9556,14480 9556,14480 9556,14480 9556,14469 9577,14459 9577,14448 9598,14438 9598,14438 9598,14438 9588,14459 9567,14469 9556,14480 Z M 9598,14428 L 9598,14428 C 9598,14438 9567,14438 9546,14438 9546,14438 9556,14428 9567,14428 9577,14428 9598,14396 9598,14428 Z M 9692,14417 L 9692,14417 C 9702,14417 9713,14428 9713,14438 9702,14438 9671,14448 9661,14428 9671,14407 9671,14407 9671,14407 9671,14407 9681,14407 9692,14417 Z M 9671,14240 L 9671,14240 C 9661,14271 9661,14303 9681,14334 9671,14355 9671,14355 9671,14355 9661,14355 9671,14365 9671,14375 9671,14386 9661,14396 9650,14396 9661,14407 9661,14407 9661,14407 9650,14417 9650,14438 9629,14448 9619,14438 9609,14417 9609,14396 9609,14396 9609,14396 9609,14396 9609,14396 9598,14386 9598,14375 9598,14365 9609,14355 9598,14355 9588,14355 9588,14355 9588,14355 9577,14323 9609,14303 9598,14271 9609,14261 9598,14250 9609,14250 9619,14250 9640,14250 9640,14230 9650,14230 9640,14209 9650,14209 9661,14219 9671,14230 9671,14240 Z M 9629,14198 L 9629,14198 C 9629,14198 9629,14198 9629,14198 9629,14198 9629,14198 9629,14198 9629,14198 9629,14198 9629,14198 9629,14198 9629,14188 9629,14198 Z M 9744,14198 L 9744,14198 C 9754,14198 9754,14188 9754,14188 9765,14198 9744,14209 9754,14209 9754,14209 9765,14209 9765,14209 9765,14219 9754,14219 9754,14219 9765,14219 9765,14230 9775,14230 9775,14240 9775,14240 9765,14240 9765,14240 9754,14230 9754,14240 9754,14240 9765,14240 9765,14250 9754,14261 9744,14250 9744,14250 9734,14250 9744,14261 9744,14261 9744,14261 9734,14261 9723,14250 9723,14261 9734,14261 9734,14261 9723,14271 9723,14261 9713,14261 9702,14250 9723,14240 9723,14230 9734,14219 9734,14198 9744,14188 9744,14188 9744,14198 9744,14198 Z M 9546,14230 L 9546,14230 C 9556,14230 9556,14240 9567,14250 9567,14261 9556,14261 9556,14271 9546,14271 9546,14261 9546,14261 9546,14261 9546,14261 9546,14250 9536,14261 9536,14261 9525,14261 9525,14250 9536,14250 9536,14240 9525,14240 9525,14250 9515,14250 9515,14240 9515,14240 9525,14230 9515,14230 9515,14240 9504,14230 9504,14230 9515,14230 9525,14219 9515,14219 9504,14209 9504,14209 9515,14198 9525,14209 9525,14209 9525,14198 9525,14198 9525,14188 9525,14188 9525,14198 9536,14198 9536,14198 9536,14188 9536,14188 9536,14198 9536,14219 9546,14230 Z M 9619,14188 L 9619,14188 C 9609,14198 9619,14198 9609,14209 9598,14198 9598,14198 9588,14198 9598,14198 9609,14198 9609,14198 9609,14188 9609,14177 9598,14177 9609,14177 9619,14177 9619,14188 Z M 9786,14167 L 9786,14167 C 9786,14177 9775,14177 9765,14177 9765,14167 9775,14167 9775,14167 9775,14167 9786,14167 9786,14167 Z M 9786,14157 L 9786,14157 C 9786,14157 9775,14157 9765,14167 9765,14157 9775,14146 9786,14146 9786,14146 9786,14157 9786,14157 Z M 9786,14136 L 9786,14136 C 9786,14146 9775,14146 9765,14157 9765,14146 9775,14136 9786,14125 9786,14125 9786,14125 9786,14136 Z M 9515,14125 L 9515,14125 C 9504,14146 9504,14167 9515,14177 9504,14177 9504,14177 9494,14177 9494,14167 9494,14167 9494,14167 9494,14167 9504,14167 9504,14167 9504,14157 9494,14157 9494,14146 9494,14146 9504,14157 9504,14146 9504,14136 9494,14136 9494,14125 9504,14136 9504,14136 9504,14136 9504,14125 9494,14115 9494,14115 9504,14115 9504,14125 9515,14125 Z M 9775,14115 L 9775,14115 C 9775,14115 9775,14125 9765,14136 9765,14136 9765,14136 9765,14136 9765,14125 9775,14115 9775,14115 Z M 9515,14125 L 9515,14125 C 9515,14115 9504,14105 9504,14094 9515,14105 9515,14115 9515,14125 Z M 9765,14094 L 9765,14094 C 9765,14094 9754,14105 9765,14115 9765,14115 9765,14105 9775,14105 9765,14115 9765,14125 9765,14125 9754,14115 9754,14094 9754,14084 9765,14084 9765,14094 9765,14094 Z M 9525,14073 L 9525,14073 C 9525,14084 9525,14094 9525,14115 9525,14094 9504,14084 9525,14073 Z"/>
       <path fill="rgb(0,0,0)" stroke="none" d="M 9431,14011 L 9431,14011 C 9431,14011 9431,14000 9431,13990 9442,13990 9452,14000 9452,14011 9431,14011 9431,14011 9431,14011 Z M 9473,14011 L 9473,14011 C 9473,14000 9463,13980 9473,13969 9484,13969 9484,13990 9494,14000 9494,14000 9494,14011 9494,14011 9473,14011 9473,14011 9473,14011 Z M 9504,14011 L 9504,14011 C 9504,14000 9504,13980 9504,13969 9504,13959 9515,13948 9515,13948 9525,13959 9525,13959 9525,13959 9525,13969 9525,13980 9525,13990 9525,14000 9525,14000 9525,14000 9536,13990 9536,13990 9536,13990 9546,13990 9546,14000 9546,14011 9504,14011 9504,14011 9504,14011 Z M 9744,14011 L 9744,14011 C 9744,14000 9744,13990 9744,13980 9744,13980 9744,13980 9754,13980 9754,13990 9754,13990 9754,13990 9765,13980 9754,13959 9765,13948 9775,13959 9786,13969 9786,13980 9786,14011 9786,14011 9786,14011 9786,14011 9786,14011 9786,14011 9744,14011 9744,14011 9744,14011 Z M 9786,14011 L 9786,14011 C 9786,14000 9796,13980 9806,13969 9806,13969 9817,13980 9817,13980 9806,13990 9806,14000 9806,14011 9786,14011 9786,14011 9786,14011 Z M 9827,14011 L 9827,14011 C 9838,14011 9838,14000 9848,14000 9848,14000 9848,14011 9848,14011 9827,14011 9827,14011 9827,14011 Z"/>
       <path fill="rgb(0,0,0)" stroke="none" d="M 5254,18980 L 5254,18980 C 5119,18980 4973,18948 4911,18907 4911,18855 4931,18750 4952,18678 4984,18678 4984,18678 4984,18678 5025,18823 5129,18886 5265,18886 5390,18886 5515,18813 5515,18646 5515,18500 5421,18438 5254,18375 5109,18313 4952,18240 4952,18000 4952,17740 5171,17615 5400,17615 5515,17615 5629,17646 5702,17678 5681,17740 5661,17813 5650,17886 5609,17886 5609,17886 5609,17886 5588,17782 5525,17709 5390,17709 5265,17709 5161,17782 5161,17917 5161,18053 5244,18105 5390,18167 5588,18250 5734,18334 5734,18553 5734,18823 5515,18980 5254,18980 Z"/>
       <path fill="rgb(0,0,0)" stroke="none" d="M 7056,18959 L 7056,18959 C 7004,18948 6942,18948 6900,18948 6879,18948 6838,18948 6786,18959 6754,18834 6692,18646 6629,18480 6567,18480 6463,18480 6390,18480 6317,18480 6234,18480 6161,18480 6098,18636 6025,18844 5994,18959 5973,18948 5942,18948 5921,18948 5890,18948 5859,18948 5827,18959 5817,18948 5817,18948 5817,18948 6036,18500 6234,18063 6411,17636 6567,17636 6567,17636 6567,17636 6713,18053 6973,18730 7067,18948 L 7056,18959 Z M 6421,17875 L 6421,17875 C 6358,18011 6254,18250 6202,18375 6254,18386 6327,18386 6390,18386 6452,18386 6546,18386 6598,18375 6567,18271 6473,18032 6421,17875 Z"/>
       <path fill="rgb(0,0,0)" stroke="none" d="M 7661,18386 L 7661,18386 C 7588,18386 7588,18386 7588,18386 7588,18396 7588,18396 7588,18396 7588,18542 7598,18792 7609,18959 7577,18948 7546,18948 7515,18948 7484,18948 7452,18948 7421,18959 7431,18792 7442,18542 7442,18375 7442,18188 7442,18188 7442,18188 7442,18011 7431,17803 7421,17646 7484,17646 7546,17646 7588,17646 7650,17646 7734,17646 7775,17646 7942,17646 8109,17709 8109,17969 8109,18282 7890,18386 7661,18386 Z M 7692,17709 L 7692,17709 C 7661,17709 7629,17709 7598,17709 7598,17844 7588,18063 7588,18198 7588,18313 7588,18313 7588,18313 7650,18313 7650,18313 7650,18313 7806,18313 7931,18261 7931,18000 7931,17782 7827,17709 7692,17709 Z"/>
       <path fill="rgb(0,0,0)" stroke="none" d="M 9056,18959 L 9056,18959 C 9025,18948 8984,18948 8952,18948 8931,18948 8911,18948 8879,18959 8848,18834 8817,18667 8754,18459 8702,18448 8619,18448 8556,18448 8494,18448 8431,18448 8379,18459 8317,18646 8265,18834 8244,18959 8223,18948 8202,18948 8181,18948 8161,18948 8129,18948 8119,18959 8109,18948 8109,18948 8109,18948 8181,18771 8379,18178 8556,17636 8692,17636 8692,17636 8692,17636 8848,18219 8994,18740 9056,18948 L 9056,18959 Z M 8588,17803 L 8588,17803 C 8525,17969 8452,18209 8400,18375 8452,18375 8515,18375 8567,18375 8619,18375 8692,18375 8734,18375 8702,18230 8629,17959 8588,17803 Z"/>
       <path fill="rgb(0,0,0)" stroke="none" d="M 9494,17730 L 9494,17730 C 9494,17761 9494,17928 9494,17948 9494,18375 9494,18375 9494,18375 9494,18542 9504,18792 9504,18959 9484,18948 9442,18948 9421,18948 9390,18948 9348,18948 9327,18959 9338,18792 9338,18542 9338,18375 9338,17948 9338,17948 9338,17948 9338,17928 9338,17771 9338,17730 9244,17730 9109,17730 9046,17750 9046,17730 9046,17709 9046,17698 9046,17678 9046,17657 9046,17646 9129,17646 9286,17657 9421,17657 9546,17657 9702,17657 9786,17646 9786,17657 9786,17678 9786,17698 9786,17709 9786,17730 9786,17750 9723,17730 9598,17730 9494,17730 Z"/>
       <path fill="rgb(0,0,0)" stroke="none" d="M 10723,18948 L 10723,18948 C 10692,18948 10661,18948 10629,18959 10640,18792 10650,18553 10650,18375 10650,18292 10650,18292 10650,18292 10567,18282 10484,18292 10379,18292 10275,18292 10192,18292 10119,18292 10119,18375 10119,18375 10119,18375 10119,18542 10119,18792 10129,18959 10098,18948 10067,18948 10036,18948 10004,18948 9973,18948 9942,18959 9952,18792 9963,18542 9963,18375 9963,18198 9963,18198 9963,18198 9963,18032 9952,17803 9942,17646 9973,17646 10004,17646 10036,17646 10067,17646 10098,17646 10129,17646 10119,17803 10119,18000 10119,18125 10119,18198 10119,18198 10119,18198 10192,18209 10286,18209 10379,18209 10484,18209 10577,18209 10650,18198 10650,18125 10650,18125 10650,18125 10650,18000 10640,17803 10629,17646 10661,17646 10692,17646 10723,17646 10754,17646 10786,17646 10817,17646 10806,17803 10796,18032 10796,18198 10796,18375 10796,18375 10796,18375 10796,18542 10806,18792 10817,18959 10786,18948 10754,18948 10723,18948 Z"/>
       <path fill="rgb(0,0,0)" stroke="none" d="M 11577,18980 L 11577,18980 C 11244,18980 11056,18719 11056,18303 11056,17875 11244,17615 11577,17615 11921,17615 12109,17875 12109,18303 12109,18719 11921,18980 11577,18980 Z M 11577,17678 L 11577,17678 C 11369,17678 11234,17886 11234,18303 11234,18709 11369,18917 11577,18917 11796,18917 11931,18709 11931,18303 11931,17886 11806,17678 11577,17678 Z"/>
       <path fill="rgb(0,0,0)" stroke="none" d="M 12546,18948 L 12546,18948 C 12484,18948 12421,18948 12348,18959 12359,18803 12359,18542 12359,18375 12359,18188 12359,18188 12359,18188 12359,18011 12359,17792 12348,17646 12379,17646 12411,17646 12442,17646 12473,17646 12504,17646 12536,17646 12525,17792 12515,18011 12515,18188 12515,18375 12515,18375 12515,18375 12515,18542 12525,18782 12525,18865 12650,18865 12796,18865 12911,18844 12911,18855 12911,18875 12911,18896 12911,18917 12911,18938 12911,18959 12806,18948 12661,18948 12546,18948 Z"/>
       <path fill="rgb(0,0,0)" stroke="none" d="M 13515,18980 L 13515,18980 C 13171,18980 12984,18719 12984,18303 12984,17875 13171,17615 13515,17615 13848,17615 14036,17875 14036,18303 14036,18719 13848,18980 13515,18980 Z M 13515,17678 L 13515,17678 C 13296,17678 13161,17886 13161,18303 13161,18709 13296,18917 13515,18917 13723,18917 13859,18709 13859,18303 13859,17886 13734,17678 13515,17678 Z"/>
       <path fill="rgb(0,0,0)" stroke="none" d="M 15109,18719 L 15109,18719 C 15109,18792 15109,18875 15109,18928 15036,18959 14911,18969 14786,18969 14411,18969 14223,18740 14223,18303 14223,17886 14421,17615 14796,17615 14900,17615 15025,17636 15098,17667 15088,17709 15067,17803 15056,17865 15025,17865 15025,17865 15025,17865 14994,17740 14911,17688 14796,17688 14546,17688 14411,17896 14411,18303 14411,18688 14536,18907 14806,18907 14869,18907 14942,18896 14963,18886 14963,18719 14963,18521 14942,18375 14973,18375 15004,18375 15036,18375 15056,18375 15088,18375 15119,18375 15109,18459 15109,18584 15109,18719 Z"/>
       <path fill="rgb(0,0,0)" stroke="none" d="M 15723,18365 L 15723,18365 C 15723,18448 15723,18448 15723,18448 15723,18636 15723,18813 15734,18959 15702,18948 15671,18948 15640,18948 15619,18948 15577,18948 15556,18959 15567,18813 15567,18625 15567,18448 15567,18396 15567,18396 15567,18396 15421,18084 15254,17730 15213,17646 15213,17646 15213,17646 15213,17646 15254,17646 15296,17646 15327,17646 15348,17646 15379,17646 15411,17646 15463,17813 15598,18115 15671,18282 15681,18282 15681,18282 15681,18282 15786,18073 15911,17750 15942,17646 15952,17646 15984,17646 16004,17646 16025,17646 16056,17646 16067,17646 16077,17646 16077,17646 16077,17646 16036,17719 15806,18157 15723,18365 Z"/>
      </g>
     </g>
    </g>
   </g>
  </g>
 </g>
</svg>